<?xml version="1.0" encoding="UTF-8" standalone="no"?>
<!DOCTYPE svg PUBLIC "-//W3C//DTD SVG 1.1//EN" "http://www.w3.org/Graphics/SVG/1.1/DTD/svg11.dtd">
<svg width="66px" height="20px" version="1.1" xmlns="http://www.w3.org/2000/svg" xmlns:xlink="http://www.w3.org/1999/xlink" xml:space="preserve" xmlns:serif="http://www.serif.com/" style="fill-rule:evenodd;clip-rule:evenodd;stroke-linejoin:round;stroke-miterlimit:2;">
    <path d="M16.486,12.943l1.87,-0.164c0.088,0.749 0.294,1.364 0.618,1.844c0.324,0.481 0.826,0.869 1.507,1.165c0.681,0.296 1.447,0.444 2.299,0.444c0.756,0 1.423,-0.112 2.002,-0.337c0.579,-0.224 1.01,-0.533 1.293,-0.924c0.283,-0.392 0.424,-0.819 0.424,-1.283c-0,-0.47 -0.136,-0.88 -0.409,-1.231c-0.272,-0.35 -0.722,-0.645 -1.348,-0.883c-0.402,-0.157 -1.291,-0.401 -2.667,-0.731c-1.376,-0.33 -2.34,-0.642 -2.892,-0.935c-0.715,-0.374 -1.248,-0.839 -1.599,-1.394c-0.35,-0.556 -0.526,-1.177 -0.526,-1.865c0,-0.756 0.215,-1.463 0.644,-2.12c0.429,-0.657 1.056,-1.156 1.88,-1.497c0.824,-0.341 1.74,-0.511 2.748,-0.511c1.111,0 2.09,0.179 2.938,0.537c0.848,0.357 1.5,0.883 1.956,1.578c0.457,0.695 0.702,1.482 0.736,2.36l-1.9,0.143c-0.103,-0.946 -0.448,-1.662 -1.038,-2.145c-0.589,-0.484 -1.459,-0.726 -2.61,-0.726c-1.199,0 -2.072,0.22 -2.621,0.659c-0.548,0.44 -0.822,0.969 -0.822,1.589c-0,0.538 0.194,0.981 0.582,1.328c0.382,0.348 1.378,0.704 2.989,1.068c1.611,0.364 2.716,0.683 3.315,0.955c0.872,0.402 1.516,0.911 1.931,1.528c0.416,0.616 0.623,1.326 0.623,2.13c0,0.797 -0.228,1.548 -0.684,2.253c-0.456,0.705 -1.112,1.253 -1.967,1.645c-0.855,0.391 -1.817,0.587 -2.886,0.587c-1.356,0 -2.491,-0.197 -3.408,-0.592c-0.916,-0.395 -1.634,-0.99 -2.155,-1.783c-0.521,-0.794 -0.796,-1.691 -0.823,-2.692Z" style="fill-rule:nonzero;"/>
    <rect x="31.454" y="2.777" width="1.982" height="14.978" style="fill-rule:nonzero;"/>
    <path d="M36.91,17.755l0,-14.978l2.033,-0l7.867,11.759l0,-11.759l1.901,-0l-0,14.978l-2.033,-0l-7.868,-11.77l0,11.77l-1.9,-0Z" style="fill-rule:nonzero;"/>
</svg>
