<?xml version="1.0" encoding="UTF-8" standalone="no"?>
<!DOCTYPE svg PUBLIC "-//W3C//DTD SVG 1.1//EN" "http://www.w3.org/Graphics/SVG/1.1/DTD/svg11.dtd">
<svg width="360px" height="365px" version="1.1" xmlns="http://www.w3.org/2000/svg" xmlns:xlink="http://www.w3.org/1999/xlink" xml:space="preserve" xmlns:serif="http://www.serif.com/" style="fill-rule:evenodd;clip-rule:evenodd;stroke-linecap:round;stroke-linejoin:round;stroke-miterlimit:1.5;">
    <rect id="BG" x="0" y="0" width="360" height="364.252" style="fill:url(#_Linear1);"/>
    <path d="M59.099,138.524l-1.86,-7.226l0.986,-0l1.48,5.708l1.362,-5.708l0.987,-0l1.289,5.629l1.591,-5.629l0.835,-0l-2.026,7.226l-1.021,0l-1.274,-5.571l-1.333,5.571l-1.016,0Z" style="fill:rgb(73,73,73);fill-rule:nonzero;"/>
    <path d="M69.48,137.85c-0.576,0.531 -1.131,0.796 -1.665,0.796c-0.439,0 -0.804,-0.137 -1.093,-0.412c-0.29,-0.275 -0.435,-0.623 -0.435,-1.043c-0,-0.579 0.243,-1.024 0.73,-1.335c0.487,-0.311 1.184,-0.467 2.092,-0.467l0.23,0l-0,-0.639c-0,-0.616 -0.316,-0.923 -0.948,-0.923c-0.507,-0 -1.056,0.156 -1.645,0.469l-0,-0.796c0.648,-0.264 1.255,-0.396 1.821,-0.396c0.593,0 1.03,0.134 1.311,0.401c0.282,0.267 0.423,0.682 0.423,1.245l-0,2.402c-0,0.55 0.169,0.825 0.507,0.825c0.043,0 0.105,-0.006 0.186,-0.019l0.068,0.532c-0.218,0.104 -0.459,0.156 -0.722,0.156c-0.45,0 -0.736,-0.265 -0.86,-0.796Zm-0.141,-0.522l-0,-1.372l-0.323,-0.01c-0.527,0 -0.953,0.1 -1.279,0.3c-0.325,0.2 -0.488,0.463 -0.488,0.789c-0,0.231 0.081,0.426 0.244,0.586c0.163,0.159 0.361,0.239 0.596,0.239c0.4,0 0.817,-0.177 1.25,-0.532Z" style="fill:rgb(73,73,73);fill-rule:nonzero;"/>
    <path d="M73.367,138.524l-1.973,-5.303l0.962,0l1.543,4.126l1.626,-4.126l0.899,0l-2.095,5.303l-0.962,0Z" style="fill:rgb(73,73,73);fill-rule:nonzero;"/>
    <path d="M81.331,138.353c-0.645,0.196 -1.196,0.293 -1.655,0.293c-0.782,0 -1.419,-0.259 -1.912,-0.779c-0.493,-0.519 -0.74,-1.192 -0.74,-2.019c0,-0.804 0.218,-1.463 0.652,-1.977c0.435,-0.515 0.991,-0.772 1.668,-0.772c0.641,0 1.136,0.228 1.486,0.684c0.35,0.456 0.525,1.103 0.525,1.943l-0.005,0.298l-3.344,0c0.14,1.26 0.757,1.89 1.85,1.89c0.401,-0 0.892,-0.108 1.475,-0.322l-0,0.761Zm-3.281,-3.052l2.339,0c-0,-0.986 -0.368,-1.479 -1.104,-1.479c-0.739,-0 -1.151,0.493 -1.235,1.479Z" style="fill:rgb(73,73,73);fill-rule:nonzero;"/>
    <path d="M84.422,138.646c-0.44,0 -0.974,-0.102 -1.602,-0.307l0,-0.884c0.628,0.312 1.175,0.469 1.641,0.469c0.276,-0 0.506,-0.075 0.688,-0.225c0.183,-0.15 0.274,-0.337 0.274,-0.562c-0,-0.328 -0.256,-0.6 -0.767,-0.815l-0.561,-0.239c-0.831,-0.345 -1.246,-0.842 -1.246,-1.49c0,-0.462 0.164,-0.826 0.491,-1.091c0.327,-0.265 0.776,-0.398 1.345,-0.398c0.297,0 0.663,0.041 1.099,0.122l0.2,0.039l0,0.801c-0.537,-0.159 -0.963,-0.239 -1.279,-0.239c-0.619,-0 -0.928,0.224 -0.928,0.674c0,0.289 0.235,0.534 0.703,0.732l0.464,0.195c0.524,0.222 0.895,0.455 1.113,0.701c0.219,0.246 0.328,0.553 0.328,0.921c-0,0.465 -0.184,0.848 -0.552,1.147c-0.368,0.299 -0.838,0.449 -1.411,0.449Z" style="fill:rgb(73,73,73);fill-rule:nonzero;"/>
    <path d="M88.113,138.524l0,-7.71l0.962,0l0,3.403c0.508,-0.742 1.13,-1.113 1.865,-1.113c0.459,0 0.825,0.146 1.099,0.437c0.273,0.292 0.41,0.683 0.41,1.175l0,3.808l-0.962,0l0,-3.496c0,-0.394 -0.058,-0.675 -0.173,-0.842c-0.116,-0.168 -0.307,-0.252 -0.574,-0.252c-0.589,0 -1.144,0.386 -1.665,1.158l0,3.432l-0.962,0Z" style="fill:rgb(73,73,73);fill-rule:nonzero;"/>
    <path d="M97.054,137.85c-0.577,0.531 -1.132,0.796 -1.665,0.796c-0.44,0 -0.805,-0.137 -1.094,-0.412c-0.29,-0.275 -0.435,-0.623 -0.435,-1.043c0,-0.579 0.244,-1.024 0.73,-1.335c0.487,-0.311 1.184,-0.467 2.092,-0.467l0.23,0l-0,-0.639c-0,-0.616 -0.316,-0.923 -0.947,-0.923c-0.508,-0 -1.057,0.156 -1.646,0.469l0,-0.796c0.648,-0.264 1.255,-0.396 1.821,-0.396c0.593,0 1.03,0.134 1.312,0.401c0.281,0.267 0.422,0.682 0.422,1.245l-0,2.402c-0,0.55 0.169,0.825 0.508,0.825c0.042,0 0.104,-0.006 0.185,-0.019l0.069,0.532c-0.219,0.104 -0.459,0.156 -0.723,0.156c-0.449,0 -0.736,-0.265 -0.859,-0.796Zm-0.142,-0.522l-0,-1.372l-0.322,-0.01c-0.528,0 -0.954,0.1 -1.28,0.3c-0.325,0.2 -0.488,0.463 -0.488,0.789c0,0.231 0.081,0.426 0.244,0.586c0.163,0.159 0.362,0.239 0.596,0.239c0.4,0 0.817,-0.177 1.25,-0.532Z" style="fill:rgb(73,73,73);fill-rule:nonzero;"/>
    <path d="M99.842,140.453l-0,-7.232l0.962,0l-0,0.996c0.393,-0.742 0.984,-1.113 1.772,-1.113c0.638,0 1.14,0.233 1.506,0.698c0.367,0.466 0.55,1.102 0.55,1.91c-0,0.879 -0.208,1.587 -0.623,2.126c-0.415,0.539 -0.961,0.808 -1.638,0.808c-0.628,0 -1.151,-0.241 -1.567,-0.722l-0,2.529l-0.962,-0Zm0.962,-3.194c0.494,0.443 0.966,0.665 1.416,0.665c0.924,-0 1.386,-0.705 1.386,-2.115c0,-1.243 -0.41,-1.865 -1.23,-1.865c-0.537,0 -1.061,0.291 -1.572,0.874l-0,2.441Z" style="fill:rgb(73,73,73);fill-rule:nonzero;"/>
    <path d="M110.022,138.353c-0.644,0.196 -1.196,0.293 -1.655,0.293c-0.781,0 -1.418,-0.259 -1.912,-0.779c-0.493,-0.519 -0.739,-1.192 -0.739,-2.019c-0,-0.804 0.217,-1.463 0.652,-1.977c0.434,-0.515 0.99,-0.772 1.667,-0.772c0.641,0 1.137,0.228 1.487,0.684c0.35,0.456 0.525,1.103 0.525,1.943l-0.005,0.298l-3.345,0c0.14,1.26 0.757,1.89 1.851,1.89c0.4,-0 0.892,-0.108 1.474,-0.322l0,0.761Zm-3.281,-3.052l2.339,0c-0,-0.986 -0.368,-1.479 -1.104,-1.479c-0.739,-0 -1.15,0.493 -1.235,1.479Z" style="fill:rgb(73,73,73);fill-rule:nonzero;"/>
    <path d="M59.099,277.471l-1.86,-7.227l0.986,0l1.48,5.708l1.362,-5.708l0.987,0l1.289,5.63l1.591,-5.63l0.835,0l-2.026,7.227l-1.021,-0l-1.274,-5.572l-1.333,5.572l-1.016,-0Z" style="fill:rgb(73,73,73);fill-rule:nonzero;"/>
    <path d="M69.48,276.797c-0.576,0.531 -1.131,0.796 -1.665,0.796c-0.439,-0 -0.804,-0.138 -1.093,-0.413c-0.29,-0.275 -0.435,-0.622 -0.435,-1.042c-0,-0.58 0.243,-1.025 0.73,-1.336c0.487,-0.311 1.184,-0.466 2.092,-0.466l0.23,0l-0,-0.64c-0,-0.615 -0.316,-0.922 -0.948,-0.922c-0.507,-0 -1.056,0.156 -1.645,0.468l-0,-0.796c0.648,-0.263 1.255,-0.395 1.821,-0.395c0.593,-0 1.03,0.133 1.311,0.4c0.282,0.267 0.423,0.682 0.423,1.245l-0,2.403c-0,0.55 0.169,0.825 0.507,0.825c0.043,-0 0.105,-0.007 0.186,-0.02l0.068,0.533c-0.218,0.104 -0.459,0.156 -0.722,0.156c-0.45,-0 -0.736,-0.265 -0.86,-0.796Zm-0.141,-0.523l-0,-1.372l-0.323,-0.009c-0.527,-0 -0.953,0.1 -1.279,0.3c-0.325,0.2 -0.488,0.463 -0.488,0.789c-0,0.231 0.081,0.426 0.244,0.585c0.163,0.16 0.361,0.24 0.596,0.24c0.4,-0 0.817,-0.178 1.25,-0.533Z" style="fill:rgb(73,73,73);fill-rule:nonzero;"/>
    <path d="M73.367,277.471l-1.973,-5.303l0.962,0l1.543,4.126l1.626,-4.126l0.899,0l-2.095,5.303l-0.962,-0Z" style="fill:rgb(73,73,73);fill-rule:nonzero;"/>
    <path d="M81.331,277.3c-0.645,0.195 -1.196,0.293 -1.655,0.293c-0.782,-0 -1.419,-0.26 -1.912,-0.779c-0.493,-0.519 -0.74,-1.192 -0.74,-2.019c0,-0.804 0.218,-1.463 0.652,-1.978c0.435,-0.514 0.991,-0.771 1.668,-0.771c0.641,-0 1.136,0.228 1.486,0.684c0.35,0.455 0.525,1.103 0.525,1.943l-0.005,0.298l-3.344,-0c0.14,1.26 0.757,1.889 1.85,1.889c0.401,0 0.892,-0.107 1.475,-0.322l-0,0.762Zm-3.281,-3.052l2.339,0c-0,-0.986 -0.368,-1.479 -1.104,-1.479c-0.739,-0 -1.151,0.493 -1.235,1.479Z" style="fill:rgb(73,73,73);fill-rule:nonzero;"/>
    <path d="M84.422,277.593c-0.44,-0 -0.974,-0.103 -1.602,-0.308l0,-0.884c0.628,0.313 1.175,0.469 1.641,0.469c0.276,0 0.506,-0.075 0.688,-0.224c0.183,-0.15 0.274,-0.337 0.274,-0.562c-0,-0.329 -0.256,-0.601 -0.767,-0.815l-0.561,-0.24c-0.831,-0.345 -1.246,-0.841 -1.246,-1.489c0,-0.462 0.164,-0.826 0.491,-1.091c0.327,-0.265 0.776,-0.398 1.345,-0.398c0.297,-0 0.663,0.041 1.099,0.122l0.2,0.039l0,0.801c-0.537,-0.16 -0.963,-0.239 -1.279,-0.239c-0.619,-0 -0.928,0.224 -0.928,0.673c0,0.29 0.235,0.534 0.703,0.733l0.464,0.195c0.524,0.221 0.895,0.455 1.113,0.701c0.219,0.246 0.328,0.552 0.328,0.92c-0,0.466 -0.184,0.848 -0.552,1.148c-0.368,0.299 -0.838,0.449 -1.411,0.449Z" style="fill:rgb(73,73,73);fill-rule:nonzero;"/>
    <path d="M88.113,277.471l0,-7.71l0.962,-0l0,3.403c0.508,-0.742 1.13,-1.113 1.865,-1.113c0.459,-0 0.825,0.146 1.099,0.437c0.273,0.291 0.41,0.683 0.41,1.174l0,3.809l-0.962,-0l0,-3.496c0,-0.394 -0.058,-0.675 -0.173,-0.843c-0.116,-0.167 -0.307,-0.251 -0.574,-0.251c-0.589,-0 -1.144,0.386 -1.665,1.157l0,3.433l-0.962,-0Z" style="fill:rgb(73,73,73);fill-rule:nonzero;"/>
    <path d="M97.054,276.797c-0.577,0.531 -1.132,0.796 -1.665,0.796c-0.44,-0 -0.805,-0.138 -1.094,-0.413c-0.29,-0.275 -0.435,-0.622 -0.435,-1.042c0,-0.58 0.244,-1.025 0.73,-1.336c0.487,-0.311 1.184,-0.466 2.092,-0.466l0.23,0l-0,-0.64c-0,-0.615 -0.316,-0.922 -0.947,-0.922c-0.508,-0 -1.057,0.156 -1.646,0.468l0,-0.796c0.648,-0.263 1.255,-0.395 1.821,-0.395c0.593,-0 1.03,0.133 1.312,0.4c0.281,0.267 0.422,0.682 0.422,1.245l-0,2.403c-0,0.55 0.169,0.825 0.508,0.825c0.042,-0 0.104,-0.007 0.185,-0.02l0.069,0.533c-0.219,0.104 -0.459,0.156 -0.723,0.156c-0.449,-0 -0.736,-0.265 -0.859,-0.796Zm-0.142,-0.523l-0,-1.372l-0.322,-0.009c-0.528,-0 -0.954,0.1 -1.28,0.3c-0.325,0.2 -0.488,0.463 -0.488,0.789c0,0.231 0.081,0.426 0.244,0.585c0.163,0.16 0.362,0.24 0.596,0.24c0.4,-0 0.817,-0.178 1.25,-0.533Z" style="fill:rgb(73,73,73);fill-rule:nonzero;"/>
    <path d="M99.842,279.399l-0,-7.231l0.962,0l-0,0.996c0.393,-0.742 0.984,-1.113 1.772,-1.113c0.638,-0 1.14,0.233 1.506,0.698c0.367,0.466 0.55,1.102 0.55,1.909c-0,0.879 -0.208,1.588 -0.623,2.127c-0.415,0.538 -0.961,0.808 -1.638,0.808c-0.628,-0 -1.151,-0.241 -1.567,-0.723l-0,2.529l-0.962,0Zm0.962,-3.193c0.494,0.443 0.966,0.664 1.416,0.664c0.924,0 1.386,-0.705 1.386,-2.114c0,-1.244 -0.41,-1.865 -1.23,-1.865c-0.537,-0 -1.061,0.291 -1.572,0.874l-0,2.441Z" style="fill:rgb(73,73,73);fill-rule:nonzero;"/>
    <path d="M110.022,277.3c-0.644,0.195 -1.196,0.293 -1.655,0.293c-0.781,-0 -1.418,-0.26 -1.912,-0.779c-0.493,-0.519 -0.739,-1.192 -0.739,-2.019c-0,-0.804 0.217,-1.463 0.652,-1.978c0.434,-0.514 0.99,-0.771 1.667,-0.771c0.641,-0 1.137,0.228 1.487,0.684c0.35,0.455 0.525,1.103 0.525,1.943l-0.005,0.298l-3.345,-0c0.14,1.26 0.757,1.889 1.851,1.889c0.4,0 0.892,-0.107 1.474,-0.322l0,0.762Zm-3.281,-3.052l2.339,0c-0,-0.986 -0.368,-1.479 -1.104,-1.479c-0.739,-0 -1.15,0.493 -1.235,1.479Z" style="fill:rgb(73,73,73);fill-rule:nonzero;"/>
    <path d="M70.766,182.915l-1.231,-3.116l-1.235,3.116l2.466,-0Zm1.084,2.763l-0.787,-2.002l-3.061,0l-0.796,2.002l-0.952,0l2.866,-7.226l1.016,-0l2.822,7.226l-1.108,0Z" style="fill:rgb(73,73,73);fill-rule:nonzero;"/>
    <path d="M74.032,185.678l0,-5.303l0.962,0l0,0.997c0.469,-0.743 1.071,-1.114 1.807,-1.114c0.709,0 1.193,0.371 1.45,1.114c0.456,-0.746 1.048,-1.119 1.777,-1.119c0.469,0 0.832,0.138 1.089,0.413c0.257,0.275 0.386,0.66 0.386,1.155l-0,3.857l-0.967,0l0,-3.706c0,-0.605 -0.239,-0.908 -0.718,-0.908c-0.498,-0 -1.02,0.353 -1.567,1.06l-0,3.554l-0.967,0l0,-3.706c0,-0.609 -0.244,-0.913 -0.732,-0.913c-0.485,0 -1.005,0.355 -1.558,1.065l0,3.554l-0.962,0Z" style="fill:rgb(73,73,73);fill-rule:nonzero;"/>
    <path d="M85.443,185.8c-0.758,0 -1.364,-0.251 -1.816,-0.754c-0.453,-0.503 -0.679,-1.176 -0.679,-2.019c0,-0.853 0.227,-1.528 0.681,-2.024c0.454,-0.496 1.071,-0.745 1.849,-0.745c0.777,0 1.394,0.249 1.848,0.745c0.454,0.496 0.681,1.168 0.681,2.014c-0,0.866 -0.228,1.546 -0.684,2.041c-0.456,0.495 -1.082,0.742 -1.88,0.742Zm0.015,-0.722c1.019,-0 1.528,-0.687 1.528,-2.061c0,-1.357 -0.503,-2.036 -1.508,-2.036c-1.003,-0 -1.504,0.682 -1.504,2.046c-0,1.367 0.494,2.051 1.484,2.051Z" style="fill:rgb(73,73,73);fill-rule:nonzero;"/>
    <path d="M92.826,185.678l0,-0.996c-0.511,0.746 -1.131,1.118 -1.86,1.118c-0.462,0 -0.83,-0.145 -1.104,-0.437c-0.273,-0.291 -0.41,-0.684 -0.41,-1.179l0,-3.809l0.962,0l0,3.497c0,0.397 0.058,0.679 0.173,0.847c0.116,0.167 0.309,0.251 0.579,0.251c0.586,0 1.139,-0.386 1.66,-1.157l0,-3.438l0.962,0l0,5.303l-0.962,0Z" style="fill:rgb(73,73,73);fill-rule:nonzero;"/>
    <path d="M95.717,185.678l-0,-5.303l0.962,0l-0,0.997c0.507,-0.743 1.129,-1.114 1.865,-1.114c0.459,0 0.825,0.146 1.099,0.437c0.273,0.292 0.41,0.683 0.41,1.175l-0,3.808l-0.962,0l-0,-3.496c-0,-0.394 -0.058,-0.675 -0.174,-0.842c-0.115,-0.168 -0.306,-0.252 -0.573,-0.252c-0.589,0 -1.144,0.386 -1.665,1.158l-0,3.432l-0.962,0Z" style="fill:rgb(73,73,73);fill-rule:nonzero;"/>
    <path d="M103.515,185.8c-0.489,0 -0.87,-0.14 -1.143,-0.42c-0.273,-0.28 -0.41,-0.669 -0.41,-1.167l-0,-3.115l-0.664,0l-0,-0.723l0.664,0l-0,-0.961l0.962,-0.093l-0,1.054l1.387,0l-0,0.723l-1.387,0l-0,2.94c-0,0.693 0.299,1.04 0.898,1.04c0.127,-0 0.282,-0.022 0.464,-0.064l0,0.664c-0.296,0.082 -0.553,0.122 -0.771,0.122Z" style="fill:rgb(73,73,73);fill-rule:nonzero;"/>
    <path d="M69.126,232.926l-1.23,-3.115l-1.236,3.115l2.466,0Zm1.084,2.764l-0.786,-2.002l-3.061,-0l-0.796,2.002l-0.952,-0l2.866,-7.227l1.015,0l2.823,7.227l-1.109,-0Z" style="fill:rgb(73,73,73);fill-rule:nonzero;"/>
    <path d="M72.393,235.69l-0,-5.303l0.962,0l-0,0.996c0.469,-0.742 1.071,-1.113 1.806,-1.113c0.71,-0 1.193,0.371 1.451,1.113c0.455,-0.745 1.048,-1.118 1.777,-1.118c0.469,0 0.832,0.138 1.089,0.413c0.257,0.275 0.386,0.66 0.386,1.154l-0,3.858l-0.967,-0l-0,-3.706c-0,-0.606 -0.239,-0.908 -0.718,-0.908c-0.498,-0 -1.02,0.353 -1.567,1.059l-0,3.555l-0.967,-0l-0,-3.706c-0,-0.609 -0.244,-0.913 -0.733,-0.913c-0.485,-0 -1.004,0.355 -1.557,1.064l-0,3.555l-0.962,-0Z" style="fill:rgb(73,73,73);fill-rule:nonzero;"/>
    <path d="M83.804,235.812c-0.758,-0 -1.364,-0.252 -1.816,-0.754c-0.453,-0.503 -0.679,-1.176 -0.679,-2.019c-0,-0.853 0.227,-1.528 0.681,-2.024c0.454,-0.497 1.07,-0.745 1.848,-0.745c0.778,-0 1.394,0.248 1.848,0.745c0.454,0.496 0.682,1.167 0.682,2.014c-0,0.866 -0.228,1.546 -0.684,2.041c-0.456,0.495 -1.082,0.742 -1.88,0.742Zm0.015,-0.723c1.019,0 1.528,-0.687 1.528,-2.06c0,-1.358 -0.503,-2.036 -1.509,-2.036c-1.002,-0 -1.504,0.682 -1.504,2.046c0,1.367 0.495,2.05 1.485,2.05Z" style="fill:rgb(73,73,73);fill-rule:nonzero;"/>
    <path d="M91.187,235.69l-0,-0.996c-0.511,0.745 -1.131,1.118 -1.86,1.118c-0.463,-0 -0.831,-0.146 -1.104,-0.437c-0.273,-0.291 -0.41,-0.684 -0.41,-1.179l-0,-3.809l0.962,0l-0,3.496c-0,0.397 0.058,0.68 0.173,0.847c0.116,0.168 0.309,0.252 0.579,0.252c0.586,-0 1.139,-0.386 1.66,-1.157l-0,-3.438l0.962,0l-0,5.303l-0.962,-0Z" style="fill:rgb(73,73,73);fill-rule:nonzero;"/>
    <path d="M94.077,235.69l0,-5.303l0.962,0l0,0.996c0.508,-0.742 1.13,-1.113 1.866,-1.113c0.459,-0 0.825,0.146 1.098,0.437c0.274,0.291 0.41,0.683 0.41,1.174l0,3.809l-0.961,-0l-0,-3.496c-0,-0.394 -0.058,-0.675 -0.174,-0.842c-0.115,-0.168 -0.307,-0.252 -0.574,-0.252c-0.589,0 -1.144,0.386 -1.665,1.157l0,3.433l-0.962,-0Z" style="fill:rgb(73,73,73);fill-rule:nonzero;"/>
    <path d="M101.875,235.812c-0.488,-0 -0.869,-0.14 -1.142,-0.42c-0.274,-0.28 -0.41,-0.669 -0.41,-1.167l-0,-3.115l-0.664,-0l-0,-0.723l0.664,0l-0,-0.962l0.962,-0.093l-0,1.055l1.386,0l0,0.723l-1.386,-0l-0,2.939c-0,0.694 0.299,1.04 0.898,1.04c0.127,0 0.282,-0.021 0.464,-0.063l-0,0.664c-0.296,0.081 -0.554,0.122 -0.772,0.122Z" style="fill:rgb(73,73,73);fill-rule:nonzero;"/>
    <path id="Title" d="M11.789,41.344l0,-27.034l7.362,-0c3.264,-0 5.608,0.551 7.033,1.653c1.424,1.102 2.137,2.913 2.137,5.434c-0,2.874 -0.974,5.127 -2.923,6.759c-1.948,1.632 -4.652,2.448 -8.11,2.448l-1.699,-0l-0,10.74l-3.8,0Zm3.8,-13.645l1.553,0c2.277,0 4.037,-0.524 5.279,-1.571c1.242,-1.047 1.863,-2.527 1.863,-4.439c-0,-1.619 -0.487,-2.776 -1.461,-3.47c-0.975,-0.694 -2.6,-1.042 -4.878,-1.042l-2.356,0l-0,10.522Z" style="fill:white;fill-rule:nonzero;"/>
    <path d="M32.577,41.344l0,-19.837l3.599,-0l-0,3.726c1.424,-2.776 3.495,-4.165 6.21,-4.165c0.366,0 0.749,0.031 1.151,0.092l0,3.361c-0.621,-0.207 -1.169,-0.311 -1.644,-0.311c-2.277,0 -4.183,1.352 -5.717,4.055l-0,13.079l-3.599,0Z" style="fill:white;fill-rule:nonzero;"/>
    <path d="M47.885,41.344l-0,-19.837l3.598,-0l0,19.837l-3.598,0Zm-0,-23.436l-0,-3.598l3.598,-0l0,3.598l-3.598,0Z" style="fill:white;fill-rule:nonzero;"/>
    <path d="M57.347,41.344l-0,-2.703l12.275,-14.431l-11.709,0l0,-2.703l16.148,-0l-0,2.703l-12.275,14.431l12.512,-0l0,2.703l-16.951,0Z" style="fill:white;fill-rule:nonzero;"/>
    <path d="M80.144,41.344l-0,-19.837l3.598,-0l0,3.726c1.754,-2.776 4.007,-4.165 6.759,-4.165c2.655,0 4.463,1.389 5.425,4.165c1.705,-2.789 3.921,-4.183 6.649,-4.183c1.754,0 3.112,0.515 4.074,1.544c0.962,1.029 1.443,2.469 1.443,4.32l-0,14.43l-3.617,0l0,-13.864c0,-2.265 -0.895,-3.398 -2.685,-3.398c-1.863,0 -3.818,1.322 -5.864,3.964l0,13.298l-3.617,0l0,-13.864c0,-2.277 -0.913,-3.416 -2.74,-3.416c-1.814,0 -3.756,1.327 -5.827,3.982l0,13.298l-3.598,0Z" style="fill:white;fill-rule:nonzero;"/>
    <g id="Cube">
        <rect id="Cube-Front" serif:id="Cube Front" x="137.48" y="167.953" width="56.693" height="56.693" style="fill:none;stroke:rgb(41,0,255);stroke-width:1px;"/>
        <rect id="Cube-Back" serif:id="Cube Back" x="165.827" y="139.606" width="56.693" height="56.693" style="fill:none;stroke:rgb(41,0,255);stroke-width:1px;"/>
        <path id="Cube1" serif:id="Cube" d="M194.173,224.646l28.347,-28.347l-56.693,0l-28.347,28.347l0,-56.693l28.347,-28.347l56.693,0l-28.347,28.347" style="fill:none;stroke:rgb(41,0,255);stroke-width:1px;"/>
    </g>
    <path d="M41.827,93.273l-4.242,-10.74l-4.258,10.74l8.5,-0Zm3.737,9.527l-2.71,-6.902l-10.554,0l-2.744,6.902l-3.282,-0l9.881,-24.912l3.501,-0l9.729,24.912l-3.821,-0Z" style="fill:white;fill-rule:nonzero;"/>
    <path d="M298.637,125.898l-0,-24.912l6.463,0c2.492,0 4.402,0.472 5.732,1.414c1.33,0.943 1.995,2.301 1.995,4.074c-0,3.018 -1.706,5.167 -5.118,6.447c4.074,1.245 6.111,3.495 6.111,6.749c-0,2.02 -0.674,3.563 -2.02,4.629c-1.347,1.066 -3.288,1.599 -5.824,1.599l-7.339,0Zm3.501,-2.642l0.724,-0c2.592,-0 4.269,-0.163 5.033,-0.488c1.458,-0.618 2.188,-1.762 2.188,-3.434c-0,-1.482 -0.662,-2.713 -1.986,-3.695c-1.325,-0.982 -2.98,-1.473 -4.966,-1.473l-0.993,0l-0,9.09Zm-0,-11.329l1.128,0c1.885,0 3.346,-0.404 4.384,-1.212c1.038,-0.808 1.557,-1.947 1.557,-3.417c0,-2.446 -1.896,-3.669 -5.689,-3.669l-1.38,-0l-0,8.298Z" style="fill:white;fill-rule:nonzero;"/>
    <path d="M308.273,315.01c-3.871,-0 -6.862,-1.136 -8.972,-3.409c-2.109,-2.272 -3.164,-5.49 -3.164,-9.653c-0,-4.152 1.074,-7.373 3.223,-9.662c2.149,-2.289 5.176,-3.434 9.082,-3.434c2.233,-0 4.847,0.365 7.844,1.094l-0,3.316c-3.412,-1.178 -6.043,-1.767 -7.895,-1.767c-2.704,-0 -4.797,0.914 -6.278,2.743c-1.482,1.829 -2.222,4.41 -2.222,7.743c-0,3.176 0.791,5.681 2.373,7.516c1.582,1.835 3.742,2.752 6.481,2.752c2.356,0 4.881,-0.724 7.574,-2.171l0,3.03c-2.457,1.268 -5.139,1.902 -8.046,1.902Z" style="fill:white;fill-rule:nonzero;"/>
    <path d="M26.274,341.083l-0,-24.912l8.282,-0c2.468,-0 4.463,0.275 5.984,0.825c1.52,0.55 2.836,1.481 3.947,2.794c1.762,2.087 2.642,4.837 2.642,8.248c0,4.141 -1.094,7.35 -3.282,9.628c-2.188,2.278 -5.268,3.417 -9.241,3.417l-8.332,0Zm3.535,-2.642l4.528,-0c3.232,-0 5.521,-0.87 6.867,-2.61c1.448,-1.851 2.172,-4.337 2.172,-7.456c-0,-2.929 -0.713,-5.23 -2.138,-6.902c-0.864,-1.021 -1.896,-1.719 -3.097,-2.095c-1.201,-0.376 -3.008,-0.564 -5.42,-0.564l-2.912,-0l-0,19.627Z" style="fill:white;fill-rule:nonzero;"/>
    <g id="Switch">
        <circle cx="37.829" cy="135.751" r="14.173" style="fill:url(#_Radial2);stroke:rgb(161,0,255);stroke-width:1px;"/>
        <circle cx="37.829" cy="135.751" r="9.921" style="fill:rgb(191,191,191);stroke:rgb(121,121,121);stroke-width:1.5px;stroke-linecap:square;stroke-linejoin:bevel;"/>
        <path d="M37.829,135.751l0,-9.921" style="fill:none;stroke:rgb(121,121,121);stroke-width:1.5px;stroke-linecap:square;stroke-linejoin:bevel;"/>
    </g>
    <g id="Jack">
        <circle cx="133.228" cy="135.751" r="14.173" style="fill:url(#_Radial3);stroke:rgb(161,0,255);stroke-width:1px;"/>
        <circle cx="133.228" cy="135.751" r="9.921" style="fill:rgb(191,191,191);stroke:rgb(121,121,121);stroke-width:1.5px;stroke-linecap:square;stroke-linejoin:bevel;"/>
    </g>
    <g id="Jack1" serif:id="Jack">
        <circle cx="137.48" cy="274.58" r="14.173" style="fill:url(#_Radial4);stroke:rgb(161,0,255);stroke-width:1px;"/>
        <circle cx="137.48" cy="274.58" r="9.921" style="fill:rgb(191,191,191);stroke:rgb(121,121,121);stroke-width:1.5px;stroke-linecap:square;stroke-linejoin:bevel;"/>
    </g>
    <g id="Switch1" serif:id="Switch">
        <path d="M37.841,196.299c-7.823,0.006 -14.179,-6.339 -14.185,-14.162c-0.006,-7.822 6.34,-14.178 14.162,-14.184c7.823,-0.006 14.178,6.339 14.185,14.162c0.006,7.822 -6.34,14.178 -14.162,14.184Z" style="fill:url(#_Radial5);stroke:rgb(161,0,255);stroke-width:1px;"/>
        <path d="M37.837,192.047c-5.475,0.005 -9.924,-4.437 -9.929,-9.913c-0.004,-5.476 4.438,-9.925 9.914,-9.929c5.475,-0.005 9.924,4.437 9.929,9.913c0.004,5.476 -4.438,9.925 -9.914,9.929Z" style="fill:rgb(191,191,191);stroke:rgb(121,121,121);stroke-width:1.5px;stroke-linecap:square;stroke-linejoin:bevel;"/>
        <path d="M37.829,182.126l-0.007,-9.921" style="fill:none;stroke:rgb(121,121,121);stroke-width:1.5px;stroke-linecap:square;stroke-linejoin:bevel;"/>
    </g>
    <g id="Switch2" serif:id="Switch">
        <circle cx="37.829" cy="281.929" r="14.173" style="fill:url(#_Radial6);stroke:rgb(161,0,255);stroke-width:1px;"/>
        <circle cx="37.829" cy="281.929" r="9.921" style="fill:rgb(191,191,191);stroke:rgb(121,121,121);stroke-width:1.5px;stroke-linecap:square;stroke-linejoin:bevel;"/>
        <path d="M37.829,281.929l0,-9.921" style="fill:none;stroke:rgb(121,121,121);stroke-width:1.5px;stroke-linecap:square;stroke-linejoin:bevel;"/>
    </g>
    <g id="Switch3" serif:id="Switch">
        <circle cx="37.829" cy="234.817" r="14.173" style="fill:url(#_Radial7);stroke:rgb(161,0,255);stroke-width:1px;"/>
        <circle cx="37.829" cy="234.817" r="9.921" style="fill:rgb(191,191,191);stroke:rgb(121,121,121);stroke-width:1.5px;stroke-linecap:square;stroke-linejoin:bevel;"/>
        <path d="M37.829,234.817l0,-9.921" style="fill:none;stroke:rgb(121,121,121);stroke-width:1.5px;stroke-linecap:square;stroke-linejoin:bevel;"/>
    </g>
    <defs>
        <linearGradient id="_Linear1" x1="0" y1="0" x2="1" y2="0" gradientUnits="userSpaceOnUse" gradientTransform="matrix(360,0,0,364.252,0,182.126)"><stop offset="0" style="stop-color:rgb(169,0,255);stop-opacity:1"/><stop offset="1" style="stop-color:rgb(173,81,121);stop-opacity:1"/></linearGradient>
        <radialGradient id="_Radial2" cx="0" cy="0" r="1" gradientUnits="userSpaceOnUse" gradientTransform="matrix(-14.1732,1.73572e-15,-1.73572e-15,-14.1732,37.8295,135.751)"><stop offset="0" style="stop-color:white;stop-opacity:1"/><stop offset="1" style="stop-color:rgb(169,169,169);stop-opacity:1"/></radialGradient>
        <radialGradient id="_Radial3" cx="0" cy="0" r="1" gradientUnits="userSpaceOnUse" gradientTransform="matrix(-14.1732,1.73572e-15,-1.73572e-15,-14.1732,133.228,135.751)"><stop offset="0" style="stop-color:white;stop-opacity:1"/><stop offset="1" style="stop-color:rgb(169,169,169);stop-opacity:1"/></radialGradient>
        <radialGradient id="_Radial4" cx="0" cy="0" r="1" gradientUnits="userSpaceOnUse" gradientTransform="matrix(-14.1732,1.73572e-15,-1.73572e-15,-14.1732,137.48,274.58)"><stop offset="0" style="stop-color:white;stop-opacity:1"/><stop offset="1" style="stop-color:rgb(169,169,169);stop-opacity:1"/></radialGradient>
        <radialGradient id="_Radial5" cx="0" cy="0" r="1" gradientUnits="userSpaceOnUse" gradientTransform="matrix(-14.1732,0.0112865,-0.0112865,-14.1732,37.8295,182.126)"><stop offset="0" style="stop-color:white;stop-opacity:1"/><stop offset="1" style="stop-color:rgb(169,169,169);stop-opacity:1"/></radialGradient>
        <radialGradient id="_Radial6" cx="0" cy="0" r="1" gradientUnits="userSpaceOnUse" gradientTransform="matrix(-14.1732,1.73572e-15,-1.73572e-15,-14.1732,37.8295,281.929)"><stop offset="0" style="stop-color:white;stop-opacity:1"/><stop offset="1" style="stop-color:rgb(169,169,169);stop-opacity:1"/></radialGradient>
        <radialGradient id="_Radial7" cx="0" cy="0" r="1" gradientUnits="userSpaceOnUse" gradientTransform="matrix(-14.1732,1.73572e-15,-1.73572e-15,-14.1732,37.8295,234.817)"><stop offset="0" style="stop-color:white;stop-opacity:1"/><stop offset="1" style="stop-color:rgb(169,169,169);stop-opacity:1"/></radialGradient>
    </defs>
</svg>
