<?xml version="1.0" encoding="UTF-8" standalone="no"?>
<!DOCTYPE svg PUBLIC "-//W3C//DTD SVG 1.1//EN" "http://www.w3.org/Graphics/SVG/1.1/DTD/svg11.dtd">
<svg width="576px" height="365px" version="1.1" xmlns="http://www.w3.org/2000/svg" xmlns:xlink="http://www.w3.org/1999/xlink" xml:space="preserve" xmlns:serif="http://www.serif.com/" style="fill-rule:evenodd;clip-rule:evenodd;stroke-linecap:round;stroke-linejoin:round;stroke-miterlimit:1.5;">
    <rect id="BG" x="0" y="0" width="576" height="364.252" style="fill:rgb(0,10,25);"/>
    <path d="M56.279,167.568c-0.485,0 -1.105,-0.105 -1.861,-0.317l0,-1.016c0.814,0.378 1.483,0.567 2.007,0.567c0.404,-0 0.729,-0.106 0.974,-0.317c0.246,-0.212 0.369,-0.49 0.369,-0.835c0,-0.284 -0.08,-0.525 -0.242,-0.723c-0.161,-0.199 -0.458,-0.42 -0.891,-0.664l-0.498,-0.288c-0.615,-0.352 -1.049,-0.683 -1.301,-0.994c-0.252,-0.311 -0.378,-0.673 -0.378,-1.086c-0,-0.557 0.201,-1.015 0.605,-1.375c0.404,-0.36 0.918,-0.539 1.543,-0.539c0.557,-0 1.144,0.092 1.763,0.278l-0,0.937c-0.762,-0.299 -1.33,-0.449 -1.704,-0.449c-0.355,0 -0.648,0.095 -0.879,0.283c-0.231,0.189 -0.347,0.427 -0.347,0.713c-0,0.241 0.085,0.454 0.254,0.64c0.169,0.185 0.478,0.407 0.928,0.664l0.517,0.293c0.625,0.355 1.061,0.69 1.309,1.006c0.247,0.316 0.371,0.695 0.371,1.138c-0,0.628 -0.232,1.132 -0.696,1.513c-0.464,0.381 -1.078,0.571 -1.843,0.571Z" style="fill:white;fill-rule:nonzero;"/>
    <path d="M60.278,167.388l-0,-7.71l0.962,-0l-0,3.403c0.508,-0.742 1.129,-1.113 1.865,-1.113c0.459,-0 0.825,0.146 1.099,0.437c0.273,0.291 0.41,0.683 0.41,1.174l-0,3.809l-0.962,-0l-0,-3.496c-0,-0.394 -0.058,-0.675 -0.173,-0.843c-0.116,-0.167 -0.307,-0.251 -0.574,-0.251c-0.589,-0 -1.144,0.386 -1.665,1.157l-0,3.433l-0.962,-0Z" style="fill:white;fill-rule:nonzero;"/>
    <path d="M69.218,166.714c-0.576,0.531 -1.131,0.796 -1.665,0.796c-0.439,-0 -0.804,-0.138 -1.094,-0.413c-0.289,-0.275 -0.434,-0.622 -0.434,-1.042c-0,-0.58 0.243,-1.025 0.73,-1.336c0.487,-0.311 1.184,-0.466 2.092,-0.466l0.23,0l-0,-0.64c-0,-0.615 -0.316,-0.922 -0.948,-0.922c-0.507,-0 -1.056,0.156 -1.645,0.468l-0,-0.796c0.648,-0.263 1.255,-0.395 1.821,-0.395c0.593,-0 1.03,0.133 1.311,0.4c0.282,0.267 0.423,0.682 0.423,1.245l-0,2.403c-0,0.55 0.169,0.825 0.507,0.825c0.043,-0 0.105,-0.007 0.186,-0.02l0.068,0.533c-0.218,0.104 -0.459,0.156 -0.722,0.156c-0.45,-0 -0.736,-0.265 -0.86,-0.796Zm-0.141,-0.522l-0,-1.373l-0.323,-0.009c-0.527,-0 -0.953,0.1 -1.279,0.3c-0.325,0.2 -0.488,0.463 -0.488,0.789c-0,0.231 0.081,0.426 0.244,0.586c0.163,0.159 0.361,0.239 0.596,0.239c0.4,-0 0.817,-0.178 1.25,-0.532Z" style="fill:white;fill-rule:nonzero;"/>
    <path d="M72.006,169.317l0,-7.232l0.962,0l0,0.996c0.394,-0.742 0.985,-1.113 1.773,-1.113c0.638,-0 1.14,0.233 1.506,0.698c0.366,0.466 0.549,1.102 0.549,1.909c0,0.879 -0.207,1.588 -0.622,2.127c-0.415,0.539 -0.961,0.808 -1.638,0.808c-0.629,-0 -1.151,-0.241 -1.568,-0.723l0,2.53l-0.962,-0Zm0.962,-3.194c0.495,0.443 0.967,0.664 1.416,0.664c0.925,0 1.387,-0.705 1.387,-2.114c0,-1.244 -0.41,-1.865 -1.23,-1.865c-0.538,-0 -1.062,0.291 -1.573,0.874l0,2.441Z" style="fill:white;fill-rule:nonzero;"/>
    <path d="M82.187,167.217c-0.645,0.195 -1.196,0.293 -1.655,0.293c-0.781,-0 -1.419,-0.26 -1.912,-0.779c-0.493,-0.519 -0.74,-1.192 -0.74,-2.019c0,-0.804 0.218,-1.463 0.652,-1.977c0.435,-0.515 0.991,-0.772 1.668,-0.772c0.641,0 1.137,0.228 1.487,0.684c0.349,0.455 0.524,1.103 0.524,1.943l-0.004,0.298l-3.345,-0c0.14,1.26 0.757,1.889 1.85,1.889c0.401,0 0.892,-0.107 1.475,-0.322l0,0.762Zm-3.281,-3.052l2.339,0c-0,-0.986 -0.368,-1.479 -1.104,-1.479c-0.739,-0 -1.151,0.493 -1.235,1.479Z" style="fill:white;fill-rule:nonzero;"/>
    <path d="M56.279,270.998c-0.485,0 -1.105,-0.106 -1.861,-0.317l0,-1.016c0.814,0.378 1.483,0.567 2.007,0.567c0.404,-0 0.729,-0.106 0.974,-0.318c0.246,-0.211 0.369,-0.49 0.369,-0.835c0,-0.283 -0.08,-0.524 -0.242,-0.722c-0.161,-0.199 -0.458,-0.42 -0.891,-0.664l-0.498,-0.289c-0.615,-0.351 -1.049,-0.682 -1.301,-0.993c-0.252,-0.311 -0.378,-0.673 -0.378,-1.087c-0,-0.556 0.201,-1.014 0.605,-1.374c0.404,-0.36 0.918,-0.54 1.543,-0.54c0.557,0 1.144,0.093 1.763,0.279l-0,0.937c-0.762,-0.299 -1.33,-0.449 -1.704,-0.449c-0.355,-0 -0.648,0.094 -0.879,0.283c-0.231,0.189 -0.347,0.427 -0.347,0.713c-0,0.241 0.085,0.454 0.254,0.64c0.169,0.185 0.478,0.407 0.928,0.664l0.517,0.293c0.625,0.355 1.061,0.69 1.309,1.006c0.247,0.315 0.371,0.695 0.371,1.137c-0,0.629 -0.232,1.133 -0.696,1.514c-0.464,0.381 -1.078,0.571 -1.843,0.571Z" style="fill:white;fill-rule:nonzero;"/>
    <path d="M60.278,270.818l-0,-7.71l0.962,-0l-0,3.403c0.508,-0.742 1.129,-1.113 1.865,-1.113c0.459,-0 0.825,0.145 1.099,0.437c0.273,0.291 0.41,0.682 0.41,1.174l-0,3.809l-0.962,-0l-0,-3.497c-0,-0.393 -0.058,-0.674 -0.173,-0.842c-0.116,-0.167 -0.307,-0.251 -0.574,-0.251c-0.589,-0 -1.144,0.385 -1.665,1.157l-0,3.433l-0.962,-0Z" style="fill:white;fill-rule:nonzero;"/>
    <path d="M69.218,270.144c-0.576,0.53 -1.131,0.796 -1.665,0.796c-0.439,-0 -0.804,-0.138 -1.094,-0.413c-0.289,-0.275 -0.434,-0.623 -0.434,-1.042c-0,-0.58 0.243,-1.025 0.73,-1.336c0.487,-0.311 1.184,-0.466 2.092,-0.466l0.23,-0l-0,-0.64c-0,-0.615 -0.316,-0.923 -0.948,-0.923c-0.507,0 -1.056,0.157 -1.645,0.469l-0,-0.796c0.648,-0.264 1.255,-0.395 1.821,-0.395c0.593,-0 1.03,0.133 1.311,0.4c0.282,0.267 0.423,0.682 0.423,1.245l-0,2.403c-0,0.55 0.169,0.825 0.507,0.825c0.043,-0 0.105,-0.007 0.186,-0.02l0.068,0.532c-0.218,0.105 -0.459,0.157 -0.722,0.157c-0.45,-0 -0.736,-0.266 -0.86,-0.796Zm-0.141,-0.523l-0,-1.372l-0.323,-0.01c-0.527,0 -0.953,0.101 -1.279,0.301c-0.325,0.2 -0.488,0.463 -0.488,0.788c-0,0.231 0.081,0.427 0.244,0.586c0.163,0.16 0.361,0.24 0.596,0.24c0.4,-0 0.817,-0.178 1.25,-0.533Z" style="fill:white;fill-rule:nonzero;"/>
    <path d="M72.006,272.746l0,-7.231l0.962,-0l0,0.996c0.394,-0.742 0.985,-1.113 1.773,-1.113c0.638,-0 1.14,0.232 1.506,0.698c0.366,0.465 0.549,1.102 0.549,1.909c0,0.879 -0.207,1.588 -0.622,2.127c-0.415,0.538 -0.961,0.808 -1.638,0.808c-0.629,-0 -1.151,-0.241 -1.568,-0.723l0,2.529l-0.962,0Zm0.962,-3.193c0.495,0.443 0.967,0.664 1.416,0.664c0.925,-0 1.387,-0.705 1.387,-2.114c0,-1.244 -0.41,-1.866 -1.23,-1.866c-0.538,0 -1.062,0.292 -1.573,0.875l0,2.441Z" style="fill:white;fill-rule:nonzero;"/>
    <path d="M82.187,270.647c-0.645,0.195 -1.196,0.293 -1.655,0.293c-0.781,-0 -1.419,-0.26 -1.912,-0.779c-0.493,-0.519 -0.74,-1.192 -0.74,-2.019c0,-0.804 0.218,-1.463 0.652,-1.978c0.435,-0.514 0.991,-0.771 1.668,-0.771c0.641,-0 1.137,0.228 1.487,0.683c0.349,0.456 0.524,1.104 0.524,1.944l-0.004,0.298l-3.345,-0c0.14,1.259 0.757,1.889 1.85,1.889c0.401,0 0.892,-0.107 1.475,-0.322l0,0.762Zm-3.281,-3.052l2.339,-0c-0,-0.986 -0.368,-1.48 -1.104,-1.48c-0.739,0 -1.151,0.494 -1.235,1.48Z" style="fill:white;fill-rule:nonzero;"/>
    <path d="M53.798,119.554l-1.23,-3.115l-1.235,3.115l2.465,-0Zm1.084,2.763l-0.786,-2.001l-3.061,-0l-0.796,2.001l-0.952,0l2.866,-7.226l1.015,-0l2.823,7.226l-1.109,0Z" style="fill:white;fill-rule:nonzero;"/>
    <path d="M57.065,122.317l-0,-5.302l0.962,-0l-0,0.996c0.469,-0.742 1.071,-1.113 1.807,-1.113c0.709,-0 1.193,0.371 1.45,1.113c0.455,-0.746 1.048,-1.118 1.777,-1.118c0.469,-0 0.832,0.137 1.089,0.412c0.257,0.275 0.386,0.66 0.386,1.155l-0,3.857l-0.967,0l-0,-3.706c-0,-0.605 -0.239,-0.908 -0.718,-0.908c-0.498,0 -1.02,0.353 -1.567,1.06l-0,3.554l-0.967,0l-0,-3.706c-0,-0.608 -0.244,-0.913 -0.733,-0.913c-0.485,0 -1.004,0.355 -1.557,1.065l-0,3.554l-0.962,0Z" style="fill:white;fill-rule:nonzero;"/>
    <path d="M68.476,122.44c-0.758,-0 -1.364,-0.252 -1.816,-0.755c-0.453,-0.503 -0.679,-1.176 -0.679,-2.019c-0,-0.853 0.227,-1.527 0.681,-2.024c0.454,-0.496 1.07,-0.744 1.848,-0.744c0.778,-0 1.394,0.248 1.848,0.744c0.455,0.497 0.682,1.168 0.682,2.014c-0,0.866 -0.228,1.547 -0.684,2.041c-0.456,0.495 -1.082,0.743 -1.88,0.743Zm0.015,-0.723c1.019,-0 1.528,-0.687 1.528,-2.061c0,-1.357 -0.503,-2.036 -1.509,-2.036c-1.002,0 -1.504,0.682 -1.504,2.046c0,1.367 0.495,2.051 1.485,2.051Z" style="fill:white;fill-rule:nonzero;"/>
    <path d="M75.859,122.317l-0,-0.996c-0.511,0.746 -1.131,1.119 -1.86,1.119c-0.463,-0 -0.831,-0.146 -1.104,-0.437c-0.273,-0.292 -0.41,-0.685 -0.41,-1.18l-0,-3.808l0.962,-0l-0,3.496c-0,0.397 0.058,0.679 0.173,0.847c0.116,0.168 0.309,0.251 0.579,0.251c0.586,0 1.139,-0.385 1.66,-1.157l-0,-3.437l0.962,-0l-0,5.302l-0.962,0Z" style="fill:white;fill-rule:nonzero;"/>
    <path d="M78.75,122.317l-0,-5.302l0.961,-0l0,0.996c0.508,-0.742 1.13,-1.113 1.866,-1.113c0.459,-0 0.825,0.145 1.098,0.437c0.274,0.291 0.41,0.682 0.41,1.174l0,3.808l-0.961,0l-0,-3.496c-0,-0.394 -0.058,-0.674 -0.174,-0.842c-0.115,-0.168 -0.307,-0.251 -0.574,-0.251c-0.589,-0 -1.144,0.385 -1.665,1.157l0,3.432l-0.961,0Z" style="fill:white;fill-rule:nonzero;"/>
    <path d="M86.547,122.44c-0.488,-0 -0.869,-0.14 -1.142,-0.42c-0.274,-0.28 -0.41,-0.669 -0.41,-1.167l-0,-3.116l-0.664,0l-0,-0.722l0.664,-0l-0,-0.962l0.962,-0.093l-0,1.055l1.386,-0l0,0.722l-1.386,0l-0,2.94c-0,0.693 0.299,1.04 0.898,1.04c0.127,-0 0.282,-0.021 0.464,-0.064l-0,0.664c-0.296,0.082 -0.554,0.123 -0.772,0.123Z" style="fill:white;fill-rule:nonzero;"/>
    <path d="M508.647,119.549l-2.729,-7.226l1.025,-0l2.237,5.918l2.158,-5.918l0.898,-0l-2.622,7.226l-0.967,0Z" style="fill:white;fill-rule:nonzero;"/>
    <path d="M513.223,120.994l2.602,-8.671l0.757,-0l-2.603,8.671l-0.756,0Z" style="fill:white;fill-rule:nonzero;"/>
    <path d="M521.367,119.73c-1.003,-0 -1.809,-0.348 -2.419,-1.043c-0.611,-0.695 -0.916,-1.613 -0.916,-2.756c0,-1.149 0.307,-2.068 0.921,-2.756c0.613,-0.689 1.433,-1.033 2.458,-1.033c1.022,-0 1.841,0.343 2.456,1.03c0.615,0.687 0.923,1.603 0.923,2.749c-0,1.169 -0.308,2.096 -0.923,2.781c-0.615,0.685 -1.448,1.028 -2.5,1.028Zm0.015,-0.767c0.739,0 1.31,-0.266 1.714,-0.798c0.403,-0.532 0.605,-1.284 0.605,-2.254c0,-0.94 -0.203,-1.676 -0.608,-2.207c-0.405,-0.53 -0.966,-0.795 -1.682,-0.795c-0.719,-0 -1.281,0.266 -1.685,0.798c-0.403,0.532 -0.605,1.272 -0.605,2.219c-0,0.944 0.2,1.686 0.601,2.227c0.4,0.54 0.953,0.81 1.66,0.81Z" style="fill:white;fill-rule:nonzero;"/>
    <path d="M529.321,119.73c-1.123,-0 -1.99,-0.33 -2.602,-0.989c-0.612,-0.659 -0.918,-1.593 -0.918,-2.8c-0,-1.205 0.311,-2.139 0.935,-2.803c0.623,-0.664 1.501,-0.996 2.634,-0.996c0.648,-0 1.406,0.106 2.275,0.317l0,0.962c-0.989,-0.342 -1.753,-0.512 -2.29,-0.512c-0.784,-0 -1.391,0.265 -1.821,0.795c-0.43,0.531 -0.644,1.28 -0.644,2.247c-0,0.921 0.229,1.647 0.688,2.18c0.459,0.532 1.086,0.798 1.88,0.798c0.683,0 1.416,-0.21 2.197,-0.63l0,0.879c-0.713,0.368 -1.491,0.552 -2.334,0.552Z" style="fill:white;fill-rule:nonzero;"/>
    <path d="M534.863,119.549l0,-6.46l-2.563,0l-0,-0.766l6.152,-0l0,0.766l-2.563,0l-0,6.46l-1.026,0Z" style="fill:white;fill-rule:nonzero;"/>
    <path d="M516.426,165.98c-1.003,0 -1.809,-0.347 -2.419,-1.042c-0.611,-0.695 -0.916,-1.614 -0.916,-2.756c0,-1.149 0.307,-2.068 0.921,-2.757c0.613,-0.688 1.433,-1.032 2.458,-1.032c1.022,-0 1.841,0.343 2.456,1.03c0.615,0.687 0.923,1.603 0.923,2.749c-0,1.169 -0.308,2.095 -0.923,2.781c-0.615,0.685 -1.448,1.027 -2.5,1.027Zm0.015,-0.766c0.739,-0 1.31,-0.266 1.714,-0.798c0.403,-0.533 0.605,-1.284 0.605,-2.254c0,-0.941 -0.203,-1.676 -0.608,-2.207c-0.405,-0.53 -0.966,-0.796 -1.682,-0.796c-0.719,0 -1.281,0.266 -1.685,0.799c-0.403,0.532 -0.605,1.272 -0.605,2.219c0,0.944 0.2,1.686 0.601,2.226c0.4,0.541 0.953,0.811 1.66,0.811Z" style="fill:white;fill-rule:nonzero;"/>
    <path d="M521.226,158.573l1.025,0l0,4.561c0,0.726 0.135,1.254 0.403,1.584c0.269,0.331 0.696,0.496 1.282,0.496c0.573,-0 0.979,-0.156 1.218,-0.466c0.239,-0.311 0.359,-0.838 0.359,-1.58l0,-4.595l0.898,0l0,4.58c0,0.987 -0.202,1.704 -0.607,2.154c-0.406,0.449 -1.051,0.673 -1.936,0.673c-0.902,0 -1.568,-0.232 -1.998,-0.698c-0.429,-0.465 -0.644,-1.185 -0.644,-2.158l-0,-4.551Z" style="fill:white;fill-rule:nonzero;"/>
    <path d="M529.932,165.8l-0,-6.46l-2.564,-0l0,-0.767l6.153,0l-0,0.767l-2.564,-0l0,6.46l-1.025,-0Z" style="fill:white;fill-rule:nonzero;"/>
    <path d="M53.798,314.182l-1.23,-3.115l-1.235,3.115l2.465,0Zm1.084,2.764l-0.786,-2.002l-3.061,0l-0.796,2.002l-0.952,0l2.866,-7.226l1.015,-0l2.823,7.226l-1.109,0Z" style="fill:white;fill-rule:nonzero;"/>
    <path d="M57.065,316.946l-0,-5.303l0.962,0l-0,0.997c0.469,-0.743 1.071,-1.114 1.807,-1.114c0.709,0 1.193,0.371 1.45,1.114c0.455,-0.746 1.048,-1.119 1.777,-1.119c0.469,0 0.832,0.138 1.089,0.413c0.257,0.275 0.386,0.66 0.386,1.155l-0,3.857l-0.967,0l-0,-3.706c-0,-0.605 -0.239,-0.908 -0.718,-0.908c-0.498,-0 -1.02,0.353 -1.567,1.059l-0,3.555l-0.967,0l-0,-3.706c-0,-0.609 -0.244,-0.913 -0.733,-0.913c-0.485,0 -1.004,0.355 -1.557,1.064l-0,3.555l-0.962,0Z" style="fill:white;fill-rule:nonzero;"/>
    <path d="M68.476,317.068c-0.758,0 -1.364,-0.251 -1.816,-0.754c-0.453,-0.503 -0.679,-1.176 -0.679,-2.019c-0,-0.853 0.227,-1.528 0.681,-2.024c0.454,-0.497 1.07,-0.745 1.848,-0.745c0.778,0 1.394,0.248 1.848,0.745c0.455,0.496 0.682,1.168 0.682,2.014c-0,0.866 -0.228,1.546 -0.684,2.041c-0.456,0.495 -1.082,0.742 -1.88,0.742Zm0.015,-0.722c1.019,-0 1.528,-0.687 1.528,-2.061c0,-1.357 -0.503,-2.036 -1.509,-2.036c-1.002,-0 -1.504,0.682 -1.504,2.046c0,1.367 0.495,2.051 1.485,2.051Z" style="fill:white;fill-rule:nonzero;"/>
    <path d="M75.859,316.946l-0,-0.996c-0.511,0.746 -1.131,1.118 -1.86,1.118c-0.463,0 -0.831,-0.145 -1.104,-0.437c-0.273,-0.291 -0.41,-0.684 -0.41,-1.179l-0,-3.809l0.962,0l-0,3.497c-0,0.397 0.058,0.679 0.173,0.847c0.116,0.167 0.309,0.251 0.579,0.251c0.586,0 1.139,-0.386 1.66,-1.157l-0,-3.438l0.962,0l-0,5.303l-0.962,0Z" style="fill:white;fill-rule:nonzero;"/>
    <path d="M78.75,316.946l-0,-5.303l0.961,0l0,0.997c0.508,-0.743 1.13,-1.114 1.866,-1.114c0.459,0 0.825,0.146 1.098,0.437c0.274,0.292 0.41,0.683 0.41,1.175l0,3.808l-0.961,0l-0,-3.496c-0,-0.394 -0.058,-0.675 -0.174,-0.842c-0.115,-0.168 -0.307,-0.252 -0.574,-0.252c-0.589,0 -1.144,0.386 -1.665,1.158l0,3.432l-0.961,0Z" style="fill:white;fill-rule:nonzero;"/>
    <path d="M86.547,317.068c-0.488,0 -0.869,-0.14 -1.142,-0.42c-0.274,-0.28 -0.41,-0.669 -0.41,-1.167l-0,-3.115l-0.664,0l-0,-0.723l0.664,0l-0,-0.961l0.962,-0.093l-0,1.054l1.386,0l0,0.723l-1.386,0l-0,2.94c-0,0.693 0.299,1.04 0.898,1.04c0.127,-0 0.282,-0.022 0.464,-0.064l-0,0.664c-0.296,0.082 -0.554,0.122 -0.772,0.122Z" style="fill:white;fill-rule:nonzero;"/>
    <path id="Title" d="M12.189,44.589l-0,-24.739l6.736,0c2.987,0 5.132,0.504 6.436,1.513c1.303,1.008 1.955,2.666 1.955,4.973c0,2.629 -0.891,4.691 -2.674,6.184c-1.783,1.493 -4.257,2.24 -7.422,2.24l-1.554,0l-0,9.829l-3.477,-0Zm3.477,-12.487l1.421,0c2.083,0 3.694,-0.479 4.83,-1.437c1.137,-0.959 1.705,-2.312 1.705,-4.062c0,-1.482 -0.446,-2.541 -1.337,-3.176c-0.892,-0.635 -2.379,-0.953 -4.463,-0.953l-2.156,0l-0,9.628Z" style="fill:white;fill-rule:nonzero;"/>
    <path d="M31.111,44.589l-0,-24.739l7.488,0c2.374,0 4.193,0.524 5.457,1.571c1.265,1.048 1.898,2.569 1.898,4.564c-0,3.298 -1.666,5.638 -4.998,7.02l8.257,11.584l-4.312,-0l-7.037,-10.464l-3.277,-0l0,10.464l-3.476,-0Zm3.476,-13.088l1.137,-0c4.413,-0 6.619,-1.733 6.619,-5.199c0,-2.552 -1.85,-3.828 -5.549,-3.828l-2.207,0l0,9.027Z" style="fill:white;fill-rule:nonzero;"/>
    <rect x="52.74" y="19.85" width="3.51" height="24.738" style="fill:white;fill-rule:nonzero;"/>
    <path d="M61.014,44.589l0,-2.809l13.289,-19.306l-12.47,0l0,-2.624l16.682,0l-0,2.624l-13.289,19.306l13.289,0l-0,2.809l-17.501,-0Z" style="fill:white;fill-rule:nonzero;"/>
    <path d="M83.312,44.589l0,-24.739l4.864,0l6.853,19.139l7.054,-19.139l4.346,0l0,24.739l-3.276,-0l0,-20.126l-6.82,18.471l-3.393,-0l-6.619,-18.521l-0,20.176l-3.009,-0Z" style="fill:white;fill-rule:nonzero;"/>
    <g id="Cube">
        <rect id="Cube-Front" serif:id="Cube Front" x="144.991" y="167.953" width="56.693" height="56.693" style="fill:none;stroke:rgb(41,0,255);stroke-width:1px;"/>
        <rect id="Cube-Back" serif:id="Cube Back" x="173.338" y="139.606" width="56.693" height="56.693" style="fill:none;stroke:rgb(41,0,255);stroke-width:1px;"/>
        <path id="Cube1" serif:id="Cube" d="M201.684,224.646l28.347,-28.347l-56.693,0l-28.347,28.347l0,-56.693l28.347,-28.347l56.693,0l-28.347,28.347" style="fill:none;stroke:rgb(41,0,255);stroke-width:1px;"/>
    </g>
    <path d="M27.809,79.785l-4.242,-10.739l-4.259,10.739l8.501,0Zm3.737,9.527l-2.71,-6.901l-10.554,0l-2.744,6.901l-3.283,0l9.881,-24.912l3.501,0l9.73,24.912l-3.821,0Z" style="fill:white;fill-rule:nonzero;"/>
    <path d="M16.22,234.093l-0,-24.912l6.463,-0c2.491,-0 4.402,0.471 5.732,1.414c1.33,0.942 1.994,2.3 1.994,4.073c0,3.019 -1.705,5.168 -5.117,6.447c4.074,1.246 6.111,3.496 6.111,6.75c-0,2.02 -0.674,3.563 -2.02,4.629c-1.347,1.066 -3.288,1.599 -5.824,1.599l-7.339,0Zm3.501,-2.643l0.723,0c2.593,0 4.27,-0.162 5.033,-0.488c1.459,-0.617 2.189,-1.762 2.189,-3.434c-0,-1.481 -0.662,-2.712 -1.987,-3.694c-1.324,-0.982 -2.979,-1.473 -4.965,-1.473l-0.993,-0l-0,9.089Zm-0,-11.328l1.127,0c1.886,0 3.347,-0.404 4.385,-1.212c1.038,-0.808 1.557,-1.947 1.557,-3.417c0,-2.446 -1.896,-3.669 -5.689,-3.669l-1.38,-0l-0,8.298Z" style="fill:white;fill-rule:nonzero;"/>
    <g id="Switch">
        <circle cx="24.396" cy="118.138" r="14.173" style="fill:url(#_Radial1);stroke:rgb(161,0,255);stroke-width:2px;"/>
        <circle cx="24.396" cy="118.138" r="9.921" style="fill:rgb(191,191,191);stroke:rgb(121,121,121);stroke-width:1.5px;stroke-linecap:square;stroke-linejoin:bevel;"/>
        <path d="M24.396,118.138l-0,-9.922" style="fill:none;stroke:rgb(121,121,121);stroke-width:1.5px;stroke-linecap:square;stroke-linejoin:bevel;"/>
    </g>
    <g id="Switch1" serif:id="Switch">
        <circle cx="269.291" cy="118.138" r="14.173" style="fill:url(#_Radial2);stroke:rgb(161,0,255);stroke-width:2px;"/>
        <circle cx="269.291" cy="118.138" r="9.921" style="fill:rgb(191,191,191);stroke:rgb(121,121,121);stroke-width:1.5px;stroke-linecap:square;stroke-linejoin:bevel;"/>
        <path d="M269.291,118.138l0,-9.922" style="fill:none;stroke:rgb(121,121,121);stroke-width:1.5px;stroke-linecap:square;stroke-linejoin:bevel;"/>
    </g>
    <g id="Jack">
        <circle cx="112.471" cy="118.205" r="14.173" style="fill:url(#_Radial3);stroke:rgb(161,0,255);stroke-width:2px;"/>
        <circle cx="112.471" cy="118.205" r="9.921" style="fill:rgb(191,191,191);stroke:rgb(121,121,121);stroke-width:1.5px;stroke-linecap:square;stroke-linejoin:bevel;"/>
    </g>
    <g id="Jack1" serif:id="Jack">
        <circle cx="474.26" cy="118.138" r="14.173" style="fill:url(#_Radial4);stroke:rgb(161,0,255);stroke-width:2px;"/>
        <circle cx="474.26" cy="118.138" r="9.921" style="fill:rgb(191,191,191);stroke:rgb(121,121,121);stroke-width:1.5px;stroke-linecap:square;stroke-linejoin:bevel;"/>
    </g>
    <g id="Jack2" serif:id="Jack">
        <circle cx="474.26" cy="162.187" r="14.173" style="fill:url(#_Radial5);stroke:rgb(161,0,255);stroke-width:2px;"/>
        <circle cx="474.26" cy="162.187" r="9.921" style="fill:rgb(191,191,191);stroke:rgb(121,121,121);stroke-width:1.5px;stroke-linecap:square;stroke-linejoin:bevel;"/>
    </g>
    <g id="Jack3" serif:id="Jack">
        <circle cx="112.471" cy="164.497" r="14.173" style="fill:url(#_Radial6);stroke:rgb(161,0,255);stroke-width:2px;"/>
        <circle cx="112.471" cy="164.497" r="9.921" style="fill:rgb(191,191,191);stroke:rgb(121,121,121);stroke-width:1.5px;stroke-linecap:square;stroke-linejoin:bevel;"/>
    </g>
    <g id="Jack4" serif:id="Jack">
        <circle cx="112.471" cy="267.115" r="14.173" style="fill:url(#_Radial7);stroke:rgb(161,0,255);stroke-width:2px;"/>
        <circle cx="112.471" cy="267.115" r="9.921" style="fill:rgb(191,191,191);stroke:rgb(121,121,121);stroke-width:1.5px;stroke-linecap:square;stroke-linejoin:bevel;"/>
    </g>
    <path d="M304.63,167.568c-0.485,0 -1.105,-0.105 -1.86,-0.317l-0,-1.016c0.813,0.378 1.482,0.567 2.006,0.567c0.404,-0 0.729,-0.106 0.975,-0.317c0.245,-0.212 0.368,-0.49 0.368,-0.835c0,-0.284 -0.08,-0.525 -0.241,-0.723c-0.162,-0.199 -0.459,-0.42 -0.892,-0.664l-0.498,-0.288c-0.615,-0.352 -1.049,-0.683 -1.301,-0.994c-0.252,-0.311 -0.378,-0.673 -0.378,-1.086c-0,-0.557 0.202,-1.015 0.605,-1.375c0.404,-0.36 0.918,-0.539 1.543,-0.539c0.557,-0 1.144,0.092 1.763,0.278l-0,0.937c-0.762,-0.299 -1.33,-0.449 -1.704,-0.449c-0.355,0 -0.648,0.095 -0.879,0.283c-0.231,0.189 -0.347,0.427 -0.347,0.713c0,0.241 0.085,0.454 0.254,0.64c0.169,0.185 0.479,0.407 0.928,0.664l0.517,0.293c0.625,0.355 1.062,0.69 1.309,1.006c0.247,0.316 0.371,0.695 0.371,1.138c0,0.628 -0.232,1.132 -0.696,1.513c-0.464,0.381 -1.078,0.571 -1.843,0.571Z" style="fill:white;fill-rule:nonzero;"/>
    <path d="M308.629,167.388l0,-7.71l0.962,-0l-0,3.403c0.508,-0.742 1.129,-1.113 1.865,-1.113c0.459,-0 0.825,0.146 1.099,0.437c0.273,0.291 0.41,0.683 0.41,1.174l-0,3.809l-0.962,-0l0,-3.496c0,-0.394 -0.058,-0.675 -0.173,-0.843c-0.116,-0.167 -0.307,-0.251 -0.574,-0.251c-0.589,-0 -1.144,0.386 -1.665,1.157l-0,3.433l-0.962,-0Z" style="fill:white;fill-rule:nonzero;"/>
    <path d="M317.569,166.714c-0.576,0.531 -1.131,0.796 -1.665,0.796c-0.439,-0 -0.804,-0.138 -1.093,-0.413c-0.29,-0.275 -0.435,-0.622 -0.435,-1.042c0,-0.58 0.243,-1.025 0.73,-1.336c0.487,-0.311 1.184,-0.466 2.092,-0.466l0.23,0l-0,-0.64c-0,-0.615 -0.316,-0.922 -0.947,-0.922c-0.508,-0 -1.057,0.156 -1.646,0.468l0,-0.796c0.648,-0.263 1.255,-0.395 1.821,-0.395c0.593,-0 1.03,0.133 1.311,0.4c0.282,0.267 0.423,0.682 0.423,1.245l-0,2.403c-0,0.55 0.169,0.825 0.508,0.825c0.042,-0 0.104,-0.007 0.185,-0.02l0.068,0.533c-0.218,0.104 -0.459,0.156 -0.722,0.156c-0.449,-0 -0.736,-0.265 -0.86,-0.796Zm-0.141,-0.522l-0,-1.373l-0.322,-0.009c-0.528,-0 -0.954,0.1 -1.28,0.3c-0.325,0.2 -0.488,0.463 -0.488,0.789c-0,0.231 0.081,0.426 0.244,0.586c0.163,0.159 0.361,0.239 0.596,0.239c0.4,-0 0.817,-0.178 1.25,-0.532Z" style="fill:white;fill-rule:nonzero;"/>
    <path d="M320.358,169.317l-0,-7.232l0.961,0l0,0.996c0.394,-0.742 0.985,-1.113 1.773,-1.113c0.638,-0 1.14,0.233 1.506,0.698c0.366,0.466 0.55,1.102 0.55,1.909c-0,0.879 -0.208,1.588 -0.623,2.127c-0.415,0.539 -0.961,0.808 -1.638,0.808c-0.628,-0 -1.151,-0.241 -1.568,-0.723l0,2.53l-0.961,-0Zm0.961,-3.194c0.495,0.443 0.967,0.664 1.416,0.664c0.925,0 1.387,-0.705 1.387,-2.114c0,-1.244 -0.41,-1.865 -1.23,-1.865c-0.537,-0 -1.061,0.291 -1.573,0.874l0,2.441Z" style="fill:white;fill-rule:nonzero;"/>
    <path d="M330.538,167.217c-0.644,0.195 -1.196,0.293 -1.655,0.293c-0.781,-0 -1.419,-0.26 -1.912,-0.779c-0.493,-0.519 -0.739,-1.192 -0.739,-2.019c-0,-0.804 0.217,-1.463 0.651,-1.977c0.435,-0.515 0.991,-0.772 1.668,-0.772c0.641,0 1.137,0.228 1.487,0.684c0.35,0.455 0.525,1.103 0.525,1.943l-0.005,0.298l-3.345,-0c0.14,1.26 0.757,1.889 1.851,1.889c0.4,0 0.892,-0.107 1.474,-0.322l0,0.762Zm-3.281,-3.052l2.339,0c-0,-0.986 -0.368,-1.479 -1.104,-1.479c-0.739,-0 -1.15,0.493 -1.235,1.479Z" style="fill:white;fill-rule:nonzero;"/>
    <path d="M304.63,270.998c-0.485,0 -1.105,-0.106 -1.86,-0.317l-0,-1.016c0.813,0.378 1.482,0.567 2.006,0.567c0.404,-0 0.729,-0.106 0.975,-0.318c0.245,-0.211 0.368,-0.49 0.368,-0.835c0,-0.283 -0.08,-0.524 -0.241,-0.722c-0.162,-0.199 -0.459,-0.42 -0.892,-0.664l-0.498,-0.289c-0.615,-0.351 -1.049,-0.682 -1.301,-0.993c-0.252,-0.311 -0.378,-0.673 -0.378,-1.087c-0,-0.556 0.202,-1.014 0.605,-1.374c0.404,-0.36 0.918,-0.54 1.543,-0.54c0.557,0 1.144,0.093 1.763,0.279l-0,0.937c-0.762,-0.299 -1.33,-0.449 -1.704,-0.449c-0.355,-0 -0.648,0.094 -0.879,0.283c-0.231,0.189 -0.347,0.427 -0.347,0.713c0,0.241 0.085,0.454 0.254,0.64c0.169,0.185 0.479,0.407 0.928,0.664l0.517,0.293c0.625,0.355 1.062,0.69 1.309,1.006c0.247,0.315 0.371,0.695 0.371,1.137c0,0.629 -0.232,1.133 -0.696,1.514c-0.464,0.381 -1.078,0.571 -1.843,0.571Z" style="fill:white;fill-rule:nonzero;"/>
    <path d="M308.629,270.818l0,-7.71l0.962,-0l-0,3.403c0.508,-0.742 1.129,-1.113 1.865,-1.113c0.459,-0 0.825,0.145 1.099,0.437c0.273,0.291 0.41,0.682 0.41,1.174l-0,3.809l-0.962,-0l0,-3.497c0,-0.393 -0.058,-0.674 -0.173,-0.842c-0.116,-0.167 -0.307,-0.251 -0.574,-0.251c-0.589,-0 -1.144,0.385 -1.665,1.157l-0,3.433l-0.962,-0Z" style="fill:white;fill-rule:nonzero;"/>
    <path d="M317.569,270.144c-0.576,0.53 -1.131,0.796 -1.665,0.796c-0.439,-0 -0.804,-0.138 -1.093,-0.413c-0.29,-0.275 -0.435,-0.623 -0.435,-1.042c0,-0.58 0.243,-1.025 0.73,-1.336c0.487,-0.311 1.184,-0.466 2.092,-0.466l0.23,-0l-0,-0.64c-0,-0.615 -0.316,-0.923 -0.947,-0.923c-0.508,0 -1.057,0.157 -1.646,0.469l0,-0.796c0.648,-0.264 1.255,-0.395 1.821,-0.395c0.593,-0 1.03,0.133 1.311,0.4c0.282,0.267 0.423,0.682 0.423,1.245l-0,2.403c-0,0.55 0.169,0.825 0.508,0.825c0.042,-0 0.104,-0.007 0.185,-0.02l0.068,0.532c-0.218,0.105 -0.459,0.157 -0.722,0.157c-0.449,-0 -0.736,-0.266 -0.86,-0.796Zm-0.141,-0.523l-0,-1.372l-0.322,-0.01c-0.528,0 -0.954,0.101 -1.28,0.301c-0.325,0.2 -0.488,0.463 -0.488,0.788c-0,0.231 0.081,0.427 0.244,0.586c0.163,0.16 0.361,0.24 0.596,0.24c0.4,-0 0.817,-0.178 1.25,-0.533Z" style="fill:white;fill-rule:nonzero;"/>
    <path d="M320.358,272.746l-0,-7.231l0.961,-0l0,0.996c0.394,-0.742 0.985,-1.113 1.773,-1.113c0.638,-0 1.14,0.232 1.506,0.698c0.366,0.465 0.55,1.102 0.55,1.909c-0,0.879 -0.208,1.588 -0.623,2.127c-0.415,0.538 -0.961,0.808 -1.638,0.808c-0.628,-0 -1.151,-0.241 -1.568,-0.723l0,2.529l-0.961,0Zm0.961,-3.193c0.495,0.443 0.967,0.664 1.416,0.664c0.925,-0 1.387,-0.705 1.387,-2.114c0,-1.244 -0.41,-1.866 -1.23,-1.866c-0.537,0 -1.061,0.292 -1.573,0.875l0,2.441Z" style="fill:white;fill-rule:nonzero;"/>
    <path d="M330.538,270.647c-0.644,0.195 -1.196,0.293 -1.655,0.293c-0.781,-0 -1.419,-0.26 -1.912,-0.779c-0.493,-0.519 -0.739,-1.192 -0.739,-2.019c-0,-0.804 0.217,-1.463 0.651,-1.978c0.435,-0.514 0.991,-0.771 1.668,-0.771c0.641,-0 1.137,0.228 1.487,0.683c0.35,0.456 0.525,1.104 0.525,1.944l-0.005,0.298l-3.345,-0c0.14,1.259 0.757,1.889 1.851,1.889c0.4,0 0.892,-0.107 1.474,-0.322l0,0.762Zm-3.281,-3.052l2.339,-0c-0,-0.986 -0.368,-1.48 -1.104,-1.48c-0.739,0 -1.15,0.494 -1.235,1.48Z" style="fill:white;fill-rule:nonzero;"/>
    <path d="M302.15,119.554l-1.231,-3.115l-1.235,3.115l2.466,-0Zm1.083,2.763l-0.786,-2.001l-3.061,-0l-0.796,2.001l-0.952,0l2.866,-7.226l1.016,-0l2.822,7.226l-1.109,0Z" style="fill:white;fill-rule:nonzero;"/>
    <path d="M305.416,122.317l0,-5.302l0.962,-0l0,0.996c0.469,-0.742 1.071,-1.113 1.807,-1.113c0.709,-0 1.193,0.371 1.45,1.113c0.456,-0.746 1.048,-1.118 1.777,-1.118c0.469,-0 0.832,0.137 1.089,0.412c0.257,0.275 0.386,0.66 0.386,1.155l-0,3.857l-0.967,0l0,-3.706c0,-0.605 -0.239,-0.908 -0.718,-0.908c-0.498,0 -1.02,0.353 -1.567,1.06l-0,3.554l-0.967,0l0,-3.706c0,-0.608 -0.244,-0.913 -0.732,-0.913c-0.485,0 -1.005,0.355 -1.558,1.065l0,3.554l-0.962,0Z" style="fill:white;fill-rule:nonzero;"/>
    <path d="M316.827,122.44c-0.758,-0 -1.364,-0.252 -1.816,-0.755c-0.453,-0.503 -0.679,-1.176 -0.679,-2.019c0,-0.853 0.227,-1.527 0.681,-2.024c0.454,-0.496 1.07,-0.744 1.848,-0.744c0.778,-0 1.394,0.248 1.849,0.744c0.454,0.497 0.681,1.168 0.681,2.014c-0,0.866 -0.228,1.547 -0.684,2.041c-0.456,0.495 -1.082,0.743 -1.88,0.743Zm0.015,-0.723c1.019,-0 1.528,-0.687 1.528,-2.061c0,-1.357 -0.503,-2.036 -1.509,-2.036c-1.002,0 -1.503,0.682 -1.503,2.046c-0,1.367 0.494,2.051 1.484,2.051Z" style="fill:white;fill-rule:nonzero;"/>
    <path d="M324.21,122.317l0,-0.996c-0.511,0.746 -1.131,1.119 -1.86,1.119c-0.463,-0 -0.83,-0.146 -1.104,-0.437c-0.273,-0.292 -0.41,-0.685 -0.41,-1.18l0,-3.808l0.962,-0l-0,3.496c-0,0.397 0.058,0.679 0.173,0.847c0.116,0.168 0.309,0.251 0.579,0.251c0.586,0 1.139,-0.385 1.66,-1.157l0,-3.437l0.962,-0l-0,5.302l-0.962,0Z" style="fill:white;fill-rule:nonzero;"/>
    <path d="M327.101,122.317l-0,-5.302l0.962,-0l-0,0.996c0.507,-0.742 1.129,-1.113 1.865,-1.113c0.459,-0 0.825,0.145 1.098,0.437c0.274,0.291 0.411,0.682 0.411,1.174l-0,3.808l-0.962,0l-0,-3.496c-0,-0.394 -0.058,-0.674 -0.174,-0.842c-0.115,-0.168 -0.306,-0.251 -0.573,-0.251c-0.59,-0 -1.145,0.385 -1.665,1.157l-0,3.432l-0.962,0Z" style="fill:white;fill-rule:nonzero;"/>
    <path d="M334.899,122.44c-0.489,-0 -0.87,-0.14 -1.143,-0.42c-0.273,-0.28 -0.41,-0.669 -0.41,-1.167l-0,-3.116l-0.664,0l-0,-0.722l0.664,-0l-0,-0.962l0.962,-0.093l-0,1.055l1.386,-0l0,0.722l-1.386,0l-0,2.94c-0,0.693 0.299,1.04 0.898,1.04c0.127,-0 0.282,-0.021 0.464,-0.064l0,0.664c-0.296,0.082 -0.553,0.123 -0.771,0.123Z" style="fill:white;fill-rule:nonzero;"/>
    <path d="M302.15,314.182l-1.231,-3.115l-1.235,3.115l2.466,0Zm1.083,2.764l-0.786,-2.002l-3.061,0l-0.796,2.002l-0.952,0l2.866,-7.226l1.016,-0l2.822,7.226l-1.109,0Z" style="fill:white;fill-rule:nonzero;"/>
    <path d="M305.416,316.946l0,-5.303l0.962,0l0,0.997c0.469,-0.743 1.071,-1.114 1.807,-1.114c0.709,0 1.193,0.371 1.45,1.114c0.456,-0.746 1.048,-1.119 1.777,-1.119c0.469,0 0.832,0.138 1.089,0.413c0.257,0.275 0.386,0.66 0.386,1.155l-0,3.857l-0.967,0l0,-3.706c0,-0.605 -0.239,-0.908 -0.718,-0.908c-0.498,-0 -1.02,0.353 -1.567,1.059l-0,3.555l-0.967,0l0,-3.706c0,-0.609 -0.244,-0.913 -0.732,-0.913c-0.485,0 -1.005,0.355 -1.558,1.064l0,3.555l-0.962,0Z" style="fill:white;fill-rule:nonzero;"/>
    <path d="M316.827,317.068c-0.758,0 -1.364,-0.251 -1.816,-0.754c-0.453,-0.503 -0.679,-1.176 -0.679,-2.019c0,-0.853 0.227,-1.528 0.681,-2.024c0.454,-0.497 1.07,-0.745 1.848,-0.745c0.778,0 1.394,0.248 1.849,0.745c0.454,0.496 0.681,1.168 0.681,2.014c-0,0.866 -0.228,1.546 -0.684,2.041c-0.456,0.495 -1.082,0.742 -1.88,0.742Zm0.015,-0.722c1.019,-0 1.528,-0.687 1.528,-2.061c0,-1.357 -0.503,-2.036 -1.509,-2.036c-1.002,-0 -1.503,0.682 -1.503,2.046c-0,1.367 0.494,2.051 1.484,2.051Z" style="fill:white;fill-rule:nonzero;"/>
    <path d="M324.21,316.946l0,-0.996c-0.511,0.746 -1.131,1.118 -1.86,1.118c-0.463,0 -0.83,-0.145 -1.104,-0.437c-0.273,-0.291 -0.41,-0.684 -0.41,-1.179l0,-3.809l0.962,0l-0,3.497c-0,0.397 0.058,0.679 0.173,0.847c0.116,0.167 0.309,0.251 0.579,0.251c0.586,0 1.139,-0.386 1.66,-1.157l0,-3.438l0.962,0l-0,5.303l-0.962,0Z" style="fill:white;fill-rule:nonzero;"/>
    <path d="M327.101,316.946l-0,-5.303l0.962,0l-0,0.997c0.507,-0.743 1.129,-1.114 1.865,-1.114c0.459,0 0.825,0.146 1.098,0.437c0.274,0.292 0.411,0.683 0.411,1.175l-0,3.808l-0.962,0l-0,-3.496c-0,-0.394 -0.058,-0.675 -0.174,-0.842c-0.115,-0.168 -0.306,-0.252 -0.573,-0.252c-0.59,0 -1.145,0.386 -1.665,1.158l-0,3.432l-0.962,0Z" style="fill:white;fill-rule:nonzero;"/>
    <path d="M334.899,317.068c-0.489,0 -0.87,-0.14 -1.143,-0.42c-0.273,-0.28 -0.41,-0.669 -0.41,-1.167l-0,-3.115l-0.664,0l-0,-0.723l0.664,0l-0,-0.961l0.962,-0.093l-0,1.054l1.386,0l0,0.723l-1.386,0l-0,2.94c-0,0.693 0.299,1.04 0.898,1.04c0.127,-0 0.282,-0.022 0.464,-0.064l0,0.664c-0.296,0.082 -0.553,0.122 -0.771,0.122Z" style="fill:white;fill-rule:nonzero;"/>
    <g id="Jack5" serif:id="Jack">
        <circle cx="360.822" cy="118.205" r="14.173" style="fill:url(#_Radial8);stroke:rgb(161,0,255);stroke-width:2px;"/>
        <circle cx="360.822" cy="118.205" r="9.921" style="fill:rgb(191,191,191);stroke:rgb(121,121,121);stroke-width:1.5px;stroke-linecap:square;stroke-linejoin:bevel;"/>
    </g>
    <g id="Jack6" serif:id="Jack">
        <circle cx="360.822" cy="164.497" r="14.173" style="fill:url(#_Radial9);stroke:rgb(161,0,255);stroke-width:2px;"/>
        <circle cx="360.822" cy="164.497" r="9.921" style="fill:rgb(191,191,191);stroke:rgb(121,121,121);stroke-width:1.5px;stroke-linecap:square;stroke-linejoin:bevel;"/>
    </g>
    <g id="Jack7" serif:id="Jack">
        <circle cx="360.822" cy="267.115" r="14.173" style="fill:url(#_Radial10);stroke:rgb(161,0,255);stroke-width:2px;"/>
        <circle cx="360.822" cy="267.115" r="9.921" style="fill:rgb(191,191,191);stroke:rgb(121,121,121);stroke-width:1.5px;stroke-linecap:square;stroke-linejoin:bevel;"/>
    </g>
    <g id="Jack8" serif:id="Jack">
        <circle cx="112.471" cy="314.79" r="14.173" style="fill:url(#_Radial11);stroke:rgb(161,0,255);stroke-width:2px;"/>
        <circle cx="112.471" cy="314.79" r="9.921" style="fill:rgb(191,191,191);stroke:rgb(121,121,121);stroke-width:1.5px;stroke-linecap:square;stroke-linejoin:bevel;"/>
    </g>
    <g id="Jack9" serif:id="Jack">
        <circle cx="360.822" cy="313.394" r="14.173" style="fill:url(#_Radial12);stroke:rgb(161,0,255);stroke-width:2px;"/>
        <circle cx="360.822" cy="313.394" r="9.921" style="fill:rgb(191,191,191);stroke:rgb(121,121,121);stroke-width:1.5px;stroke-linecap:square;stroke-linejoin:bevel;"/>
    </g>
    <g id="Switch2" serif:id="Switch">
        <path d="M24.407,178.686c-7.822,0.006 -14.178,-6.34 -14.184,-14.162c-0.007,-7.823 6.339,-14.179 14.162,-14.185c7.822,-0.006 14.178,6.34 14.184,14.162c0.006,7.823 -6.339,14.178 -14.162,14.185Z" style="fill:url(#_Radial13);stroke:rgb(161,0,255);stroke-width:2px;"/>
        <path d="M24.404,174.434c-5.476,0.004 -9.925,-4.438 -9.929,-9.914c-0.005,-5.475 4.437,-9.924 9.913,-9.929c5.476,-0.004 9.925,4.438 9.929,9.914c0.004,5.475 -4.438,9.924 -9.913,9.929Z" style="fill:rgb(191,191,191);stroke:rgb(121,121,121);stroke-width:1.5px;stroke-linecap:square;stroke-linejoin:bevel;"/>
        <path d="M24.396,164.512l-0.008,-9.921" style="fill:none;stroke:rgb(121,121,121);stroke-width:1.5px;stroke-linecap:square;stroke-linejoin:bevel;"/>
    </g>
    <g id="Switch3" serif:id="Switch">
        <path d="M269.291,178.686c-7.822,0.006 -14.178,-6.34 -14.184,-14.162c-0.006,-7.823 6.339,-14.179 14.162,-14.185c7.822,-0.006 14.178,6.34 14.184,14.162c0.007,7.823 -6.339,14.178 -14.162,14.185Z" style="fill:url(#_Radial14);stroke:rgb(161,0,255);stroke-width:2px;"/>
        <path d="M269.288,174.434c-5.476,0.004 -9.925,-4.438 -9.929,-9.914c-0.005,-5.475 4.437,-9.924 9.913,-9.929c5.476,-0.004 9.925,4.438 9.929,9.914c0.005,5.475 -4.437,9.924 -9.913,9.929Z" style="fill:rgb(191,191,191);stroke:rgb(121,121,121);stroke-width:1.5px;stroke-linecap:square;stroke-linejoin:bevel;"/>
        <path d="M269.28,164.512l-0.008,-9.921" style="fill:none;stroke:rgb(121,121,121);stroke-width:1.5px;stroke-linecap:square;stroke-linejoin:bevel;"/>
    </g>
    <g id="Switch4" serif:id="Switch">
        <circle cx="23.656" cy="315.038" r="14.173" style="fill:url(#_Radial15);stroke:rgb(161,0,255);stroke-width:2px;"/>
        <circle cx="23.656" cy="315.038" r="9.921" style="fill:rgb(191,191,191);stroke:rgb(121,121,121);stroke-width:1.5px;stroke-linecap:square;stroke-linejoin:bevel;"/>
        <path d="M23.656,315.038l0,-9.921" style="fill:none;stroke:rgb(121,121,121);stroke-width:1.5px;stroke-linecap:square;stroke-linejoin:bevel;"/>
    </g>
    <g id="Switch5" serif:id="Switch">
        <circle cx="269.291" cy="315.038" r="14.173" style="fill:url(#_Radial16);stroke:rgb(161,0,255);stroke-width:2px;"/>
        <circle cx="269.291" cy="315.038" r="9.921" style="fill:rgb(191,191,191);stroke:rgb(121,121,121);stroke-width:1.5px;stroke-linecap:square;stroke-linejoin:bevel;"/>
        <path d="M269.291,315.038l0,-9.921" style="fill:none;stroke:rgb(121,121,121);stroke-width:1.5px;stroke-linecap:square;stroke-linejoin:bevel;"/>
    </g>
    <g id="Switch6" serif:id="Switch">
        <circle cx="24.378" cy="267.927" r="14.173" style="fill:url(#_Radial17);stroke:rgb(161,0,255);stroke-width:2px;"/>
        <circle cx="24.378" cy="267.927" r="9.921" style="fill:rgb(191,191,191);stroke:rgb(121,121,121);stroke-width:1.5px;stroke-linecap:square;stroke-linejoin:bevel;"/>
        <path d="M24.378,267.927l-0,-9.921" style="fill:none;stroke:rgb(121,121,121);stroke-width:1.5px;stroke-linecap:square;stroke-linejoin:bevel;"/>
    </g>
    <g id="Switch7" serif:id="Switch">
        <circle cx="269.291" cy="267.927" r="14.173" style="fill:url(#_Radial18);stroke:rgb(161,0,255);stroke-width:2px;"/>
        <circle cx="269.291" cy="267.927" r="9.921" style="fill:rgb(191,191,191);stroke:rgb(121,121,121);stroke-width:1.5px;stroke-linecap:square;stroke-linejoin:bevel;"/>
        <path d="M269.291,267.927l0,-9.921" style="fill:none;stroke:rgb(121,121,121);stroke-width:1.5px;stroke-linecap:square;stroke-linejoin:bevel;"/>
    </g>
    <defs>
        <radialGradient id="_Radial1" cx="0" cy="0" r="1" gradientUnits="userSpaceOnUse" gradientTransform="matrix(-14.1732,1.73572e-15,-1.73572e-15,-14.1732,24.3958,118.138)"><stop offset="0" style="stop-color:white;stop-opacity:1"/><stop offset="1" style="stop-color:rgb(169,169,169);stop-opacity:1"/></radialGradient>
        <radialGradient id="_Radial2" cx="0" cy="0" r="1" gradientUnits="userSpaceOnUse" gradientTransform="matrix(-14.1732,1.73572e-15,-1.73572e-15,-14.1732,269.291,118.138)"><stop offset="0" style="stop-color:white;stop-opacity:1"/><stop offset="1" style="stop-color:rgb(169,169,169);stop-opacity:1"/></radialGradient>
        <radialGradient id="_Radial3" cx="0" cy="0" r="1" gradientUnits="userSpaceOnUse" gradientTransform="matrix(-14.1732,1.73572e-15,-1.73572e-15,-14.1732,112.471,118.205)"><stop offset="0" style="stop-color:white;stop-opacity:1"/><stop offset="1" style="stop-color:rgb(169,169,169);stop-opacity:1"/></radialGradient>
        <radialGradient id="_Radial4" cx="0" cy="0" r="1" gradientUnits="userSpaceOnUse" gradientTransform="matrix(-14.1732,1.73572e-15,-1.73572e-15,-14.1732,474.26,118.138)"><stop offset="0" style="stop-color:white;stop-opacity:1"/><stop offset="1" style="stop-color:rgb(169,169,169);stop-opacity:1"/></radialGradient>
        <radialGradient id="_Radial5" cx="0" cy="0" r="1" gradientUnits="userSpaceOnUse" gradientTransform="matrix(-14.1732,1.73572e-15,-1.73572e-15,-14.1732,474.26,162.187)"><stop offset="0" style="stop-color:white;stop-opacity:1"/><stop offset="1" style="stop-color:rgb(169,169,169);stop-opacity:1"/></radialGradient>
        <radialGradient id="_Radial6" cx="0" cy="0" r="1" gradientUnits="userSpaceOnUse" gradientTransform="matrix(-14.1732,1.73572e-15,-1.73572e-15,-14.1732,112.471,164.497)"><stop offset="0" style="stop-color:white;stop-opacity:1"/><stop offset="1" style="stop-color:rgb(169,169,169);stop-opacity:1"/></radialGradient>
        <radialGradient id="_Radial7" cx="0" cy="0" r="1" gradientUnits="userSpaceOnUse" gradientTransform="matrix(-14.1732,1.73572e-15,-1.73572e-15,-14.1732,112.471,267.115)"><stop offset="0" style="stop-color:white;stop-opacity:1"/><stop offset="1" style="stop-color:rgb(169,169,169);stop-opacity:1"/></radialGradient>
        <radialGradient id="_Radial8" cx="0" cy="0" r="1" gradientUnits="userSpaceOnUse" gradientTransform="matrix(-14.1732,1.73572e-15,-1.73572e-15,-14.1732,360.822,118.205)"><stop offset="0" style="stop-color:white;stop-opacity:1"/><stop offset="1" style="stop-color:rgb(169,169,169);stop-opacity:1"/></radialGradient>
        <radialGradient id="_Radial9" cx="0" cy="0" r="1" gradientUnits="userSpaceOnUse" gradientTransform="matrix(-14.1732,1.73572e-15,-1.73572e-15,-14.1732,360.822,164.497)"><stop offset="0" style="stop-color:white;stop-opacity:1"/><stop offset="1" style="stop-color:rgb(169,169,169);stop-opacity:1"/></radialGradient>
        <radialGradient id="_Radial10" cx="0" cy="0" r="1" gradientUnits="userSpaceOnUse" gradientTransform="matrix(-14.1732,1.73572e-15,-1.73572e-15,-14.1732,360.822,267.115)"><stop offset="0" style="stop-color:white;stop-opacity:1"/><stop offset="1" style="stop-color:rgb(169,169,169);stop-opacity:1"/></radialGradient>
        <radialGradient id="_Radial11" cx="0" cy="0" r="1" gradientUnits="userSpaceOnUse" gradientTransform="matrix(-14.1732,1.73572e-15,-1.73572e-15,-14.1732,112.471,314.79)"><stop offset="0" style="stop-color:white;stop-opacity:1"/><stop offset="1" style="stop-color:rgb(169,169,169);stop-opacity:1"/></radialGradient>
        <radialGradient id="_Radial12" cx="0" cy="0" r="1" gradientUnits="userSpaceOnUse" gradientTransform="matrix(-14.1732,1.73572e-15,-1.73572e-15,-14.1732,360.822,313.394)"><stop offset="0" style="stop-color:white;stop-opacity:1"/><stop offset="1" style="stop-color:rgb(169,169,169);stop-opacity:1"/></radialGradient>
        <radialGradient id="_Radial13" cx="0" cy="0" r="1" gradientUnits="userSpaceOnUse" gradientTransform="matrix(-14.1732,0.0112865,-0.0112865,-14.1732,24.3958,164.512)"><stop offset="0" style="stop-color:white;stop-opacity:1"/><stop offset="1" style="stop-color:rgb(169,169,169);stop-opacity:1"/></radialGradient>
        <radialGradient id="_Radial14" cx="0" cy="0" r="1" gradientUnits="userSpaceOnUse" gradientTransform="matrix(-14.1732,0.0112865,-0.0112865,-14.1732,269.28,164.512)"><stop offset="0" style="stop-color:white;stop-opacity:1"/><stop offset="1" style="stop-color:rgb(169,169,169);stop-opacity:1"/></radialGradient>
        <radialGradient id="_Radial15" cx="0" cy="0" r="1" gradientUnits="userSpaceOnUse" gradientTransform="matrix(-14.1732,1.73572e-15,-1.73572e-15,-14.1732,23.6562,315.038)"><stop offset="0" style="stop-color:white;stop-opacity:1"/><stop offset="1" style="stop-color:rgb(169,169,169);stop-opacity:1"/></radialGradient>
        <radialGradient id="_Radial16" cx="0" cy="0" r="1" gradientUnits="userSpaceOnUse" gradientTransform="matrix(-14.1732,1.73572e-15,-1.73572e-15,-14.1732,269.291,315.038)"><stop offset="0" style="stop-color:white;stop-opacity:1"/><stop offset="1" style="stop-color:rgb(169,169,169);stop-opacity:1"/></radialGradient>
        <radialGradient id="_Radial17" cx="0" cy="0" r="1" gradientUnits="userSpaceOnUse" gradientTransform="matrix(-14.1732,1.73572e-15,-1.73572e-15,-14.1732,24.378,267.927)"><stop offset="0" style="stop-color:white;stop-opacity:1"/><stop offset="1" style="stop-color:rgb(169,169,169);stop-opacity:1"/></radialGradient>
        <radialGradient id="_Radial18" cx="0" cy="0" r="1" gradientUnits="userSpaceOnUse" gradientTransform="matrix(-14.1732,1.73572e-15,-1.73572e-15,-14.1732,269.291,267.927)"><stop offset="0" style="stop-color:white;stop-opacity:1"/><stop offset="1" style="stop-color:rgb(169,169,169);stop-opacity:1"/></radialGradient>
    </defs>
</svg>
