<?xml version="1.0" encoding="UTF-8" standalone="no"?>
<!DOCTYPE svg PUBLIC "-//W3C//DTD SVG 1.1//EN" "http://www.w3.org/Graphics/SVG/1.1/DTD/svg11.dtd">
<svg width="576px" height="365px" version="1.1" xmlns="http://www.w3.org/2000/svg" xmlns:xlink="http://www.w3.org/1999/xlink" xml:space="preserve" xmlns:serif="http://www.serif.com/" style="fill-rule:evenodd;clip-rule:evenodd;stroke-linecap:round;stroke-linejoin:round;stroke-miterlimit:1.5;">
    <rect id="BG" x="0" y="0" width="576" height="364.252" style="fill:rgb(0,10,25);"/>
    <path d="M56.55,167.568c-0.486,0 -1.106,-0.105 -1.861,-0.317l0,-1.016c0.814,0.378 1.483,0.567 2.007,0.567c0.404,-0 0.728,-0.106 0.974,-0.317c0.246,-0.212 0.369,-0.49 0.369,-0.835c-0,-0.284 -0.081,-0.525 -0.242,-0.723c-0.161,-0.199 -0.458,-0.42 -0.891,-0.664l-0.498,-0.288c-0.615,-0.352 -1.049,-0.683 -1.301,-0.994c-0.253,-0.311 -0.379,-0.673 -0.379,-1.086c0,-0.557 0.202,-1.015 0.606,-1.375c0.403,-0.36 0.918,-0.539 1.543,-0.539c0.556,-0 1.144,0.092 1.762,0.278l0,0.937c-0.761,-0.299 -1.329,-0.449 -1.704,-0.449c-0.355,0 -0.648,0.095 -0.879,0.283c-0.231,0.189 -0.346,0.427 -0.346,0.713c-0,0.241 0.084,0.454 0.254,0.64c0.169,0.185 0.478,0.407 0.927,0.664l0.518,0.293c0.625,0.355 1.061,0.69 1.308,1.006c0.248,0.316 0.372,0.695 0.372,1.138c-0,0.628 -0.232,1.132 -0.696,1.513c-0.464,0.381 -1.079,0.571 -1.843,0.571Z" style="fill:white;fill-rule:nonzero;"/>
    <path d="M60.549,167.388l-0,-7.71l0.961,-0l0,3.403c0.508,-0.742 1.13,-1.113 1.866,-1.113c0.459,-0 0.825,0.146 1.098,0.437c0.274,0.291 0.41,0.683 0.41,1.174l0,3.809l-0.961,-0l-0,-3.496c-0,-0.394 -0.058,-0.675 -0.174,-0.843c-0.115,-0.167 -0.307,-0.251 -0.574,-0.251c-0.589,-0 -1.144,0.386 -1.665,1.157l0,3.433l-0.961,-0Z" style="fill:white;fill-rule:nonzero;"/>
    <path d="M69.489,166.714c-0.576,0.531 -1.131,0.796 -1.665,0.796c-0.44,-0 -0.804,-0.138 -1.094,-0.413c-0.29,-0.275 -0.434,-0.622 -0.434,-1.042c-0,-0.58 0.243,-1.025 0.73,-1.336c0.486,-0.311 1.184,-0.466 2.092,-0.466l0.229,0l0,-0.64c0,-0.615 -0.315,-0.922 -0.947,-0.922c-0.508,-0 -1.056,0.156 -1.645,0.468l-0,-0.796c0.647,-0.263 1.254,-0.395 1.821,-0.395c0.592,-0 1.029,0.133 1.311,0.4c0.282,0.267 0.422,0.682 0.422,1.245l0,2.403c0,0.55 0.17,0.825 0.508,0.825c0.042,-0 0.104,-0.007 0.186,-0.02l0.068,0.533c-0.218,0.104 -0.459,0.156 -0.723,0.156c-0.449,-0 -0.735,-0.265 -0.859,-0.796Zm-0.142,-0.522l0,-1.373l-0.322,-0.009c-0.527,-0 -0.954,0.1 -1.279,0.3c-0.326,0.2 -0.488,0.463 -0.488,0.789c-0,0.231 0.081,0.426 0.244,0.586c0.162,0.159 0.361,0.239 0.595,0.239c0.401,-0 0.817,-0.178 1.25,-0.532Z" style="fill:white;fill-rule:nonzero;"/>
    <path d="M72.277,169.317l0,-7.232l0.962,0l-0,0.996c0.394,-0.742 0.985,-1.113 1.772,-1.113c0.638,-0 1.141,0.233 1.507,0.698c0.366,0.466 0.549,1.102 0.549,1.909c0,0.879 -0.207,1.588 -0.622,2.127c-0.415,0.539 -0.962,0.808 -1.639,0.808c-0.628,-0 -1.15,-0.241 -1.567,-0.723l-0,2.53l-0.962,-0Zm0.962,-3.194c0.495,0.443 0.967,0.664 1.416,0.664c0.924,0 1.387,-0.705 1.387,-2.114c-0,-1.244 -0.41,-1.865 -1.231,-1.865c-0.537,-0 -1.061,0.291 -1.572,0.874l-0,2.441Z" style="fill:white;fill-rule:nonzero;"/>
    <path d="M82.458,167.217c-0.645,0.195 -1.197,0.293 -1.656,0.293c-0.781,-0 -1.418,-0.26 -1.911,-0.779c-0.493,-0.519 -0.74,-1.192 -0.74,-2.019c0,-0.804 0.217,-1.463 0.652,-1.977c0.435,-0.515 0.99,-0.772 1.667,-0.772c0.642,0 1.137,0.228 1.487,0.684c0.35,0.455 0.525,1.103 0.525,1.943l-0.005,0.298l-3.344,-0c0.14,1.26 0.756,1.889 1.85,1.889c0.401,0 0.892,-0.107 1.475,-0.322l-0,0.762Zm-3.282,-3.052l2.339,0c0,-0.986 -0.367,-1.479 -1.103,-1.479c-0.739,-0 -1.151,0.493 -1.236,1.479Z" style="fill:white;fill-rule:nonzero;"/>
    <path d="M56.55,270.998c-0.486,0 -1.106,-0.106 -1.861,-0.317l0,-1.016c0.814,0.378 1.483,0.567 2.007,0.567c0.404,-0 0.728,-0.106 0.974,-0.318c0.246,-0.211 0.369,-0.49 0.369,-0.835c-0,-0.283 -0.081,-0.524 -0.242,-0.722c-0.161,-0.199 -0.458,-0.42 -0.891,-0.664l-0.498,-0.289c-0.615,-0.351 -1.049,-0.682 -1.301,-0.993c-0.253,-0.311 -0.379,-0.673 -0.379,-1.087c0,-0.556 0.202,-1.014 0.606,-1.374c0.403,-0.36 0.918,-0.54 1.543,-0.54c0.556,0 1.144,0.093 1.762,0.279l0,0.937c-0.761,-0.299 -1.329,-0.449 -1.704,-0.449c-0.355,-0 -0.648,0.094 -0.879,0.283c-0.231,0.189 -0.346,0.427 -0.346,0.713c-0,0.241 0.084,0.454 0.254,0.64c0.169,0.185 0.478,0.407 0.927,0.664l0.518,0.293c0.625,0.355 1.061,0.69 1.308,1.006c0.248,0.315 0.372,0.695 0.372,1.137c-0,0.629 -0.232,1.133 -0.696,1.514c-0.464,0.381 -1.079,0.571 -1.843,0.571Z" style="fill:white;fill-rule:nonzero;"/>
    <path d="M60.549,270.818l-0,-7.71l0.961,-0l0,3.403c0.508,-0.742 1.13,-1.113 1.866,-1.113c0.459,-0 0.825,0.145 1.098,0.437c0.274,0.291 0.41,0.682 0.41,1.174l0,3.809l-0.961,-0l-0,-3.497c-0,-0.393 -0.058,-0.674 -0.174,-0.842c-0.115,-0.167 -0.307,-0.251 -0.574,-0.251c-0.589,-0 -1.144,0.385 -1.665,1.157l0,3.433l-0.961,-0Z" style="fill:white;fill-rule:nonzero;"/>
    <path d="M69.489,270.144c-0.576,0.53 -1.131,0.796 -1.665,0.796c-0.44,-0 -0.804,-0.138 -1.094,-0.413c-0.29,-0.275 -0.434,-0.623 -0.434,-1.042c-0,-0.58 0.243,-1.025 0.73,-1.336c0.486,-0.311 1.184,-0.466 2.092,-0.466l0.229,-0l0,-0.64c0,-0.615 -0.315,-0.923 -0.947,-0.923c-0.508,0 -1.056,0.157 -1.645,0.469l-0,-0.796c0.647,-0.264 1.254,-0.395 1.821,-0.395c0.592,-0 1.029,0.133 1.311,0.4c0.282,0.267 0.422,0.682 0.422,1.245l0,2.403c0,0.55 0.17,0.825 0.508,0.825c0.042,-0 0.104,-0.007 0.186,-0.02l0.068,0.532c-0.218,0.105 -0.459,0.157 -0.723,0.157c-0.449,-0 -0.735,-0.266 -0.859,-0.796Zm-0.142,-0.523l0,-1.372l-0.322,-0.01c-0.527,0 -0.954,0.101 -1.279,0.301c-0.326,0.2 -0.488,0.463 -0.488,0.788c-0,0.231 0.081,0.427 0.244,0.586c0.162,0.16 0.361,0.24 0.595,0.24c0.401,-0 0.817,-0.178 1.25,-0.533Z" style="fill:white;fill-rule:nonzero;"/>
    <path d="M72.277,272.746l0,-7.231l0.962,-0l-0,0.996c0.394,-0.742 0.985,-1.113 1.772,-1.113c0.638,-0 1.141,0.232 1.507,0.698c0.366,0.465 0.549,1.102 0.549,1.909c0,0.879 -0.207,1.588 -0.622,2.127c-0.415,0.538 -0.962,0.808 -1.639,0.808c-0.628,-0 -1.15,-0.241 -1.567,-0.723l-0,2.529l-0.962,0Zm0.962,-3.193c0.495,0.443 0.967,0.664 1.416,0.664c0.924,-0 1.387,-0.705 1.387,-2.114c-0,-1.244 -0.41,-1.866 -1.231,-1.866c-0.537,0 -1.061,0.292 -1.572,0.875l-0,2.441Z" style="fill:white;fill-rule:nonzero;"/>
    <path d="M82.458,270.647c-0.645,0.195 -1.197,0.293 -1.656,0.293c-0.781,-0 -1.418,-0.26 -1.911,-0.779c-0.493,-0.519 -0.74,-1.192 -0.74,-2.019c0,-0.804 0.217,-1.463 0.652,-1.978c0.435,-0.514 0.99,-0.771 1.667,-0.771c0.642,-0 1.137,0.228 1.487,0.683c0.35,0.456 0.525,1.104 0.525,1.944l-0.005,0.298l-3.344,-0c0.14,1.259 0.756,1.889 1.85,1.889c0.401,0 0.892,-0.107 1.475,-0.322l-0,0.762Zm-3.282,-3.052l2.339,-0c0,-0.986 -0.367,-1.48 -1.103,-1.48c-0.739,0 -1.151,0.494 -1.236,1.48Z" style="fill:white;fill-rule:nonzero;"/>
    <path d="M54.069,118.926l-1.23,-3.115l-1.236,3.115l2.466,0Zm1.084,2.764l-0.786,-2.002l-3.062,-0l-0.796,2.002l-0.952,-0l2.867,-7.227l1.015,0l2.822,7.227l-1.108,-0Z" style="fill:white;fill-rule:nonzero;"/>
    <path d="M57.336,121.69l-0,-5.303l0.962,0l-0,0.996c0.468,-0.742 1.071,-1.113 1.806,-1.113c0.71,-0 1.193,0.371 1.45,1.113c0.456,-0.745 1.049,-1.118 1.778,-1.118c0.468,0 0.831,0.138 1.089,0.413c0.257,0.275 0.385,0.66 0.385,1.154l0,3.858l-0.966,-0l-0,-3.706c-0,-0.606 -0.24,-0.908 -0.718,-0.908c-0.498,-0 -1.021,0.353 -1.568,1.059l0,3.555l-0.966,-0l-0,-3.706c-0,-0.609 -0.245,-0.913 -0.733,-0.913c-0.485,-0 -1.004,0.355 -1.557,1.064l-0,3.555l-0.962,-0Z" style="fill:white;fill-rule:nonzero;"/>
    <path d="M68.747,121.812c-0.759,-0 -1.364,-0.252 -1.817,-0.754c-0.452,-0.503 -0.678,-1.176 -0.678,-2.02c-0,-0.852 0.227,-1.527 0.681,-2.023c0.454,-0.497 1.07,-0.745 1.848,-0.745c0.778,-0 1.394,0.248 1.848,0.745c0.454,0.496 0.681,1.167 0.681,2.014c0,0.866 -0.228,1.546 -0.683,2.041c-0.456,0.495 -1.083,0.742 -1.88,0.742Zm0.014,-0.723c1.019,0 1.529,-0.687 1.529,-2.06c-0,-1.358 -0.503,-2.036 -1.509,-2.036c-1.003,-0 -1.504,0.682 -1.504,2.045c0,1.368 0.495,2.051 1.484,2.051Z" style="fill:white;fill-rule:nonzero;"/>
    <path d="M76.13,121.69l-0,-0.996c-0.511,0.745 -1.132,1.118 -1.861,1.118c-0.462,-0 -0.83,-0.146 -1.103,-0.437c-0.274,-0.291 -0.41,-0.684 -0.41,-1.179l-0,-3.809l0.961,0l0,3.496c0,0.397 0.058,0.68 0.174,0.847c0.115,0.168 0.308,0.252 0.578,0.252c0.586,-0 1.14,-0.386 1.661,-1.157l-0,-3.438l0.962,0l-0,5.303l-0.962,-0Z" style="fill:white;fill-rule:nonzero;"/>
    <path d="M79.02,121.69l0,-5.303l0.962,0l0,0.996c0.508,-0.742 1.13,-1.113 1.865,-1.113c0.459,-0 0.826,0.146 1.099,0.437c0.273,0.291 0.41,0.683 0.41,1.174l0,3.809l-0.962,-0l0,-3.496c0,-0.394 -0.058,-0.675 -0.173,-0.843c-0.116,-0.167 -0.307,-0.251 -0.574,-0.251c-0.589,0 -1.144,0.386 -1.665,1.157l0,3.433l-0.962,-0Z" style="fill:white;fill-rule:nonzero;"/>
    <path d="M86.818,121.812c-0.488,-0 -0.869,-0.14 -1.143,-0.42c-0.273,-0.28 -0.41,-0.669 -0.41,-1.167l0,-3.115l-0.664,-0l0,-0.723l0.664,0l0,-0.962l0.962,-0.093l0,1.055l1.387,0l-0,0.723l-1.387,-0l0,2.939c0,0.694 0.3,1.04 0.899,1.04c0.127,0 0.281,-0.021 0.464,-0.063l-0,0.664c-0.297,0.081 -0.554,0.122 -0.772,0.122Z" style="fill:white;fill-rule:nonzero;"/>
    <path d="M509.768,121.119l-2.729,-7.227l1.025,0l2.237,5.918l2.158,-5.918l0.898,0l-2.622,7.227l-0.967,-0Z" style="fill:white;fill-rule:nonzero;"/>
    <path d="M514.344,122.564l2.602,-8.672l0.757,0l-2.603,8.672l-0.756,-0Z" style="fill:white;fill-rule:nonzero;"/>
    <path d="M522.488,121.299c-1.002,0 -1.809,-0.347 -2.419,-1.042c-0.611,-0.695 -0.916,-1.614 -0.916,-2.757c0,-1.149 0.307,-2.067 0.921,-2.756c0.613,-0.688 1.433,-1.033 2.458,-1.033c1.022,0 1.841,0.344 2.456,1.031c0.615,0.686 0.923,1.603 0.923,2.749c-0,1.168 -0.308,2.095 -0.923,2.78c-0.615,0.686 -1.448,1.028 -2.5,1.028Zm0.015,-0.766c0.739,-0 1.31,-0.266 1.714,-0.799c0.403,-0.532 0.605,-1.283 0.605,-2.253c0,-0.941 -0.203,-1.677 -0.608,-2.207c-0.405,-0.531 -0.966,-0.796 -1.682,-0.796c-0.719,-0 -1.281,0.266 -1.685,0.798c-0.403,0.533 -0.605,1.272 -0.605,2.22c0,0.944 0.2,1.686 0.601,2.226c0.4,0.54 0.953,0.811 1.66,0.811Z" style="fill:white;fill-rule:nonzero;"/>
    <path d="M530.442,121.299c-1.123,0 -1.99,-0.329 -2.602,-0.989c-0.612,-0.659 -0.918,-1.592 -0.918,-2.8c-0,-1.204 0.311,-2.138 0.935,-2.803c0.623,-0.664 1.501,-0.996 2.634,-0.996c0.648,0 1.406,0.106 2.275,0.318l0,0.962c-0.989,-0.342 -1.753,-0.513 -2.29,-0.513c-0.784,-0 -1.391,0.265 -1.821,0.796c-0.43,0.53 -0.644,1.279 -0.644,2.246c-0,0.921 0.229,1.648 0.688,2.18c0.459,0.532 1.086,0.798 1.88,0.798c0.684,0 1.416,-0.21 2.197,-0.629l0,0.878c-0.713,0.368 -1.491,0.552 -2.334,0.552Z" style="fill:white;fill-rule:nonzero;"/>
    <path d="M535.984,121.119l0,-6.46l-2.563,-0l-0,-0.767l6.152,0l0,0.767l-2.563,-0l-0,6.46l-1.026,-0Z" style="fill:white;fill-rule:nonzero;"/>
    <path d="M516.426,165.98c-1.003,0 -1.809,-0.347 -2.419,-1.042c-0.611,-0.695 -0.916,-1.614 -0.916,-2.756c0,-1.149 0.307,-2.068 0.921,-2.757c0.613,-0.688 1.433,-1.032 2.458,-1.032c1.022,-0 1.841,0.343 2.456,1.03c0.615,0.687 0.923,1.603 0.923,2.749c-0,1.169 -0.308,2.095 -0.923,2.781c-0.615,0.685 -1.448,1.027 -2.5,1.027Zm0.015,-0.766c0.739,-0 1.31,-0.266 1.714,-0.798c0.403,-0.533 0.605,-1.284 0.605,-2.254c0,-0.941 -0.203,-1.676 -0.608,-2.207c-0.405,-0.53 -0.966,-0.796 -1.682,-0.796c-0.719,0 -1.281,0.266 -1.685,0.799c-0.403,0.532 -0.605,1.272 -0.605,2.219c0,0.944 0.2,1.686 0.601,2.226c0.4,0.541 0.953,0.811 1.66,0.811Z" style="fill:white;fill-rule:nonzero;"/>
    <path d="M521.226,158.573l1.025,0l0,4.561c0,0.726 0.135,1.254 0.403,1.584c0.269,0.331 0.696,0.496 1.282,0.496c0.573,-0 0.979,-0.156 1.218,-0.466c0.239,-0.311 0.359,-0.838 0.359,-1.58l0,-4.595l0.898,0l0,4.58c0,0.987 -0.202,1.704 -0.607,2.154c-0.406,0.449 -1.051,0.673 -1.936,0.673c-0.902,0 -1.568,-0.232 -1.998,-0.698c-0.429,-0.465 -0.644,-1.185 -0.644,-2.158l-0,-4.551Z" style="fill:white;fill-rule:nonzero;"/>
    <path d="M529.932,165.8l-0,-6.46l-2.564,-0l0,-0.767l6.153,0l-0,0.767l-2.564,-0l0,6.46l-1.025,-0Z" style="fill:white;fill-rule:nonzero;"/>
    <path d="M54.069,314.182l-1.23,-3.115l-1.236,3.115l2.466,0Zm1.084,2.764l-0.786,-2.002l-3.062,0l-0.796,2.002l-0.952,0l2.867,-7.226l1.015,-0l2.822,7.226l-1.108,0Z" style="fill:white;fill-rule:nonzero;"/>
    <path d="M57.336,316.946l-0,-5.303l0.962,0l-0,0.997c0.468,-0.743 1.071,-1.114 1.806,-1.114c0.71,0 1.193,0.371 1.45,1.114c0.456,-0.746 1.049,-1.119 1.778,-1.119c0.468,0 0.831,0.138 1.089,0.413c0.257,0.275 0.385,0.66 0.385,1.155l0,3.857l-0.966,0l-0,-3.706c-0,-0.605 -0.24,-0.908 -0.718,-0.908c-0.498,-0 -1.021,0.353 -1.568,1.059l0,3.555l-0.966,0l-0,-3.706c-0,-0.609 -0.245,-0.913 -0.733,-0.913c-0.485,0 -1.004,0.355 -1.557,1.064l-0,3.555l-0.962,0Z" style="fill:white;fill-rule:nonzero;"/>
    <path d="M68.747,317.068c-0.759,0 -1.364,-0.251 -1.817,-0.754c-0.452,-0.503 -0.678,-1.176 -0.678,-2.019c-0,-0.853 0.227,-1.528 0.681,-2.024c0.454,-0.497 1.07,-0.745 1.848,-0.745c0.778,0 1.394,0.248 1.848,0.745c0.454,0.496 0.681,1.168 0.681,2.014c0,0.866 -0.228,1.546 -0.683,2.041c-0.456,0.495 -1.083,0.742 -1.88,0.742Zm0.014,-0.722c1.019,-0 1.529,-0.687 1.529,-2.061c-0,-1.357 -0.503,-2.036 -1.509,-2.036c-1.003,-0 -1.504,0.682 -1.504,2.046c0,1.367 0.495,2.051 1.484,2.051Z" style="fill:white;fill-rule:nonzero;"/>
    <path d="M76.13,316.946l-0,-0.996c-0.511,0.746 -1.132,1.118 -1.861,1.118c-0.462,0 -0.83,-0.145 -1.103,-0.437c-0.274,-0.291 -0.41,-0.684 -0.41,-1.179l-0,-3.809l0.961,0l0,3.497c0,0.397 0.058,0.679 0.174,0.847c0.115,0.167 0.308,0.251 0.578,0.251c0.586,0 1.14,-0.386 1.661,-1.157l-0,-3.438l0.962,0l-0,5.303l-0.962,0Z" style="fill:white;fill-rule:nonzero;"/>
    <path d="M79.02,316.946l0,-5.303l0.962,0l0,0.997c0.508,-0.743 1.13,-1.114 1.865,-1.114c0.459,0 0.826,0.146 1.099,0.437c0.273,0.292 0.41,0.683 0.41,1.175l0,3.808l-0.962,0l0,-3.496c0,-0.394 -0.058,-0.675 -0.173,-0.842c-0.116,-0.168 -0.307,-0.252 -0.574,-0.252c-0.589,0 -1.144,0.386 -1.665,1.158l0,3.432l-0.962,0Z" style="fill:white;fill-rule:nonzero;"/>
    <path d="M86.818,317.068c-0.488,0 -0.869,-0.14 -1.143,-0.42c-0.273,-0.28 -0.41,-0.669 -0.41,-1.167l0,-3.115l-0.664,0l0,-0.723l0.664,0l0,-0.961l0.962,-0.093l0,1.054l1.387,0l-0,0.723l-1.387,0l0,2.94c0,0.693 0.3,1.04 0.899,1.04c0.127,-0 0.281,-0.022 0.464,-0.064l-0,0.664c-0.297,0.082 -0.554,0.122 -0.772,0.122Z" style="fill:white;fill-rule:nonzero;"/>
    <path id="Title" d="M11.776,49.577l-0,-39.816l10.841,-0c4.807,-0 8.26,0.811 10.358,2.435c2.098,1.623 3.148,4.291 3.148,8.003c-0,4.233 -1.435,7.551 -4.305,9.954c-2.869,2.404 -6.851,3.605 -11.945,3.605l-2.502,0l0,15.819l-5.595,0Zm5.595,-20.096l2.287,-0c3.354,-0 5.946,-0.772 7.775,-2.314c1.829,-1.542 2.744,-3.722 2.744,-6.537c0,-2.386 -0.717,-4.09 -2.152,-5.112c-1.435,-1.022 -3.829,-1.533 -7.183,-1.533l-3.471,-0l0,15.496Z" style="fill:white;fill-rule:nonzero;"/>
    <path d="M42.23,49.577l-0,-39.816l12.052,-0c3.82,-0 6.748,0.843 8.784,2.529c2.035,1.686 3.053,4.134 3.053,7.344c0,5.309 -2.681,9.075 -8.044,11.299l13.29,18.644l-6.941,0l-11.326,-16.841l-5.273,-0l0,16.841l-5.595,0Zm5.595,-21.065l1.83,0c7.102,0 10.653,-2.789 10.653,-8.367c0,-4.107 -2.977,-6.16 -8.931,-6.16l-3.552,-0l0,14.527Z" style="fill:white;fill-rule:nonzero;"/>
    <rect x="77.042" y="9.761" width="5.65" height="39.816" style="fill:white;fill-rule:nonzero;"/>
    <path d="M90.359,49.577l-0,-4.52l21.387,-31.072l-20.069,-0l-0,-4.224l26.849,-0l0,4.224l-21.388,31.072l21.388,0l0,4.52l-28.167,0Z" style="fill:white;fill-rule:nonzero;"/>
    <path d="M126.247,49.577l0,-39.816l7.829,-0l11.03,30.804l11.353,-30.804l6.995,-0l-0,39.816l-5.273,0l-0,-32.391l-10.977,29.728l-5.461,-0l-10.653,-29.809l-0,32.472l-4.843,0Z" style="fill:white;fill-rule:nonzero;"/>
    <g id="Cube">
        <rect id="Cube-Front" serif:id="Cube Front" x="137.48" y="167.953" width="56.693" height="56.693" style="fill:none;stroke:rgb(41,0,255);stroke-width:1px;"/>
        <rect id="Cube-Back" serif:id="Cube Back" x="165.827" y="139.606" width="56.693" height="56.693" style="fill:none;stroke:rgb(41,0,255);stroke-width:1px;"/>
        <path id="Cube1" serif:id="Cube" d="M194.173,224.646l28.347,-28.347l-56.693,0l-28.347,28.347l0,-56.693l28.347,-28.347l56.693,0l-28.347,28.347" style="fill:none;stroke:rgb(41,0,255);stroke-width:1px;"/>
    </g>
    <path d="M27.654,75.637l-4.242,-10.739l-4.258,10.739l8.5,0Zm3.737,9.528l-2.71,-6.902l-10.554,0l-2.744,6.902l-3.282,-0l9.88,-24.913l3.502,0l9.729,24.913l-3.821,-0Z" style="fill:white;fill-rule:nonzero;"/>
    <path d="M16.065,230.506l-0,-24.912l6.463,-0c2.492,-0 4.402,0.471 5.732,1.413c1.33,0.943 1.995,2.301 1.995,4.074c-0,3.019 -1.706,5.168 -5.117,6.447c4.073,1.245 6.11,3.495 6.11,6.75c-0,2.02 -0.674,3.563 -2.02,4.629c-1.347,1.066 -3.288,1.599 -5.824,1.599l-7.339,-0Zm3.501,-2.643l0.724,0c2.592,0 4.27,-0.163 5.033,-0.488c1.458,-0.617 2.188,-1.762 2.188,-3.434c-0,-1.481 -0.662,-2.713 -1.986,-3.695c-1.325,-0.982 -2.98,-1.473 -4.966,-1.473l-0.993,0l-0,9.09Zm-0,-11.328l1.128,-0c1.885,-0 3.347,-0.404 4.385,-1.212c1.038,-0.808 1.557,-1.947 1.557,-3.417c-0,-2.447 -1.897,-3.67 -5.69,-3.67l-1.38,0l-0,8.299Z" style="fill:white;fill-rule:nonzero;"/>
    <g id="Switch">
        <circle cx="24.396" cy="118.138" r="14.173" style="fill:url(#_Radial1);stroke:rgb(161,0,255);stroke-width:2px;"/>
        <circle cx="24.396" cy="118.138" r="9.921" style="fill:rgb(191,191,191);stroke:rgb(121,121,121);stroke-width:1.5px;stroke-linecap:square;stroke-linejoin:bevel;"/>
        <path d="M24.396,118.138l-0,-9.922" style="fill:none;stroke:rgb(121,121,121);stroke-width:1.5px;stroke-linecap:square;stroke-linejoin:bevel;"/>
    </g>
    <g id="Jack">
        <circle cx="112.471" cy="118.138" r="14.173" style="fill:url(#_Radial2);stroke:rgb(161,0,255);stroke-width:2px;"/>
        <circle cx="112.471" cy="118.138" r="9.921" style="fill:rgb(191,191,191);stroke:rgb(121,121,121);stroke-width:1.5px;stroke-linecap:square;stroke-linejoin:bevel;"/>
    </g>
    <g id="Jack1" serif:id="Jack">
        <circle cx="474.26" cy="118.138" r="14.173" style="fill:url(#_Radial3);stroke:rgb(161,0,255);stroke-width:2px;"/>
        <circle cx="474.26" cy="118.138" r="9.921" style="fill:rgb(191,191,191);stroke:rgb(121,121,121);stroke-width:1.5px;stroke-linecap:square;stroke-linejoin:bevel;"/>
    </g>
    <g id="Jack2" serif:id="Jack">
        <circle cx="474.26" cy="162.187" r="14.173" style="fill:url(#_Radial4);stroke:rgb(161,0,255);stroke-width:2px;"/>
        <circle cx="474.26" cy="162.187" r="9.921" style="fill:rgb(191,191,191);stroke:rgb(121,121,121);stroke-width:1.5px;stroke-linecap:square;stroke-linejoin:bevel;"/>
    </g>
    <g id="Jack3" serif:id="Jack">
        <circle cx="112.471" cy="164.497" r="14.173" style="fill:url(#_Radial5);stroke:rgb(161,0,255);stroke-width:2px;"/>
        <circle cx="112.471" cy="164.497" r="9.921" style="fill:rgb(191,191,191);stroke:rgb(121,121,121);stroke-width:1.5px;stroke-linecap:square;stroke-linejoin:bevel;"/>
    </g>
    <g id="Jack4" serif:id="Jack">
        <circle cx="112.471" cy="267.115" r="14.173" style="fill:url(#_Radial6);stroke:rgb(161,0,255);stroke-width:2px;"/>
        <circle cx="112.471" cy="267.115" r="9.921" style="fill:rgb(191,191,191);stroke:rgb(121,121,121);stroke-width:1.5px;stroke-linecap:square;stroke-linejoin:bevel;"/>
    </g>
    <g id="Jack5" serif:id="Jack">
        <circle cx="112.471" cy="314.79" r="14.173" style="fill:url(#_Radial7);stroke:rgb(161,0,255);stroke-width:2px;"/>
        <circle cx="112.471" cy="314.79" r="9.921" style="fill:rgb(191,191,191);stroke:rgb(121,121,121);stroke-width:1.5px;stroke-linecap:square;stroke-linejoin:bevel;"/>
    </g>
    <g id="Switch1" serif:id="Switch">
        <path d="M24.407,178.686c-7.822,0.006 -14.178,-6.34 -14.184,-14.162c-0.007,-7.823 6.339,-14.179 14.162,-14.185c7.822,-0.006 14.178,6.34 14.184,14.162c0.006,7.823 -6.339,14.178 -14.162,14.185Z" style="fill:url(#_Radial8);stroke:rgb(161,0,255);stroke-width:2px;"/>
        <path d="M24.404,174.434c-5.476,0.004 -9.925,-4.438 -9.929,-9.914c-0.005,-5.475 4.437,-9.924 9.913,-9.929c5.476,-0.004 9.925,4.438 9.929,9.914c0.004,5.475 -4.438,9.924 -9.913,9.929Z" style="fill:rgb(191,191,191);stroke:rgb(121,121,121);stroke-width:1.5px;stroke-linecap:square;stroke-linejoin:bevel;"/>
        <path d="M24.396,164.512l-0.008,-9.921" style="fill:none;stroke:rgb(121,121,121);stroke-width:1.5px;stroke-linecap:square;stroke-linejoin:bevel;"/>
    </g>
    <g id="Switch2" serif:id="Switch">
        <circle cx="23.656" cy="315.038" r="14.173" style="fill:url(#_Radial9);stroke:rgb(161,0,255);stroke-width:2px;"/>
        <circle cx="23.656" cy="315.038" r="9.921" style="fill:rgb(191,191,191);stroke:rgb(121,121,121);stroke-width:1.5px;stroke-linecap:square;stroke-linejoin:bevel;"/>
        <path d="M23.656,315.038l0,-9.921" style="fill:none;stroke:rgb(121,121,121);stroke-width:1.5px;stroke-linecap:square;stroke-linejoin:bevel;"/>
    </g>
    <g id="Switch3" serif:id="Switch">
        <circle cx="24.378" cy="267.927" r="14.173" style="fill:url(#_Radial10);stroke:rgb(161,0,255);stroke-width:2px;"/>
        <circle cx="24.378" cy="267.927" r="9.921" style="fill:rgb(191,191,191);stroke:rgb(121,121,121);stroke-width:1.5px;stroke-linecap:square;stroke-linejoin:bevel;"/>
        <path d="M24.378,267.927l-0,-9.921" style="fill:none;stroke:rgb(121,121,121);stroke-width:1.5px;stroke-linecap:square;stroke-linejoin:bevel;"/>
    </g>
    <defs>
        <radialGradient id="_Radial1" cx="0" cy="0" r="1" gradientUnits="userSpaceOnUse" gradientTransform="matrix(-14.1732,1.73572e-15,-1.73572e-15,-14.1732,24.3958,118.138)"><stop offset="0" style="stop-color:white;stop-opacity:1"/><stop offset="1" style="stop-color:rgb(169,169,169);stop-opacity:1"/></radialGradient>
        <radialGradient id="_Radial2" cx="0" cy="0" r="1" gradientUnits="userSpaceOnUse" gradientTransform="matrix(-14.1732,1.73572e-15,-1.73572e-15,-14.1732,112.471,118.138)"><stop offset="0" style="stop-color:white;stop-opacity:1"/><stop offset="1" style="stop-color:rgb(169,169,169);stop-opacity:1"/></radialGradient>
        <radialGradient id="_Radial3" cx="0" cy="0" r="1" gradientUnits="userSpaceOnUse" gradientTransform="matrix(-14.1732,1.73572e-15,-1.73572e-15,-14.1732,474.26,118.138)"><stop offset="0" style="stop-color:white;stop-opacity:1"/><stop offset="1" style="stop-color:rgb(169,169,169);stop-opacity:1"/></radialGradient>
        <radialGradient id="_Radial4" cx="0" cy="0" r="1" gradientUnits="userSpaceOnUse" gradientTransform="matrix(-14.1732,1.73572e-15,-1.73572e-15,-14.1732,474.26,162.187)"><stop offset="0" style="stop-color:white;stop-opacity:1"/><stop offset="1" style="stop-color:rgb(169,169,169);stop-opacity:1"/></radialGradient>
        <radialGradient id="_Radial5" cx="0" cy="0" r="1" gradientUnits="userSpaceOnUse" gradientTransform="matrix(-14.1732,1.73572e-15,-1.73572e-15,-14.1732,112.471,164.497)"><stop offset="0" style="stop-color:white;stop-opacity:1"/><stop offset="1" style="stop-color:rgb(169,169,169);stop-opacity:1"/></radialGradient>
        <radialGradient id="_Radial6" cx="0" cy="0" r="1" gradientUnits="userSpaceOnUse" gradientTransform="matrix(-14.1732,1.73572e-15,-1.73572e-15,-14.1732,112.471,267.115)"><stop offset="0" style="stop-color:white;stop-opacity:1"/><stop offset="1" style="stop-color:rgb(169,169,169);stop-opacity:1"/></radialGradient>
        <radialGradient id="_Radial7" cx="0" cy="0" r="1" gradientUnits="userSpaceOnUse" gradientTransform="matrix(-14.1732,1.73572e-15,-1.73572e-15,-14.1732,112.471,314.79)"><stop offset="0" style="stop-color:white;stop-opacity:1"/><stop offset="1" style="stop-color:rgb(169,169,169);stop-opacity:1"/></radialGradient>
        <radialGradient id="_Radial8" cx="0" cy="0" r="1" gradientUnits="userSpaceOnUse" gradientTransform="matrix(-14.1732,0.0112865,-0.0112865,-14.1732,24.3958,164.512)"><stop offset="0" style="stop-color:white;stop-opacity:1"/><stop offset="1" style="stop-color:rgb(169,169,169);stop-opacity:1"/></radialGradient>
        <radialGradient id="_Radial9" cx="0" cy="0" r="1" gradientUnits="userSpaceOnUse" gradientTransform="matrix(-14.1732,1.73572e-15,-1.73572e-15,-14.1732,23.6562,315.038)"><stop offset="0" style="stop-color:white;stop-opacity:1"/><stop offset="1" style="stop-color:rgb(169,169,169);stop-opacity:1"/></radialGradient>
        <radialGradient id="_Radial10" cx="0" cy="0" r="1" gradientUnits="userSpaceOnUse" gradientTransform="matrix(-14.1732,1.73572e-15,-1.73572e-15,-14.1732,24.378,267.927)"><stop offset="0" style="stop-color:white;stop-opacity:1"/><stop offset="1" style="stop-color:rgb(169,169,169);stop-opacity:1"/></radialGradient>
    </defs>
</svg>
