<?xml version="1.0" encoding="UTF-8" standalone="no"?>
<!DOCTYPE svg PUBLIC "-//W3C//DTD SVG 1.1//EN" "http://www.w3.org/Graphics/SVG/1.1/DTD/svg11.dtd">
<svg width="648px" height="365px" version="1.1" xmlns="http://www.w3.org/2000/svg" xmlns:xlink="http://www.w3.org/1999/xlink" xml:space="preserve" xmlns:serif="http://www.serif.com/" style="fill-rule:evenodd;clip-rule:evenodd;stroke-linecap:round;stroke-linejoin:round;stroke-miterlimit:1.5;">
    <g id="components">
    </g>
    <rect x="-0" y="0" width="648" height="364.252" style="fill:rgb(114,97,177);"/>
    <g>
        <path d="M11.368,363.862l-3.883,-10.021l1.436,-0l2.604,7.28c0.21,0.583 0.386,1.13 0.527,1.64c0.155,-0.546 0.335,-1.093 0.54,-1.64l2.707,-7.28l1.353,-0l-3.923,10.021l-1.361,0Z" style="fill-rule:nonzero;"/>
        <path d="M16.762,364.033l2.905,-10.363l0.984,-0l-2.898,10.363l-0.991,-0Z" style="fill-rule:nonzero;"/>
        <path d="M21.328,358.981c0,-1.663 0.447,-2.965 1.34,-3.907c0.893,-0.941 2.046,-1.411 3.459,-1.411c0.925,-0 1.759,0.221 2.502,0.663c0.743,0.442 1.309,1.058 1.699,1.849c0.389,0.791 0.584,1.687 0.584,2.69c0,1.016 -0.205,1.925 -0.615,2.727c-0.41,0.803 -0.991,1.41 -1.743,1.822c-0.752,0.413 -1.563,0.619 -2.434,0.619c-0.943,-0 -1.786,-0.228 -2.529,-0.684c-0.743,-0.455 -1.306,-1.077 -1.689,-1.866c-0.382,-0.788 -0.574,-1.622 -0.574,-2.502Zm1.367,0.021c0,1.207 0.325,2.159 0.974,2.854c0.65,0.695 1.464,1.042 2.444,1.042c0.998,0 1.82,-0.351 2.465,-1.053c0.645,-0.701 0.967,-1.697 0.967,-2.987c-0,-0.816 -0.138,-1.528 -0.414,-2.136c-0.275,-0.609 -0.679,-1.08 -1.21,-1.415c-0.531,-0.335 -1.126,-0.503 -1.787,-0.503c-0.939,0 -1.747,0.323 -2.424,0.968c-0.676,0.645 -1.015,1.721 -1.015,3.23Z" style="fill-rule:nonzero;"/>
        <path d="M39.772,360.348l1.326,0.335c-0.278,1.089 -0.778,1.92 -1.501,2.492c-0.722,0.572 -1.605,0.858 -2.649,0.858c-1.08,-0 -1.958,-0.22 -2.635,-0.66c-0.677,-0.44 -1.192,-1.076 -1.545,-1.91c-0.353,-0.834 -0.53,-1.73 -0.53,-2.687c0,-1.044 0.2,-1.954 0.598,-2.731c0.399,-0.777 0.967,-1.367 1.703,-1.77c0.736,-0.404 1.546,-0.605 2.43,-0.605c1.002,-0 1.845,0.255 2.529,0.765c0.684,0.511 1.16,1.228 1.429,2.154l-1.306,0.307c-0.232,-0.729 -0.57,-1.26 -1.012,-1.593c-0.442,-0.332 -0.998,-0.499 -1.668,-0.499c-0.77,0 -1.413,0.185 -1.931,0.554c-0.517,0.369 -0.88,0.865 -1.09,1.487c-0.21,0.622 -0.315,1.263 -0.315,1.924c0,0.852 0.125,1.596 0.373,2.232c0.248,0.636 0.635,1.111 1.159,1.425c0.524,0.315 1.091,0.472 1.702,0.472c0.743,0 1.372,-0.214 1.887,-0.642c0.515,-0.429 0.863,-1.065 1.046,-1.908Z" style="fill-rule:nonzero;"/>
        <path d="M45.281,363.862l0,-8.839l-3.301,0l-0,-1.182l7.943,-0l-0,1.182l-3.316,0l0,8.839l-1.326,0Z" style="fill-rule:nonzero;"/>
        <path d="M87.874,363.862l0,-10.021l1.996,-0l2.372,7.095c0.219,0.661 0.378,1.156 0.479,1.484c0.114,-0.365 0.291,-0.9 0.533,-1.607l2.399,-6.972l1.784,-0l0,10.021l-1.278,0l0,-8.388l-2.912,8.388l-1.196,0l-2.899,-8.531l0,8.531l-1.278,0Z" style="fill-rule:nonzero;"/>
        <path d="M98.962,360.232c-0,-1.344 0.374,-2.34 1.121,-2.987c0.624,-0.538 1.385,-0.807 2.283,-0.807c0.998,0 1.814,0.327 2.447,0.981c0.634,0.654 0.951,1.558 0.951,2.711c-0,0.934 -0.14,1.669 -0.421,2.204c-0.28,0.536 -0.688,0.952 -1.223,1.248c-0.536,0.296 -1.12,0.444 -1.754,0.444c-1.016,0 -1.838,-0.326 -2.464,-0.977c-0.627,-0.652 -0.94,-1.591 -0.94,-2.817Zm1.265,0c-0,0.93 0.202,1.626 0.608,2.089c0.406,0.462 0.916,0.693 1.531,0.693c0.611,0 1.119,-0.232 1.525,-0.697c0.405,-0.465 0.608,-1.173 0.608,-2.126c0,-0.898 -0.204,-1.578 -0.612,-2.04c-0.408,-0.463 -0.915,-0.694 -1.521,-0.694c-0.615,-0 -1.125,0.23 -1.531,0.69c-0.406,0.46 -0.608,1.155 -0.608,2.085Z" style="fill-rule:nonzero;"/>
        <path d="M111.916,363.862l0,-0.916c-0.46,0.72 -1.137,1.08 -2.03,1.08c-0.579,0 -1.111,-0.159 -1.596,-0.478c-0.486,-0.319 -0.862,-0.765 -1.128,-1.337c-0.267,-0.572 -0.4,-1.229 -0.4,-1.972c-0,-0.725 0.12,-1.382 0.362,-1.972c0.242,-0.59 0.604,-1.043 1.087,-1.357c0.483,-0.315 1.023,-0.472 1.62,-0.472c0.438,0 0.827,0.092 1.169,0.277c0.342,0.185 0.62,0.425 0.834,0.721l-0,-3.595l1.224,-0l-0,10.021l-1.142,0Zm-3.89,-3.623c0,0.93 0.196,1.625 0.588,2.085c0.392,0.46 0.855,0.69 1.388,0.69c0.538,0 0.995,-0.22 1.371,-0.659c0.376,-0.44 0.564,-1.111 0.564,-2.013c-0,-0.994 -0.192,-1.723 -0.575,-2.188c-0.383,-0.465 -0.854,-0.697 -1.415,-0.697c-0.547,-0 -1.003,0.223 -1.37,0.67c-0.367,0.446 -0.551,1.15 -0.551,2.112Z" style="fill-rule:nonzero;"/>
        <path d="M117.166,363.862l3.849,-10.021l1.428,-0l4.102,10.021l-1.511,0l-1.169,-3.035l-4.19,-0l-1.101,3.035l-1.408,0Zm2.892,-4.115l3.397,-0l-1.046,-2.776c-0.319,-0.843 -0.556,-1.535 -0.711,-2.078c-0.127,0.643 -0.307,1.281 -0.54,1.914l-1.1,2.94Z" style="fill-rule:nonzero;"/>
        <path d="M172.742,359.132c-0,-1.021 0.153,-1.878 0.458,-2.57c0.228,-0.511 0.539,-0.969 0.933,-1.374c0.394,-0.406 0.826,-0.707 1.295,-0.903c0.625,-0.264 1.345,-0.396 2.161,-0.396c1.476,-0 2.658,0.458 3.544,1.374c0.886,0.916 1.33,2.189 1.33,3.821c-0,1.618 -0.44,2.884 -1.32,3.797c-0.879,0.914 -2.055,1.371 -3.527,1.371c-1.49,-0 -2.675,-0.455 -3.555,-1.364c-0.879,-0.909 -1.319,-2.161 -1.319,-3.756Zm2.085,-0.069c-0,1.135 0.262,1.995 0.786,2.581c0.524,0.586 1.19,0.878 1.996,0.878c0.807,0 1.469,-0.29 1.986,-0.871c0.517,-0.581 0.776,-1.453 0.776,-2.615c-0,-1.148 -0.252,-2.005 -0.756,-2.57c-0.503,-0.565 -1.172,-0.848 -2.006,-0.848c-0.834,0 -1.506,0.286 -2.016,0.858c-0.511,0.572 -0.766,1.434 -0.766,2.587Z" style="fill-rule:nonzero;"/>
        <path d="M184.028,354.06l2.024,-0l-0,5.427c-0,0.862 0.025,1.42 0.075,1.675c0.086,0.41 0.293,0.74 0.618,0.988c0.326,0.248 0.772,0.372 1.337,0.372c0.574,0 1.007,-0.117 1.299,-0.352c0.291,-0.234 0.467,-0.523 0.526,-0.864c0.059,-0.342 0.089,-0.91 0.089,-1.702l-0,-5.544l2.023,-0l0,5.263c0,1.203 -0.054,2.053 -0.164,2.55c-0.109,0.497 -0.311,0.916 -0.605,1.258c-0.294,0.342 -0.687,0.614 -1.179,0.817c-0.492,0.203 -1.135,0.304 -1.928,0.304c-0.957,-0 -1.682,-0.111 -2.177,-0.332c-0.494,-0.221 -0.885,-0.508 -1.172,-0.861c-0.287,-0.353 -0.477,-0.723 -0.568,-1.111c-0.132,-0.574 -0.198,-1.422 -0.198,-2.543l0,-5.345Z" style="fill-rule:nonzero;"/>
        <path d="M196.408,364.081l-0,-8.326l-2.974,-0l0,-1.695l7.964,-0l0,1.695l-2.967,-0l0,8.326l-2.023,0Z" style="fill-rule:nonzero;"/>
    </g>
    <path id="title" d="M18.246,42.726l-0,-29.949l10.441,-0c3.643,-0 6.243,0.61 7.801,1.831c1.559,1.221 2.338,3.262 2.338,6.122c-0,3.237 -1.042,5.757 -3.127,7.558c-2.084,1.801 -5.001,2.701 -8.752,2.701l-2.59,0l-0,11.737l-6.111,0Zm6.111,-15.844l1.214,-0c2.132,-0 3.815,-0.496 5.049,-1.488c1.234,-0.991 1.852,-2.337 1.852,-4.037c-0,-2.981 -1.896,-4.472 -5.687,-4.472l-2.428,-0l-0,9.997Z" style="fill:white;fill-rule:nonzero;"/>
    <path d="M43.662,42.726l0,-22.219l5.99,0l0,4.189c1.552,-3.13 3.912,-4.695 7.083,-4.695c0.377,0 0.748,0.041 1.113,0.122l-0,5.342c-0.85,-0.31 -1.639,-0.465 -2.368,-0.465c-2.388,-0 -4.33,1.207 -5.828,3.622l0,14.104l-5.99,0Z" style="fill:white;fill-rule:nonzero;"/>
    <path d="M62.502,42.726l0,-22.219l5.99,0l-0,22.219l-5.99,0Zm0,-25.963l0,-4.998l5.99,0l-0,4.998l-5.99,0Z" style="fill:white;fill-rule:nonzero;"/>
    <path d="M74.725,42.726l-0,-3.986l12.425,-14.489l-11.859,-0l0,-3.744l18.941,0l0,3.744l-12.425,14.489l12.668,-0l0,3.986l-19.75,0Z" style="fill:white;fill-rule:nonzero;"/>
    <path d="M100.465,42.726l0,-22.219l5.747,0l0,4.189c1.754,-3.13 4.25,-4.695 7.487,-4.695c1.673,0 3.049,0.412 4.129,1.235c1.079,0.823 1.74,1.976 1.983,3.46c2.077,-3.13 4.587,-4.695 7.528,-4.695c4.06,0 6.091,2.24 6.091,6.719l-0,16.006l-5.747,0l-0,-14.043c-0,-2.631 -0.877,-3.947 -2.631,-3.947c-1.794,0 -3.541,1.296 -5.241,3.886l-0,14.104l-5.747,0l-0,-14.043c-0,-2.645 -0.884,-3.967 -2.651,-3.967c-1.768,0 -3.501,1.302 -5.201,3.906l0,14.104l-5.747,0Z" style="fill:white;fill-rule:nonzero;"/>
    <g>
        <path d="M74.567,219.853l88.816,0l-88.816,0Z" style="fill:none;stroke:rgb(39,255,0);stroke-width:1px;"/>
        <path d="M74.567,135.826l0,84.027l88.816,0l-0,-83.961l-88.816,-0.066Z" style="fill:none;stroke:rgb(39,255,0);stroke-width:1px;"/>
        <g>
            <path d="M52.617,244.475l88.816,-0l-88.816,-0Z" style="fill:none;stroke:rgb(39,255,0);stroke-width:1px;"/>
            <path d="M52.617,160.448l0,84.027l88.816,-0l-0,-83.961l-88.816,-0.066Z" style="fill:none;stroke:rgb(39,255,0);stroke-width:1px;"/>
        </g>
        <path d="M52.617,160.448l21.95,-24.622l88.816,0l-21.95,24.622l-0,84.027l21.95,-24.622l-88.816,0l-21.95,24.622" style="fill:none;stroke:rgb(39,255,0);stroke-width:1px;"/>
    </g>
    <rect x="-0" y="98.722" width="70.987" height="25.512" style="fill:rgb(114,97,177);"/>
    <rect x="145.013" y="98.722" width="70.987" height="25.512" style="fill:rgb(114,97,177);"/>
    <rect x="-0" y="263.682" width="70.987" height="25.512" style="fill:rgb(114,97,177);"/>
    <rect x="145.013" y="263.682" width="70.987" height="25.512" style="fill:rgb(114,97,177);"/>
    <circle cx="185.669" cy="335.426" r="12.756" style="fill:rgb(114,97,177);"/>
</svg>
