<?xml version="1.0" encoding="UTF-8" standalone="no"?>
<!DOCTYPE svg PUBLIC "-//W3C//DTD SVG 1.1//EN" "http://www.w3.org/Graphics/SVG/1.1/DTD/svg11.dtd">
<svg width="504px" height="365px" version="1.1" xmlns="http://www.w3.org/2000/svg" xmlns:xlink="http://www.w3.org/1999/xlink" xml:space="preserve" xmlns:serif="http://www.serif.com/" style="fill-rule:evenodd;clip-rule:evenodd;stroke-linecap:round;stroke-linejoin:round;stroke-miterlimit:1.5;">
    <rect id="BG" x="0" y="0" width="504" height="364.252" style="fill:rgb(114,97,177);"/>
    <g id="components">
    </g>
    <g id="Controls">
        <g id="Master">
            <rect id="BG1" serif:id="BG" x="116.302" y="319.027" width="120.267" height="45.225" style="fill:rgb(99,81,164);"/>
            <path d="M135.934,350.941l-3.183,8.268l-1.363,-0l-3.189,-8.268l1.19,0l2.677,7.154l2.691,-7.154l1.177,0Z" style="fill:white;fill-rule:nonzero;"/>
            <path d="M143.08,350.783l-4.241,8.584l-1.017,-0l4.22,-8.584l1.038,-0Z" style="fill:white;fill-rule:nonzero;"/>
            <path d="M149.071,350.783c1.093,-0 1.926,0.366 2.501,1.099c0.574,0.732 0.861,1.797 0.861,3.196c-0,1.39 -0.286,2.453 -0.858,3.187c-0.572,0.735 -1.407,1.102 -2.504,1.102c-1.089,-0 -1.92,-0.366 -2.494,-1.099c-0.574,-0.732 -0.861,-1.796 -0.861,-3.19c-0,-1.395 0.285,-2.459 0.857,-3.194c0.572,-0.734 1.405,-1.101 2.498,-1.101Zm-0,7.74c1.439,0 2.158,-1.148 2.158,-3.445c0,-2.301 -0.719,-3.451 -2.158,-3.451c-0.701,-0 -1.235,0.297 -1.602,0.893c-0.366,0.596 -0.55,1.448 -0.55,2.558c0,1.121 0.182,1.975 0.547,2.563c0.364,0.588 0.899,0.882 1.605,0.882Z" style="fill:white;fill-rule:nonzero;"/>
            <path d="M160.748,358.693c-0.765,0.449 -1.653,0.674 -2.663,0.674c-1.264,-0 -2.224,-0.367 -2.881,-1.102c-0.658,-0.734 -0.986,-1.797 -0.986,-3.187c-0,-1.344 0.318,-2.396 0.954,-3.155c0.637,-0.76 1.608,-1.14 2.913,-1.14c0.47,-0 0.936,0.051 1.397,0.152c0.461,0.102 0.833,0.237 1.114,0.405l-0.373,0.755c-0.651,-0.312 -1.363,-0.468 -2.138,-0.468c-0.899,-0 -1.568,0.276 -2.006,0.829c-0.438,0.552 -0.658,1.427 -0.658,2.622c0,2.297 0.888,3.445 2.664,3.445c0.752,0 1.522,-0.195 2.31,-0.586l0.353,0.756Z" style="fill:white;fill-rule:nonzero;"/>
            <path d="M169.679,351.72l-3.009,0l0,7.489l-1.128,-0l0,-7.489l-3.023,0l0,-0.779l7.16,0l0,0.779Z" style="fill:white;fill-rule:nonzero;"/>
            <path d="M201.197,350.783c1.093,-0 1.927,0.366 2.501,1.099c0.574,0.732 0.861,1.797 0.861,3.196c0,1.39 -0.285,2.453 -0.857,3.187c-0.572,0.735 -1.407,1.102 -2.505,1.102c-1.088,-0 -1.919,-0.366 -2.494,-1.099c-0.574,-0.732 -0.861,-1.796 -0.861,-3.19c0,-1.395 0.286,-2.459 0.858,-3.194c0.572,-0.734 1.404,-1.101 2.497,-1.101Zm0,7.74c1.439,0 2.159,-1.148 2.159,-3.445c-0,-2.301 -0.72,-3.451 -2.159,-3.451c-0.701,-0 -1.235,0.297 -1.601,0.893c-0.367,0.596 -0.55,1.448 -0.55,2.558c-0,1.121 0.182,1.975 0.546,2.563c0.365,0.588 0.9,0.882 1.605,0.882Z" style="fill:white;fill-rule:nonzero;"/>
            <path d="M212.522,356.607c0,0.957 -0.229,1.656 -0.688,2.098c-0.459,0.441 -1.157,0.662 -2.093,0.662c-1.886,-0 -2.829,-0.912 -2.829,-2.736l-0,-5.69l1.134,0l0,5.602c0,1.32 0.565,1.98 1.695,1.98c0.567,0 0.984,-0.156 1.249,-0.469c0.265,-0.312 0.398,-0.82 0.398,-1.523l-0,-5.59l1.134,0l0,5.666Z" style="fill:white;fill-rule:nonzero;"/>
            <path d="M221.806,351.72l-3.009,0l-0,7.489l-1.128,-0l0,-7.489l-3.023,0l-0,-0.779l7.16,0l-0,0.779Z" style="fill:white;fill-rule:nonzero;"/>
        </g>
        <path d="M408.361,94.945l-0.617,0l-0,-4.726l-0.832,2.261l-0.606,0l-0.832,-2.261l0,4.726l-0.617,0l0,-5.511l0.832,-0l0.922,2.511l0.918,-2.511l0.832,-0l0,5.511Z" style="fill:white;fill-rule:nonzero;"/>
        <path d="M411.385,90.777c0.56,0 1.005,0.196 1.336,0.586c0.33,0.391 0.496,0.905 0.496,1.543c-0,0.643 -0.166,1.162 -0.496,1.555c-0.331,0.393 -0.776,0.59 -1.336,0.59c-0.563,-0 -1.009,-0.196 -1.338,-0.588c-0.33,-0.392 -0.494,-0.911 -0.494,-1.557c-0,-0.64 0.165,-1.155 0.496,-1.545c0.33,-0.389 0.776,-0.584 1.336,-0.584Zm-0,3.743c0.369,-0 0.661,-0.157 0.875,-0.469c0.213,-0.313 0.32,-0.692 0.32,-1.137c-0,-0.469 -0.106,-0.854 -0.316,-1.156c-0.211,-0.302 -0.504,-0.453 -0.879,-0.453c-0.378,-0 -0.671,0.149 -0.879,0.447c-0.209,0.298 -0.313,0.685 -0.313,1.162c0,0.453 0.106,0.834 0.317,1.143c0.211,0.308 0.502,0.463 0.875,0.463Z" style="fill:white;fill-rule:nonzero;"/>
        <path d="M417.826,90.984l-0.246,0.586c-0.268,-0.117 -0.5,-0.175 -0.695,-0.175c-0.18,-0 -0.356,0.051 -0.528,0.154c-0.172,0.103 -0.33,0.25 -0.474,0.441c-0.145,0.192 -0.217,0.299 -0.217,0.322l-0,2.633l-0.606,0l0,-4.07l0.606,-0l-0,0.824c0.325,-0.614 0.747,-0.922 1.265,-0.922c0.308,0 0.606,0.069 0.895,0.207Z" style="fill:white;fill-rule:nonzero;"/>
        <path d="M420.037,91.402c0.135,-0.187 0.318,-0.338 0.549,-0.453c0.23,-0.114 0.473,-0.172 0.728,-0.172c0.469,0 0.837,0.194 1.104,0.58c0.267,0.387 0.4,0.89 0.4,1.51c0,0.625 -0.14,1.145 -0.42,1.561c-0.28,0.415 -0.657,0.623 -1.131,0.623c-0.252,-0 -0.488,-0.063 -0.709,-0.19c-0.22,-0.126 -0.393,-0.293 -0.521,-0.502l-0,2.196l-0.609,-0l-0,-5.68l0.609,-0l-0,0.527Zm-0,0.606l-0,1.691c0.115,0.229 0.269,0.421 0.465,0.574c0.195,0.154 0.397,0.231 0.605,0.231c0.328,-0 0.589,-0.154 0.783,-0.461c0.194,-0.307 0.291,-0.689 0.291,-1.145c0,-0.468 -0.092,-0.851 -0.277,-1.148c-0.185,-0.297 -0.443,-0.445 -0.773,-0.445c-0.43,-0 -0.795,0.234 -1.094,0.703Z" style="fill:white;fill-rule:nonzero;"/>
        <path d="M427.365,94.945l-0.609,0l-0,-2.609c-0,-0.362 -0.058,-0.624 -0.174,-0.787c-0.116,-0.163 -0.298,-0.244 -0.545,-0.244c-0.372,-0 -0.772,0.231 -1.199,0.695l-0,2.945l-0.61,0l0,-5.511l0.61,-0l-0,2.039c0.437,-0.464 0.898,-0.696 1.383,-0.696c0.763,0 1.144,0.461 1.144,1.383l0,2.785Z" style="fill:white;fill-rule:nonzero;"/>
        <path d="M410.789,178.546l-0.617,0l-0,-4.727l-0.832,2.262l-0.606,0l-0.832,-2.262l0,4.727l-0.617,0l0,-5.512l0.832,0l0.922,2.512l0.918,-2.512l0.832,0l-0,5.512Z" style="fill:white;fill-rule:nonzero;"/>
        <path d="M415.492,178.546l-0.605,0c-0.05,-0.164 -0.075,-0.383 -0.075,-0.656c-0.346,0.508 -0.817,0.762 -1.414,0.762c-0.302,-0 -0.568,-0.108 -0.799,-0.323c-0.23,-0.215 -0.345,-0.491 -0.345,-0.83c-0,-0.2 0.04,-0.377 0.121,-0.531c0.081,-0.154 0.199,-0.283 0.355,-0.389c0.157,-0.105 0.347,-0.189 0.571,-0.25c0.224,-0.061 0.489,-0.103 0.797,-0.127l0.683,-0.054l0,-0.196c0,-0.698 -0.325,-1.047 -0.976,-1.047c-0.154,0 -0.349,0.034 -0.584,0.1c-0.236,0.066 -0.439,0.145 -0.608,0.236l-0.16,-0.437c0.555,-0.284 1.07,-0.426 1.547,-0.426c0.927,0 1.39,0.491 1.39,1.473l0,1.75c0,0.354 0.034,0.669 0.102,0.945Zm-0.711,-1.207l0,-0.738c-0.549,0.049 -0.926,0.095 -1.131,0.138c-0.204,0.043 -0.381,0.123 -0.531,0.241c-0.15,0.117 -0.225,0.276 -0.225,0.476c0,0.182 0.064,0.33 0.192,0.442c0.127,0.112 0.29,0.168 0.488,0.168c0.216,-0 0.431,-0.065 0.645,-0.194c0.213,-0.129 0.401,-0.306 0.562,-0.533Z" style="fill:white;fill-rule:nonzero;"/>
        <path d="M419.765,175.058c-0.341,-0.112 -0.662,-0.168 -0.964,-0.168c-0.331,-0 -0.593,0.055 -0.786,0.166c-0.192,0.11 -0.289,0.258 -0.289,0.443c0,0.117 0.045,0.22 0.133,0.307c0.089,0.087 0.266,0.168 0.531,0.244l0.583,0.168c0.268,0.075 0.486,0.166 0.656,0.271c0.169,0.106 0.296,0.233 0.381,0.383c0.084,0.15 0.127,0.324 0.127,0.522c-0,0.388 -0.163,0.694 -0.489,0.92c-0.325,0.225 -0.739,0.338 -1.242,0.338c-0.5,-0 -0.913,-0.076 -1.238,-0.227l0.117,-0.527c0.341,0.161 0.707,0.242 1.098,0.242c0.338,-0 0.614,-0.063 0.826,-0.19c0.212,-0.126 0.318,-0.293 0.318,-0.502c0,-0.14 -0.053,-0.266 -0.158,-0.377c-0.105,-0.11 -0.354,-0.225 -0.744,-0.345c-0.315,-0.097 -0.547,-0.169 -0.695,-0.217c-0.149,-0.048 -0.287,-0.119 -0.415,-0.213c-0.127,-0.094 -0.224,-0.206 -0.291,-0.336c-0.066,-0.13 -0.099,-0.276 -0.099,-0.437c-0,-0.352 0.154,-0.631 0.461,-0.836c0.307,-0.206 0.715,-0.309 1.222,-0.309c0.329,0 0.693,0.056 1.094,0.168l-0.137,0.512Z" style="fill:white;fill-rule:nonzero;"/>
        <path d="M424.566,175.058c-0.341,-0.112 -0.662,-0.168 -0.965,-0.168c-0.33,-0 -0.592,0.055 -0.785,0.166c-0.192,0.11 -0.289,0.258 -0.289,0.443c0,0.117 0.044,0.22 0.133,0.307c0.089,0.087 0.266,0.168 0.531,0.244l0.582,0.168c0.269,0.075 0.487,0.166 0.657,0.271c0.169,0.106 0.296,0.233 0.38,0.383c0.085,0.15 0.127,0.324 0.127,0.522c0,0.388 -0.162,0.694 -0.488,0.92c-0.325,0.225 -0.74,0.338 -1.242,0.338c-0.5,-0 -0.913,-0.076 -1.238,-0.227l0.117,-0.527c0.341,0.161 0.707,0.242 1.097,0.242c0.339,-0 0.614,-0.063 0.827,-0.19c0.212,-0.126 0.318,-0.293 0.318,-0.502c-0,-0.14 -0.053,-0.266 -0.158,-0.377c-0.106,-0.11 -0.354,-0.225 -0.744,-0.345c-0.315,-0.097 -0.547,-0.169 -0.696,-0.217c-0.148,-0.048 -0.286,-0.119 -0.414,-0.213c-0.127,-0.094 -0.224,-0.206 -0.291,-0.336c-0.066,-0.13 -0.099,-0.276 -0.099,-0.437c-0,-0.352 0.153,-0.631 0.461,-0.836c0.307,-0.206 0.714,-0.309 1.222,-0.309c0.328,0 0.693,0.056 1.094,0.168l-0.137,0.512Z" style="fill:white;fill-rule:nonzero;"/>
        <path d="M405.252,263.723c-0.328,-0.112 -0.64,-0.168 -0.934,-0.168c-0.333,-0 -0.605,0.076 -0.814,0.228c-0.21,0.153 -0.315,0.369 -0.315,0.651c0,0.333 0.275,0.626 0.825,0.879c0.406,0.187 0.675,0.317 0.806,0.39c0.132,0.073 0.265,0.173 0.401,0.301c0.135,0.128 0.244,0.278 0.326,0.451c0.082,0.173 0.123,0.368 0.123,0.584c-0,0.537 -0.181,0.953 -0.541,1.248c-0.361,0.296 -0.786,0.444 -1.276,0.444c-0.474,-0 -0.889,-0.094 -1.246,-0.282l0.133,-0.55c0.419,0.19 0.785,0.285 1.098,0.285c0.364,-0 0.657,-0.095 0.877,-0.283c0.22,-0.189 0.33,-0.449 0.33,-0.78c-0,-0.245 -0.072,-0.452 -0.215,-0.623c-0.143,-0.17 -0.408,-0.344 -0.793,-0.521c-0.396,-0.183 -0.652,-0.307 -0.768,-0.373c-0.115,-0.067 -0.231,-0.159 -0.345,-0.276c-0.115,-0.117 -0.203,-0.248 -0.266,-0.394c-0.062,-0.146 -0.094,-0.305 -0.094,-0.477c0,-0.456 0.164,-0.811 0.492,-1.066c0.329,-0.255 0.744,-0.383 1.247,-0.383c0.367,-0 0.731,0.056 1.093,0.168l-0.144,0.547Z" style="fill:white;fill-rule:nonzero;"/>
        <path d="M410.775,268.625l-0.609,0l-0,-2.672c-0,-0.646 -0.12,-0.968 -0.36,-0.968c-0.122,-0 -0.257,0.111 -0.404,0.333c-0.147,0.223 -0.221,0.346 -0.221,0.37l0,2.937l-0.605,0l0,-2.672c0,-0.646 -0.121,-0.968 -0.363,-0.968c-0.12,-0 -0.254,0.111 -0.401,0.333c-0.147,0.223 -0.22,0.346 -0.22,0.37l-0,2.937l-0.61,0l0,-4.07l0.586,-0l0,0.613c0.115,-0.216 0.251,-0.389 0.408,-0.517c0.158,-0.129 0.315,-0.194 0.471,-0.194c0.164,0 0.311,0.065 0.442,0.194c0.13,0.128 0.22,0.301 0.269,0.517c0.115,-0.216 0.251,-0.389 0.41,-0.517c0.159,-0.129 0.315,-0.194 0.469,-0.194c0.492,0 0.738,0.44 0.738,1.32l0,2.848Z" style="fill:white;fill-rule:nonzero;"/>
        <path d="M413.678,264.457c0.559,0 1.005,0.195 1.336,0.586c0.33,0.391 0.496,0.905 0.496,1.543c-0,0.643 -0.166,1.162 -0.496,1.555c-0.331,0.393 -0.777,0.59 -1.336,0.59c-0.563,-0 -1.009,-0.196 -1.338,-0.588c-0.33,-0.392 -0.494,-0.911 -0.494,-1.557c-0,-0.641 0.165,-1.156 0.496,-1.545c0.33,-0.389 0.776,-0.584 1.336,-0.584Zm-0,3.742c0.369,0 0.661,-0.156 0.875,-0.468c0.213,-0.313 0.32,-0.692 0.32,-1.137c-0,-0.469 -0.106,-0.854 -0.317,-1.156c-0.21,-0.302 -0.503,-0.453 -0.878,-0.453c-0.378,-0 -0.671,0.149 -0.879,0.447c-0.209,0.298 -0.313,0.685 -0.313,1.162c0,0.453 0.106,0.834 0.317,1.142c0.211,0.309 0.502,0.463 0.875,0.463Z" style="fill:white;fill-rule:nonzero;"/>
        <path d="M418.478,264.457c0.56,0 1.006,0.195 1.336,0.586c0.331,0.391 0.496,0.905 0.496,1.543c0,0.643 -0.165,1.162 -0.496,1.555c-0.33,0.393 -0.776,0.59 -1.336,0.59c-0.562,-0 -1.008,-0.196 -1.338,-0.588c-0.329,-0.392 -0.494,-0.911 -0.494,-1.557c0,-0.641 0.166,-1.156 0.496,-1.545c0.331,-0.389 0.776,-0.584 1.336,-0.584Zm0,3.742c0.37,0 0.662,-0.156 0.875,-0.468c0.214,-0.313 0.321,-0.692 0.321,-1.137c-0,-0.469 -0.106,-0.854 -0.317,-1.156c-0.211,-0.302 -0.504,-0.453 -0.879,-0.453c-0.377,-0 -0.67,0.149 -0.879,0.447c-0.208,0.298 -0.312,0.685 -0.312,1.162c-0,0.453 0.105,0.834 0.316,1.142c0.211,0.309 0.503,0.463 0.875,0.463Z" style="fill:white;fill-rule:nonzero;"/>
        <path d="M424.896,268.442c-0.409,0.187 -0.811,0.281 -1.207,0.281c-0.726,-0 -1.09,-0.384 -1.09,-1.153l0,-2.488l-0.781,0l0,-0.527l0.781,-0l0,-1.113l0.594,-0l0,1.113l1.383,-0l0,0.527l-1.383,0l0,2.328c0,0.248 0.055,0.44 0.164,0.576c0.11,0.137 0.258,0.206 0.446,0.206c0.333,-0 0.662,-0.075 0.988,-0.223l0.105,0.473Z" style="fill:white;fill-rule:nonzero;"/>
        <path d="M429.658,268.625l-0.609,0l-0,-2.609c-0,-0.362 -0.058,-0.625 -0.174,-0.787c-0.116,-0.163 -0.298,-0.244 -0.545,-0.244c-0.372,-0 -0.772,0.231 -1.199,0.695l-0,2.945l-0.61,0l0,-5.512l0.61,0l-0,2.039c0.437,-0.463 0.898,-0.695 1.383,-0.695c0.763,0 1.144,0.461 1.144,1.383l0,2.785Z" style="fill:white;fill-rule:nonzero;"/>
    </g>
    <g id="Title">
        <path id="Title-Back" serif:id="Title Back" d="M1.118,56.014l-0,-29.95l10.442,0c3.642,0 6.243,0.611 7.801,1.832c1.558,1.221 2.337,3.261 2.337,6.121c0,3.238 -1.042,5.757 -3.126,7.558c-2.085,1.801 -5.002,2.702 -8.752,2.702l-2.591,-0l0,11.737l-6.111,-0Zm6.111,-15.845l1.214,-0c2.132,-0 3.815,-0.496 5.049,-1.488c1.235,-0.991 1.852,-2.337 1.852,-4.037c-0,-2.981 -1.895,-4.472 -5.686,-4.472l-2.429,0l0,9.997Z" style="fill:rgb(46,43,43);fill-rule:nonzero;"/>
        <path d="M26.535,56.014l-0,-22.22l5.989,0l0,4.189c1.552,-3.13 3.913,-4.694 7.083,-4.694c0.378,-0 0.749,0.04 1.113,0.121l0,5.342c-0.85,-0.31 -1.639,-0.465 -2.368,-0.465c-2.387,-0 -4.33,1.207 -5.828,3.622l0,14.105l-5.989,-0Z" style="fill:rgb(46,43,43);fill-rule:nonzero;"/>
        <path d="M45.374,56.014l0,-22.22l5.99,0l0,22.22l-5.99,-0Zm0,-25.963l0,-4.999l5.99,0l0,4.999l-5.99,-0Z" style="fill:rgb(46,43,43);fill-rule:nonzero;"/>
        <path d="M57.597,56.014l0,-3.987l12.425,-14.489l-11.858,0l-0,-3.744l18.941,0l-0,3.744l-12.425,14.489l12.668,0l-0,3.987l-19.751,-0Z" style="fill:rgb(46,43,43);fill-rule:nonzero;"/>
        <path d="M83.337,56.014l0,-22.22l5.748,0l-0,4.189c1.753,-3.13 4.249,-4.694 7.487,-4.694c1.673,-0 3.049,0.411 4.128,1.234c1.079,0.823 1.74,1.976 1.983,3.46c2.078,-3.13 4.587,-4.694 7.528,-4.694c4.061,-0 6.091,2.239 6.091,6.718l0,16.007l-5.747,-0l0,-14.044c0,-2.631 -0.877,-3.946 -2.631,-3.946c-1.794,-0 -3.541,1.295 -5.241,3.885l0,14.105l-5.747,-0l0,-14.044c0,-2.644 -0.884,-3.966 -2.651,-3.966c-1.767,-0 -3.501,1.301 -5.2,3.905l-0,14.105l-5.748,-0Z" style="fill:rgb(46,43,43);fill-rule:nonzero;"/>
        <path id="Title1" serif:id="Title" d="M1.118,53.772l-0,-29.95l10.442,0c3.642,0 6.243,0.611 7.801,1.832c1.558,1.22 2.337,3.261 2.337,6.121c0,3.238 -1.042,5.757 -3.126,7.558c-2.085,1.801 -5.002,2.702 -8.752,2.702l-2.591,-0l0,11.737l-6.111,-0Zm6.111,-15.845l1.214,-0c2.132,-0 3.815,-0.496 5.049,-1.488c1.235,-0.991 1.852,-2.337 1.852,-4.037c-0,-2.981 -1.895,-4.472 -5.686,-4.472l-2.429,0l0,9.997Z" style="fill:rgb(245,134,134);fill-rule:nonzero;"/>
        <path d="M26.535,53.772l-0,-22.22l5.989,0l0,4.189c1.552,-3.13 3.913,-4.695 7.083,-4.695c0.378,0 0.749,0.041 1.113,0.122l0,5.342c-0.85,-0.31 -1.639,-0.465 -2.368,-0.465c-2.387,-0 -4.33,1.207 -5.828,3.622l0,14.105l-5.989,-0Z" style="fill:rgb(245,134,134);fill-rule:nonzero;"/>
        <path d="M45.374,53.772l0,-22.22l5.99,0l0,22.22l-5.99,-0Zm0,-25.963l0,-4.999l5.99,0l0,4.999l-5.99,-0Z" style="fill:rgb(245,134,134);fill-rule:nonzero;"/>
        <path d="M57.597,53.772l0,-3.987l12.425,-14.489l-11.858,0l-0,-3.744l18.941,0l-0,3.744l-12.425,14.489l12.668,0l-0,3.987l-19.751,-0Z" style="fill:rgb(245,134,134);fill-rule:nonzero;"/>
        <path d="M83.337,53.772l0,-22.22l5.748,0l-0,4.189c1.753,-3.13 4.249,-4.695 7.487,-4.695c1.673,0 3.049,0.412 4.128,1.235c1.079,0.823 1.74,1.976 1.983,3.46c2.078,-3.13 4.587,-4.695 7.528,-4.695c4.061,0 6.091,2.24 6.091,6.719l0,16.007l-5.747,-0l0,-14.044c0,-2.631 -0.877,-3.946 -2.631,-3.946c-1.794,-0 -3.541,1.295 -5.241,3.885l0,14.105l-5.747,-0l0,-14.044c0,-2.644 -0.884,-3.966 -2.651,-3.966c-1.767,-0 -3.501,1.301 -5.2,3.905l-0,14.105l-5.748,-0Z" style="fill:rgb(245,134,134);fill-rule:nonzero;"/>
    </g>
    <g id="Box">
        <path d="M155.977,213.228l64.938,0l-64.938,0Z" style="fill:none;stroke:rgb(39,255,0);stroke-width:1px;"/>
        <path d="M155.977,151.792l-0,61.436l64.938,0l-0,-61.388l-64.938,-0.048Z" style="fill:none;stroke:rgb(39,255,0);stroke-width:1px;"/>
        <g>
            <path d="M139.928,231.23l64.938,0l-64.938,0Z" style="fill:none;stroke:rgb(39,255,0);stroke-width:1px;"/>
            <path d="M139.928,169.794l0,61.436l64.938,0l0,-61.388l-64.938,-0.048Z" style="fill:none;stroke:rgb(39,255,0);stroke-width:1px;"/>
        </g>
        <path d="M139.928,169.794l16.049,-18.002l64.938,-0l-16.049,18.002l0,61.436l16.049,-18.002l-64.938,0l-16.049,18.002" style="fill:none;stroke:rgb(39,255,0);stroke-width:1px;"/>
    </g>
    <g id="Oscillators">
        <g id="OSC-A" serif:id="OSC A">
            <rect id="BG2" serif:id="BG" x="1.118" y="75.244" width="115.184" height="128.773" style="fill:rgb(99,81,164);"/>
            <path id="Label" d="M16.826,98.329l-1.485,0l-1.346,-4.797l-3.996,0l-1.363,4.797l-1.467,0l3.978,-13.701l1.7,-0l3.979,13.701Zm-3.237,-6.185l-1.596,-5.671l-1.588,5.671l3.184,-0Z" style="fill:white;fill-rule:nonzero;"/>
            <path d="M9.836,145.681l-2.827,-0l-0,-0.661l1.071,0l0,-5.198l-1.071,0l-0,-0.661l2.827,0l-0,0.661l-1.032,0l-0,5.198l1.032,0l-0,0.661Z" style="fill:white;fill-rule:nonzero;"/>
            <path d="M15.653,145.681l-0.688,-0l-0,-3.087c-0,-0.428 -0.066,-0.738 -0.196,-0.931c-0.131,-0.192 -0.336,-0.288 -0.616,-0.288c-0.42,-0 -0.871,0.274 -1.354,0.822l0,3.484l-0.688,-0l0,-4.815l0.688,0l0,0.707c0.494,-0.548 1.015,-0.822 1.562,-0.822c0.861,-0 1.292,0.545 1.292,1.635l-0,3.295Z" style="fill:white;fill-rule:nonzero;"/>
            <path d="M21.117,145.464c-0.461,0.221 -0.916,0.332 -1.363,0.332c-0.82,0 -1.23,-0.454 -1.23,-1.363l-0,-2.943l-0.882,0l-0,-0.624l0.882,0l-0,-1.316l0.67,-0l0,1.316l1.562,0l-0,0.624l-1.562,0l0,2.754c0,0.293 0.062,0.52 0.186,0.681c0.123,0.162 0.291,0.243 0.502,0.243c0.377,-0 0.749,-0.088 1.116,-0.263l0.119,0.559Z" style="fill:white;fill-rule:nonzero;"/>
            <path d="M26.63,143.297l-3.153,-0c-0,0.545 0.15,0.995 0.452,1.349c0.301,0.354 0.671,0.531 1.109,0.531c0.417,0 0.848,-0.078 1.292,-0.235l0.119,0.577c-0.406,0.191 -0.879,0.287 -1.42,0.287c-0.682,-0 -1.232,-0.23 -1.649,-0.689c-0.418,-0.459 -0.627,-1.078 -0.627,-1.857c0,-0.764 0.188,-1.373 0.563,-1.828c0.375,-0.454 0.859,-0.681 1.453,-0.681c0.529,-0 0.972,0.211 1.327,0.633c0.356,0.422 0.534,0.984 0.534,1.686l0,0.227Zm-0.75,-0.587c0,-0.376 -0.111,-0.692 -0.335,-0.95c-0.223,-0.257 -0.473,-0.385 -0.75,-0.385c-0.355,-0 -0.65,0.123 -0.884,0.369c-0.234,0.247 -0.364,0.569 -0.39,0.966l2.359,-0Z" style="fill:white;fill-rule:nonzero;"/>
            <path d="M31.914,145.681l-0.688,-0l-0,-3.087c-0,-0.428 -0.066,-0.738 -0.197,-0.931c-0.13,-0.192 -0.336,-0.288 -0.615,-0.288c-0.42,-0 -0.872,0.274 -1.354,0.822l0,3.484l-0.688,-0l0,-4.815l0.688,0l0,0.707c0.494,-0.548 1.015,-0.822 1.561,-0.822c0.862,-0 1.293,0.545 1.293,1.635l-0,3.295Z" style="fill:white;fill-rule:nonzero;"/>
            <path d="M36.853,141.555c-0.385,-0.133 -0.748,-0.199 -1.089,-0.199c-0.374,0 -0.669,0.066 -0.887,0.196c-0.217,0.131 -0.326,0.306 -0.326,0.525c0,0.139 0.05,0.259 0.15,0.363c0.1,0.103 0.3,0.199 0.6,0.288l0.657,0.199c0.303,0.089 0.55,0.196 0.741,0.321c0.191,0.125 0.334,0.276 0.43,0.453c0.095,0.177 0.143,0.383 0.143,0.617c0,0.459 -0.184,0.822 -0.551,1.088c-0.368,0.266 -0.835,0.4 -1.403,0.4c-0.564,-0 -1.03,-0.09 -1.398,-0.268l0.133,-0.624c0.385,0.191 0.798,0.286 1.239,0.286c0.382,0 0.693,-0.074 0.933,-0.224c0.239,-0.149 0.359,-0.347 0.359,-0.593c0,-0.167 -0.059,-0.315 -0.178,-0.446c-0.12,-0.131 -0.4,-0.268 -0.841,-0.409c-0.355,-0.114 -0.617,-0.2 -0.785,-0.257c-0.167,-0.057 -0.323,-0.141 -0.467,-0.252c-0.144,-0.11 -0.254,-0.243 -0.329,-0.397c-0.075,-0.154 -0.112,-0.326 -0.112,-0.517c-0,-0.416 0.173,-0.746 0.52,-0.989c0.347,-0.244 0.807,-0.365 1.381,-0.365c0.37,-0 0.782,0.066 1.235,0.199l-0.155,0.605Z" style="fill:white;fill-rule:nonzero;"/>
            <path d="M41.272,139.046c0.13,-0 0.24,0.048 0.331,0.145c0.091,0.097 0.137,0.214 0.137,0.349c-0,0.142 -0.045,0.261 -0.135,0.356c-0.089,0.096 -0.2,0.143 -0.333,0.143c-0.12,0 -0.227,-0.05 -0.319,-0.15c-0.093,-0.1 -0.139,-0.216 -0.139,-0.349c-0,-0.132 0.046,-0.248 0.139,-0.346c0.092,-0.099 0.199,-0.148 0.319,-0.148Zm0.336,6.635l-0.688,-0l-0,-4.191l-1.354,0l-0,-0.624l2.042,0l-0,4.815Z" style="fill:white;fill-rule:nonzero;"/>
            <path d="M48.219,145.464c-0.462,0.221 -0.916,0.332 -1.363,0.332c-0.821,0 -1.231,-0.454 -1.231,-1.363l0,-2.943l-0.882,0l0,-0.624l0.882,0l0,-1.316l0.671,-0l-0,1.316l1.561,0l-0,0.624l-1.561,0l-0,2.754c-0,0.293 0.061,0.52 0.185,0.681c0.123,0.162 0.291,0.243 0.503,0.243c0.376,-0 0.748,-0.088 1.116,-0.263l0.119,0.559Z" style="fill:white;fill-rule:nonzero;"/>
            <path d="M53.802,140.866l-1.742,4.815c-0.253,0.708 -0.504,1.203 -0.752,1.483c-0.248,0.28 -0.531,0.421 -0.849,0.421c-0.282,-0 -0.562,-0.054 -0.838,-0.162l0.115,-0.578c0.223,0.074 0.423,0.111 0.6,0.111c0.247,0 0.449,-0.1 0.608,-0.3c0.159,-0.2 0.319,-0.528 0.481,-0.984l-1.725,-4.806l0.75,0l1.301,3.84l1.301,-3.84l0.75,0Z" style="fill:white;fill-rule:nonzero;"/>
            <path d="M11.085,162.292l-2.576,-0l0,2.13l2.347,-0l-0,0.66l-2.347,0l0,3.068l-0.723,0l0,-6.519l3.299,-0l0,0.661Z" style="fill:white;fill-rule:nonzero;"/>
            <path d="M15.085,161.515c0.13,0 0.24,0.049 0.331,0.146c0.091,0.097 0.137,0.213 0.137,0.349c-0,0.142 -0.045,0.26 -0.135,0.356c-0.089,0.095 -0.2,0.143 -0.333,0.143c-0.12,-0 -0.227,-0.05 -0.32,-0.15c-0.092,-0.1 -0.138,-0.217 -0.138,-0.349c-0,-0.133 0.046,-0.248 0.138,-0.347c0.093,-0.098 0.2,-0.148 0.32,-0.148Zm0.335,6.635l-0.688,0l0,-4.19l-1.354,-0l0,-0.624l2.042,-0l0,4.814Z" style="fill:white;fill-rule:nonzero;"/>
            <path d="M21.987,168.15l-0.688,0l0,-3.086c0,-0.428 -0.065,-0.739 -0.196,-0.931c-0.131,-0.193 -0.336,-0.289 -0.615,-0.289c-0.421,0 -0.872,0.274 -1.354,0.823l-0,3.483l-0.688,0l-0,-4.814l0.688,-0l-0,0.707c0.494,-0.548 1.014,-0.823 1.561,-0.823c0.862,0 1.292,0.546 1.292,1.636l0,3.294Z" style="fill:white;fill-rule:nonzero;"/>
            <path d="M27.544,165.766l-3.153,0c0,0.545 0.151,0.995 0.452,1.349c0.301,0.355 0.671,0.532 1.109,0.532c0.418,-0 0.849,-0.079 1.292,-0.236l0.12,0.578c-0.406,0.191 -0.88,0.286 -1.421,0.286c-0.682,0 -1.232,-0.229 -1.649,-0.688c-0.418,-0.459 -0.626,-1.078 -0.626,-1.858c-0,-0.764 0.187,-1.373 0.562,-1.827c0.375,-0.454 0.859,-0.682 1.453,-0.682c0.529,0 0.972,0.211 1.328,0.633c0.355,0.422 0.533,0.985 0.533,1.687l0,0.226Zm-0.749,-0.587c-0,-0.375 -0.112,-0.692 -0.336,-0.949c-0.223,-0.257 -0.473,-0.386 -0.749,-0.386c-0.356,0 -0.651,0.123 -0.885,0.37c-0.233,0.246 -0.363,0.568 -0.39,0.965l2.36,0Z" style="fill:white;fill-rule:nonzero;"/>
            <path d="M11.381,187.964c-0.489,0.354 -1.055,0.531 -1.698,0.531c-0.806,0 -1.418,-0.289 -1.837,-0.868c-0.419,-0.579 -0.629,-1.417 -0.629,-2.514c0,-1.059 0.203,-1.889 0.609,-2.488c0.406,-0.599 1.025,-0.899 1.857,-0.899c0.299,0 0.596,0.04 0.89,0.121c0.294,0.08 0.531,0.186 0.711,0.318l-0.239,0.596c-0.414,-0.246 -0.868,-0.369 -1.362,-0.369c-0.574,-0 -1,0.218 -1.279,0.654c-0.28,0.435 -0.419,1.125 -0.419,2.067c-0,1.811 0.566,2.717 1.698,2.717c0.479,0 0.97,-0.154 1.473,-0.462l0.225,0.596Z" style="fill:white;fill-rule:nonzero;"/>
            <path d="M14.785,183.441c0.632,-0 1.135,0.231 1.509,0.693c0.373,0.462 0.56,1.07 0.56,1.825c-0,0.761 -0.187,1.374 -0.56,1.839c-0.374,0.465 -0.877,0.697 -1.509,0.697c-0.635,0 -1.138,-0.231 -1.51,-0.695c-0.372,-0.464 -0.558,-1.077 -0.558,-1.841c-0,-0.758 0.187,-1.367 0.56,-1.828c0.373,-0.46 0.876,-0.69 1.508,-0.69Zm0,4.426c0.418,0 0.747,-0.185 0.988,-0.554c0.241,-0.37 0.362,-0.818 0.362,-1.345c-0,-0.554 -0.119,-1.01 -0.357,-1.368c-0.239,-0.357 -0.569,-0.536 -0.993,-0.536c-0.426,0 -0.757,0.177 -0.992,0.529c-0.235,0.353 -0.353,0.811 -0.353,1.375c0,0.536 0.119,0.986 0.357,1.351c0.239,0.366 0.568,0.548 0.988,0.548Z" style="fill:white;fill-rule:nonzero;"/>
            <path d="M22.102,188.371l-0.684,-0c-0.055,-0.194 -0.083,-0.453 -0.083,-0.777c-0.391,0.601 -0.924,0.901 -1.597,0.901c-0.341,0 -0.642,-0.127 -0.902,-0.381c-0.26,-0.254 -0.39,-0.581 -0.39,-0.982c-0,-0.237 0.045,-0.446 0.137,-0.628c0.091,-0.182 0.225,-0.335 0.401,-0.46c0.176,-0.125 0.391,-0.223 0.644,-0.295c0.253,-0.073 0.553,-0.123 0.9,-0.151l0.771,-0.064l0,-0.231c0,-0.826 -0.367,-1.239 -1.102,-1.239c-0.174,0 -0.393,0.04 -0.66,0.118c-0.266,0.079 -0.494,0.172 -0.685,0.28l-0.181,-0.518c0.626,-0.336 1.208,-0.503 1.746,-0.503c1.047,-0 1.57,0.58 1.57,1.742l0,2.069c0,0.419 0.039,0.792 0.115,1.119Zm-0.803,-1.428l0,-0.873c-0.62,0.058 -1.046,0.113 -1.276,0.164c-0.231,0.051 -0.431,0.145 -0.6,0.284c-0.169,0.138 -0.254,0.326 -0.254,0.564c0,0.215 0.072,0.389 0.216,0.522c0.144,0.132 0.328,0.198 0.552,0.198c0.244,0 0.486,-0.076 0.727,-0.228c0.241,-0.153 0.453,-0.363 0.635,-0.631Z" style="fill:white;fill-rule:nonzero;"/>
            <path d="M27.478,183.685l-0.278,0.694c-0.302,-0.139 -0.564,-0.208 -0.785,-0.208c-0.203,-0 -0.401,0.06 -0.595,0.182c-0.194,0.122 -0.373,0.296 -0.536,0.522c-0.163,0.227 -0.245,0.354 -0.245,0.381l0,3.115l-0.683,-0l-0,-4.815l0.683,0l0,0.975c0.368,-0.727 0.844,-1.09 1.429,-1.09c0.347,-0 0.684,0.081 1.01,0.244Z" style="fill:white;fill-rule:nonzero;"/>
            <path d="M32.347,184.245c-0.385,-0.133 -0.748,-0.199 -1.089,-0.199c-0.374,-0 -0.669,0.065 -0.887,0.196c-0.217,0.131 -0.326,0.306 -0.326,0.525c0,0.138 0.05,0.259 0.15,0.362c0.1,0.104 0.3,0.2 0.6,0.289l0.657,0.199c0.303,0.089 0.55,0.196 0.741,0.321c0.191,0.125 0.334,0.276 0.43,0.453c0.095,0.177 0.143,0.383 0.143,0.617c0,0.459 -0.184,0.821 -0.551,1.088c-0.368,0.266 -0.835,0.399 -1.403,0.399c-0.564,0 -1.03,-0.089 -1.398,-0.268l0.133,-0.623c0.385,0.191 0.798,0.286 1.239,0.286c0.382,0 0.693,-0.075 0.933,-0.224c0.239,-0.149 0.359,-0.347 0.359,-0.594c0,-0.166 -0.059,-0.315 -0.178,-0.446c-0.12,-0.13 -0.4,-0.267 -0.841,-0.408c-0.355,-0.114 -0.617,-0.2 -0.785,-0.257c-0.167,-0.057 -0.323,-0.141 -0.467,-0.252c-0.144,-0.111 -0.254,-0.243 -0.329,-0.397c-0.075,-0.154 -0.112,-0.327 -0.112,-0.518c-0,-0.415 0.173,-0.745 0.52,-0.988c0.347,-0.244 0.807,-0.365 1.381,-0.365c0.37,-0 0.782,0.066 1.235,0.198l-0.155,0.606Z" style="fill:white;fill-rule:nonzero;"/>
            <path d="M38.385,185.986l-3.153,0c-0,0.546 0.15,0.995 0.452,1.35c0.301,0.354 0.671,0.531 1.109,0.531c0.417,0 0.848,-0.079 1.292,-0.236l0.119,0.578c-0.406,0.191 -0.879,0.286 -1.42,0.286c-0.682,0 -1.232,-0.229 -1.649,-0.688c-0.418,-0.459 -0.627,-1.078 -0.627,-1.857c0,-0.764 0.188,-1.374 0.563,-1.828c0.374,-0.454 0.859,-0.681 1.453,-0.681c0.529,-0 0.972,0.211 1.327,0.633c0.356,0.422 0.534,0.984 0.534,1.686l-0,0.226Zm-0.75,-0.586c0,-0.376 -0.112,-0.693 -0.335,-0.95c-0.223,-0.257 -0.473,-0.386 -0.75,-0.386c-0.356,0 -0.65,0.124 -0.884,0.37c-0.234,0.246 -0.364,0.568 -0.39,0.966l2.359,-0Z" style="fill:white;fill-rule:nonzero;"/>
            <path d="M10.991,117.709c-0.371,-0.132 -0.722,-0.198 -1.054,-0.198c-0.377,-0 -0.683,0.09 -0.92,0.27c-0.237,0.18 -0.355,0.437 -0.355,0.769c0,0.395 0.31,0.741 0.931,1.04c0.458,0.222 0.762,0.376 0.91,0.462c0.149,0.086 0.3,0.205 0.452,0.356c0.153,0.151 0.276,0.329 0.369,0.533c0.092,0.205 0.139,0.435 0.139,0.691c-0,0.635 -0.204,1.127 -0.611,1.476c-0.407,0.35 -0.887,0.525 -1.44,0.525c-0.535,-0 -1.004,-0.111 -1.407,-0.333l0.15,-0.651c0.473,0.225 0.886,0.337 1.239,0.337c0.412,-0 0.742,-0.112 0.99,-0.335c0.249,-0.223 0.373,-0.531 0.373,-0.922c-0,-0.289 -0.081,-0.535 -0.243,-0.737c-0.161,-0.202 -0.46,-0.407 -0.895,-0.617c-0.447,-0.215 -0.736,-0.362 -0.867,-0.441c-0.13,-0.078 -0.26,-0.187 -0.39,-0.326c-0.129,-0.138 -0.229,-0.294 -0.3,-0.466c-0.07,-0.173 -0.106,-0.361 -0.106,-0.564c0,-0.539 0.186,-0.96 0.556,-1.261c0.371,-0.302 0.84,-0.453 1.407,-0.453c0.415,-0 0.826,0.066 1.235,0.199l-0.163,0.646Z" style="fill:white;fill-rule:nonzero;"/>
            <path d="M16.865,123.508l-0.688,0l0,-3.086c0,-0.429 -0.065,-0.739 -0.196,-0.931c-0.131,-0.193 -0.336,-0.289 -0.615,-0.289c-0.421,-0 -0.872,0.274 -1.354,0.822l-0,3.484l-0.688,0l-0,-6.519l0.688,-0l-0,2.411c0.494,-0.548 1.014,-0.822 1.561,-0.822c0.861,0 1.292,0.545 1.292,1.636l0,3.294Z" style="fill:white;fill-rule:nonzero;"/>
            <path d="M22.4,123.508l-0.683,0c-0.056,-0.194 -0.084,-0.453 -0.084,-0.776c-0.391,0.6 -0.923,0.901 -1.597,0.901c-0.341,-0 -0.641,-0.127 -0.902,-0.381c-0.26,-0.255 -0.39,-0.582 -0.39,-0.982c0,-0.237 0.046,-0.447 0.137,-0.629c0.091,-0.181 0.225,-0.335 0.401,-0.459c0.177,-0.125 0.391,-0.224 0.644,-0.296c0.253,-0.072 0.553,-0.123 0.9,-0.15l0.772,-0.065l-0,-0.231c-0,-0.825 -0.368,-1.238 -1.103,-1.238c-0.174,-0 -0.393,0.039 -0.659,0.118c-0.266,0.078 -0.495,0.171 -0.686,0.279l-0.181,-0.517c0.626,-0.336 1.208,-0.504 1.746,-0.504c1.047,0 1.571,0.581 1.571,1.742l-0,2.07c-0,0.419 0.038,0.792 0.114,1.118Zm-0.802,-1.428l-0,-0.873c-0.621,0.059 -1.046,0.113 -1.277,0.164c-0.231,0.051 -0.431,0.146 -0.6,0.284c-0.169,0.139 -0.254,0.327 -0.254,0.564c0,0.216 0.072,0.39 0.216,0.522c0.145,0.133 0.328,0.199 0.552,0.199c0.244,-0 0.486,-0.076 0.727,-0.229c0.242,-0.152 0.453,-0.363 0.636,-0.631Z" style="fill:white;fill-rule:nonzero;"/>
            <path d="M24.852,119.317c0.153,-0.221 0.36,-0.4 0.62,-0.536c0.26,-0.135 0.534,-0.203 0.823,-0.203c0.529,0 0.944,0.229 1.245,0.686c0.302,0.458 0.452,1.053 0.452,1.786c0,0.739 -0.158,1.355 -0.474,1.846c-0.316,0.491 -0.741,0.737 -1.276,0.737c-0.286,-0 -0.552,-0.075 -0.801,-0.224c-0.248,-0.15 -0.445,-0.348 -0.589,-0.594l0,2.597l-0.688,-0l0,-6.718l0.688,-0l0,0.623Zm0,0.716l0,2.001c0.13,0.271 0.305,0.498 0.525,0.679c0.221,0.182 0.449,0.273 0.684,0.273c0.37,-0 0.665,-0.182 0.884,-0.545c0.219,-0.364 0.329,-0.815 0.329,-1.354c-0,-0.555 -0.105,-1.007 -0.314,-1.358c-0.208,-0.352 -0.499,-0.527 -0.873,-0.527c-0.485,-0 -0.897,0.277 -1.235,0.831Z" style="fill:white;fill-rule:nonzero;"/>
            <path d="M33.263,121.124l-3.154,-0c0,0.545 0.151,0.995 0.452,1.349c0.302,0.354 0.672,0.531 1.11,0.531c0.417,0 0.848,-0.078 1.292,-0.235l0.119,0.577c-0.406,0.191 -0.879,0.287 -1.42,0.287c-0.682,-0 -1.232,-0.23 -1.65,-0.689c-0.417,-0.459 -0.626,-1.078 -0.626,-1.857c0,-0.764 0.188,-1.373 0.562,-1.827c0.375,-0.455 0.86,-0.682 1.454,-0.682c0.529,0 0.971,0.211 1.327,0.633c0.356,0.422 0.534,0.984 0.534,1.686l-0,0.227Zm-0.75,-0.587c0,-0.376 -0.112,-0.692 -0.335,-0.949c-0.224,-0.258 -0.474,-0.386 -0.75,-0.386c-0.356,-0 -0.65,0.123 -0.884,0.369c-0.234,0.247 -0.364,0.569 -0.39,0.966l2.359,0Z" style="fill:white;fill-rule:nonzero;"/>
        </g>
        <g id="OSC-B" serif:id="OSC B">
            <rect id="BG3" serif:id="BG" x="1.118" y="204.017" width="115.184" height="160.235" style="fill:rgb(99,81,164);"/>
            <path id="Label1" serif:id="Label" d="M13.443,219.586c0.811,0.214 1.447,0.628 1.907,1.243c0.46,0.615 0.69,1.347 0.69,2.195c0,1.243 -0.401,2.233 -1.204,2.971c-0.802,0.738 -1.767,1.107 -2.895,1.107l-3.46,0l-0,-13.701l3.374,-0c1.173,-0 2.091,0.29 2.753,0.869c0.661,0.579 0.992,1.397 0.992,2.452c0,0.647 -0.191,1.223 -0.574,1.728c-0.382,0.505 -0.91,0.871 -1.583,1.098l-0,0.038Zm-3.547,-0.738l1.657,0c1.732,0 2.597,-0.695 2.597,-2.087c0,-0.635 -0.213,-1.122 -0.638,-1.462c-0.426,-0.34 -1.05,-0.509 -1.873,-0.509l-1.743,-0l-0,4.058Zm-0,6.866l1.605,-0c0.938,-0 1.681,-0.24 2.231,-0.719c0.549,-0.479 0.824,-1.136 0.824,-1.971c-0,-0.887 -0.27,-1.573 -0.811,-2.059c-0.541,-0.485 -1.323,-0.728 -2.348,-0.728l-1.501,0l-0,5.477Z" style="fill:white;fill-rule:nonzero;"/>
            <path d="M9.836,274.454l-2.827,-0l-0,-0.661l1.071,0l0,-5.198l-1.071,0l-0,-0.661l2.827,0l-0,0.661l-1.032,0l-0,5.198l1.032,0l-0,0.661Z" style="fill:white;fill-rule:nonzero;"/>
            <path d="M15.653,274.454l-0.688,-0l-0,-3.087c-0,-0.428 -0.066,-0.738 -0.196,-0.931c-0.131,-0.192 -0.336,-0.288 -0.616,-0.288c-0.42,-0 -0.871,0.274 -1.354,0.822l0,3.484l-0.688,-0l0,-4.815l0.688,0l0,0.707c0.494,-0.548 1.015,-0.822 1.562,-0.822c0.861,-0 1.292,0.545 1.292,1.635l-0,3.295Z" style="fill:white;fill-rule:nonzero;"/>
            <path d="M21.117,274.237c-0.461,0.221 -0.916,0.332 -1.363,0.332c-0.82,0 -1.23,-0.454 -1.23,-1.363l-0,-2.943l-0.882,0l-0,-0.624l0.882,0l-0,-1.317l0.67,0l0,1.317l1.562,0l-0,0.624l-1.562,0l0,2.754c0,0.292 0.062,0.52 0.186,0.681c0.123,0.162 0.291,0.243 0.502,0.243c0.377,-0 0.749,-0.088 1.116,-0.263l0.119,0.559Z" style="fill:white;fill-rule:nonzero;"/>
            <path d="M26.63,272.07l-3.153,-0c-0,0.545 0.15,0.995 0.452,1.349c0.301,0.354 0.671,0.531 1.109,0.531c0.417,0 0.848,-0.078 1.292,-0.235l0.119,0.577c-0.406,0.191 -0.879,0.287 -1.42,0.287c-0.682,-0 -1.232,-0.23 -1.649,-0.689c-0.418,-0.459 -0.627,-1.078 -0.627,-1.857c0,-0.764 0.188,-1.373 0.563,-1.828c0.375,-0.454 0.859,-0.681 1.453,-0.681c0.529,-0 0.972,0.211 1.327,0.633c0.356,0.422 0.534,0.984 0.534,1.686l0,0.227Zm-0.75,-0.587c0,-0.376 -0.111,-0.692 -0.335,-0.95c-0.223,-0.257 -0.473,-0.385 -0.75,-0.385c-0.355,-0 -0.65,0.123 -0.884,0.369c-0.234,0.247 -0.364,0.568 -0.39,0.966l2.359,-0Z" style="fill:white;fill-rule:nonzero;"/>
            <path d="M31.914,274.454l-0.688,-0l-0,-3.087c-0,-0.428 -0.066,-0.738 -0.197,-0.931c-0.13,-0.192 -0.336,-0.288 -0.615,-0.288c-0.42,-0 -0.872,0.274 -1.354,0.822l0,3.484l-0.688,-0l0,-4.815l0.688,0l0,0.707c0.494,-0.548 1.015,-0.822 1.561,-0.822c0.862,-0 1.293,0.545 1.293,1.635l-0,3.295Z" style="fill:white;fill-rule:nonzero;"/>
            <path d="M36.853,270.328c-0.385,-0.133 -0.748,-0.199 -1.089,-0.199c-0.374,0 -0.669,0.066 -0.887,0.196c-0.217,0.131 -0.326,0.306 -0.326,0.525c0,0.138 0.05,0.259 0.15,0.363c0.1,0.103 0.3,0.199 0.6,0.288l0.657,0.199c0.303,0.089 0.55,0.196 0.741,0.321c0.191,0.125 0.334,0.276 0.43,0.453c0.095,0.177 0.143,0.383 0.143,0.617c0,0.459 -0.184,0.821 -0.551,1.088c-0.368,0.266 -0.835,0.4 -1.403,0.4c-0.564,-0 -1.03,-0.09 -1.398,-0.268l0.133,-0.624c0.385,0.191 0.798,0.286 1.239,0.286c0.382,0 0.693,-0.074 0.933,-0.224c0.239,-0.149 0.359,-0.347 0.359,-0.594c0,-0.166 -0.059,-0.314 -0.178,-0.445c-0.12,-0.131 -0.4,-0.268 -0.841,-0.409c-0.355,-0.114 -0.617,-0.2 -0.785,-0.257c-0.167,-0.057 -0.323,-0.141 -0.467,-0.252c-0.144,-0.11 -0.254,-0.243 -0.329,-0.397c-0.075,-0.154 -0.112,-0.326 -0.112,-0.517c-0,-0.416 0.173,-0.746 0.52,-0.989c0.347,-0.244 0.807,-0.365 1.381,-0.365c0.37,-0 0.782,0.066 1.235,0.198l-0.155,0.606Z" style="fill:white;fill-rule:nonzero;"/>
            <path d="M41.272,267.819c0.13,-0 0.24,0.048 0.331,0.145c0.091,0.097 0.137,0.214 0.137,0.349c-0,0.142 -0.045,0.26 -0.135,0.356c-0.089,0.095 -0.2,0.143 -0.333,0.143c-0.12,0 -0.227,-0.05 -0.319,-0.15c-0.093,-0.1 -0.139,-0.216 -0.139,-0.349c-0,-0.132 0.046,-0.248 0.139,-0.346c0.092,-0.099 0.199,-0.148 0.319,-0.148Zm0.336,6.635l-0.688,-0l-0,-4.191l-1.354,0l-0,-0.624l2.042,0l-0,4.815Z" style="fill:white;fill-rule:nonzero;"/>
            <path d="M48.219,274.237c-0.462,0.221 -0.916,0.332 -1.363,0.332c-0.821,0 -1.231,-0.454 -1.231,-1.363l0,-2.943l-0.882,0l0,-0.624l0.882,0l0,-1.317l0.671,0l-0,1.317l1.561,0l-0,0.624l-1.561,0l-0,2.754c-0,0.292 0.061,0.52 0.185,0.681c0.123,0.162 0.291,0.243 0.503,0.243c0.376,-0 0.748,-0.088 1.116,-0.263l0.119,0.559Z" style="fill:white;fill-rule:nonzero;"/>
            <path d="M53.802,269.639l-1.742,4.815c-0.253,0.708 -0.504,1.203 -0.752,1.483c-0.248,0.28 -0.531,0.42 -0.849,0.42c-0.282,0 -0.562,-0.053 -0.838,-0.161l0.115,-0.578c0.223,0.074 0.423,0.111 0.6,0.111c0.247,0 0.449,-0.1 0.608,-0.3c0.159,-0.2 0.319,-0.529 0.481,-0.984l-1.725,-4.806l0.75,0l1.301,3.84l1.301,-3.84l0.75,0Z" style="fill:white;fill-rule:nonzero;"/>
            <path d="M11.085,291.065l-2.576,-0l0,2.13l2.347,-0l-0,0.66l-2.347,0l0,3.068l-0.723,0l0,-6.519l3.299,-0l0,0.661Z" style="fill:white;fill-rule:nonzero;"/>
            <path d="M15.085,290.288c0.13,0 0.24,0.049 0.331,0.146c0.091,0.097 0.137,0.213 0.137,0.349c-0,0.141 -0.045,0.26 -0.135,0.356c-0.089,0.095 -0.2,0.143 -0.333,0.143c-0.12,-0 -0.227,-0.05 -0.32,-0.15c-0.092,-0.1 -0.138,-0.217 -0.138,-0.349c-0,-0.133 0.046,-0.248 0.138,-0.347c0.093,-0.098 0.2,-0.148 0.32,-0.148Zm0.335,6.635l-0.688,0l0,-4.19l-1.354,-0l0,-0.624l2.042,-0l0,4.814Z" style="fill:white;fill-rule:nonzero;"/>
            <path d="M21.987,296.923l-0.688,0l0,-3.086c0,-0.428 -0.065,-0.739 -0.196,-0.931c-0.131,-0.193 -0.336,-0.289 -0.615,-0.289c-0.421,0 -0.872,0.274 -1.354,0.823l-0,3.483l-0.688,0l-0,-4.814l0.688,-0l-0,0.707c0.494,-0.549 1.014,-0.823 1.561,-0.823c0.862,0 1.292,0.546 1.292,1.636l0,3.294Z" style="fill:white;fill-rule:nonzero;"/>
            <path d="M27.544,294.539l-3.153,0c0,0.545 0.151,0.995 0.452,1.349c0.301,0.355 0.671,0.532 1.109,0.532c0.418,-0 0.849,-0.079 1.292,-0.236l0.12,0.578c-0.406,0.191 -0.88,0.286 -1.421,0.286c-0.682,0 -1.232,-0.229 -1.649,-0.688c-0.418,-0.459 -0.626,-1.078 -0.626,-1.858c-0,-0.764 0.187,-1.373 0.562,-1.827c0.375,-0.454 0.859,-0.682 1.453,-0.682c0.529,0 0.972,0.211 1.328,0.633c0.355,0.422 0.533,0.985 0.533,1.687l0,0.226Zm-0.749,-0.587c-0,-0.375 -0.112,-0.692 -0.336,-0.949c-0.223,-0.257 -0.473,-0.386 -0.749,-0.386c-0.356,0 -0.651,0.123 -0.885,0.37c-0.233,0.246 -0.363,0.568 -0.39,0.965l2.36,0Z" style="fill:white;fill-rule:nonzero;"/>
            <path d="M11.381,316.737c-0.489,0.354 -1.055,0.531 -1.698,0.531c-0.806,0 -1.418,-0.289 -1.837,-0.868c-0.419,-0.579 -0.629,-1.417 -0.629,-2.514c0,-1.059 0.203,-1.889 0.609,-2.488c0.406,-0.599 1.025,-0.899 1.857,-0.899c0.299,0 0.596,0.04 0.89,0.12c0.294,0.081 0.531,0.187 0.711,0.319l-0.239,0.596c-0.414,-0.246 -0.868,-0.369 -1.362,-0.369c-0.574,-0 -1,0.218 -1.279,0.654c-0.28,0.435 -0.419,1.125 -0.419,2.067c-0,1.811 0.566,2.717 1.698,2.717c0.479,0 0.97,-0.154 1.473,-0.462l0.225,0.596Z" style="fill:white;fill-rule:nonzero;"/>
            <path d="M14.785,312.214c0.632,-0 1.135,0.231 1.509,0.693c0.373,0.462 0.56,1.07 0.56,1.825c-0,0.761 -0.187,1.374 -0.56,1.839c-0.374,0.465 -0.877,0.697 -1.509,0.697c-0.635,0 -1.138,-0.231 -1.51,-0.695c-0.372,-0.464 -0.558,-1.077 -0.558,-1.841c-0,-0.758 0.187,-1.367 0.56,-1.828c0.373,-0.46 0.876,-0.69 1.508,-0.69Zm0,4.426c0.418,-0 0.747,-0.185 0.988,-0.554c0.241,-0.37 0.362,-0.818 0.362,-1.345c-0,-0.555 -0.119,-1.01 -0.357,-1.368c-0.239,-0.357 -0.569,-0.536 -0.993,-0.536c-0.426,0 -0.757,0.177 -0.992,0.529c-0.235,0.353 -0.353,0.811 -0.353,1.375c0,0.536 0.119,0.986 0.357,1.351c0.239,0.365 0.568,0.548 0.988,0.548Z" style="fill:white;fill-rule:nonzero;"/>
            <path d="M22.102,317.144l-0.684,-0c-0.055,-0.194 -0.083,-0.453 -0.083,-0.777c-0.391,0.601 -0.924,0.901 -1.597,0.901c-0.341,0 -0.642,-0.127 -0.902,-0.381c-0.26,-0.254 -0.39,-0.581 -0.39,-0.982c-0,-0.237 0.045,-0.446 0.137,-0.628c0.091,-0.182 0.225,-0.335 0.401,-0.46c0.176,-0.125 0.391,-0.223 0.644,-0.296c0.253,-0.072 0.553,-0.122 0.9,-0.15l0.771,-0.064l0,-0.231c0,-0.826 -0.367,-1.239 -1.102,-1.239c-0.174,0 -0.393,0.04 -0.66,0.118c-0.266,0.079 -0.494,0.172 -0.685,0.28l-0.181,-0.518c0.626,-0.336 1.208,-0.503 1.746,-0.503c1.047,-0 1.57,0.58 1.57,1.741l0,2.07c0,0.419 0.039,0.792 0.115,1.119Zm-0.803,-1.428l0,-0.873c-0.62,0.058 -1.046,0.113 -1.276,0.164c-0.231,0.05 -0.431,0.145 -0.6,0.284c-0.169,0.138 -0.254,0.326 -0.254,0.563c0,0.216 0.072,0.39 0.216,0.523c0.144,0.132 0.328,0.198 0.552,0.198c0.244,0 0.486,-0.076 0.727,-0.228c0.241,-0.153 0.453,-0.363 0.635,-0.631Z" style="fill:white;fill-rule:nonzero;"/>
            <path d="M27.478,312.458l-0.278,0.694c-0.302,-0.139 -0.564,-0.208 -0.785,-0.208c-0.203,-0 -0.401,0.06 -0.595,0.182c-0.194,0.122 -0.373,0.296 -0.536,0.522c-0.163,0.227 -0.245,0.354 -0.245,0.381l0,3.115l-0.683,-0l-0,-4.815l0.683,0l0,0.975c0.368,-0.727 0.844,-1.09 1.429,-1.09c0.347,-0 0.684,0.081 1.01,0.244Z" style="fill:white;fill-rule:nonzero;"/>
            <path d="M32.347,313.018c-0.385,-0.133 -0.748,-0.199 -1.089,-0.199c-0.374,-0 -0.669,0.065 -0.887,0.196c-0.217,0.131 -0.326,0.306 -0.326,0.525c0,0.138 0.05,0.259 0.15,0.362c0.1,0.104 0.3,0.2 0.6,0.289l0.657,0.199c0.303,0.089 0.55,0.196 0.741,0.321c0.191,0.125 0.334,0.276 0.43,0.453c0.095,0.177 0.143,0.382 0.143,0.617c0,0.459 -0.184,0.821 -0.551,1.088c-0.368,0.266 -0.835,0.399 -1.403,0.399c-0.564,0 -1.03,-0.089 -1.398,-0.268l0.133,-0.623c0.385,0.191 0.798,0.286 1.239,0.286c0.382,0 0.693,-0.075 0.933,-0.224c0.239,-0.149 0.359,-0.347 0.359,-0.594c0,-0.166 -0.059,-0.315 -0.178,-0.446c-0.12,-0.131 -0.4,-0.267 -0.841,-0.409c-0.355,-0.114 -0.617,-0.199 -0.785,-0.256c-0.167,-0.057 -0.323,-0.141 -0.467,-0.252c-0.144,-0.111 -0.254,-0.243 -0.329,-0.397c-0.075,-0.154 -0.112,-0.327 -0.112,-0.518c-0,-0.415 0.173,-0.745 0.52,-0.988c0.347,-0.244 0.807,-0.365 1.381,-0.365c0.37,-0 0.782,0.066 1.235,0.198l-0.155,0.606Z" style="fill:white;fill-rule:nonzero;"/>
            <path d="M38.385,314.759l-3.153,0c-0,0.546 0.15,0.995 0.452,1.35c0.301,0.354 0.671,0.531 1.109,0.531c0.417,-0 0.848,-0.079 1.292,-0.236l0.119,0.578c-0.406,0.191 -0.879,0.286 -1.42,0.286c-0.682,0 -1.232,-0.229 -1.649,-0.688c-0.418,-0.459 -0.627,-1.078 -0.627,-1.858c0,-0.763 0.188,-1.373 0.563,-1.827c0.374,-0.454 0.859,-0.681 1.453,-0.681c0.529,-0 0.972,0.211 1.327,0.633c0.356,0.422 0.534,0.984 0.534,1.686l-0,0.226Zm-0.75,-0.586c0,-0.376 -0.112,-0.693 -0.335,-0.95c-0.223,-0.257 -0.473,-0.386 -0.75,-0.386c-0.356,0 -0.65,0.124 -0.884,0.37c-0.234,0.246 -0.364,0.568 -0.39,0.966l2.359,-0Z" style="fill:white;fill-rule:nonzero;"/>
            <path d="M10.991,246.482c-0.371,-0.132 -0.722,-0.198 -1.054,-0.198c-0.377,-0 -0.683,0.09 -0.92,0.27c-0.237,0.18 -0.355,0.437 -0.355,0.769c0,0.395 0.31,0.741 0.931,1.04c0.458,0.222 0.762,0.376 0.91,0.462c0.149,0.086 0.3,0.205 0.452,0.356c0.153,0.151 0.276,0.329 0.369,0.533c0.092,0.205 0.139,0.435 0.139,0.691c-0,0.635 -0.204,1.127 -0.611,1.476c-0.407,0.35 -0.887,0.525 -1.44,0.525c-0.535,-0 -1.004,-0.111 -1.407,-0.333l0.15,-0.651c0.473,0.224 0.886,0.337 1.239,0.337c0.412,-0 0.742,-0.112 0.99,-0.335c0.249,-0.223 0.373,-0.531 0.373,-0.922c-0,-0.289 -0.081,-0.535 -0.243,-0.737c-0.161,-0.202 -0.46,-0.407 -0.895,-0.617c-0.447,-0.215 -0.736,-0.362 -0.867,-0.441c-0.13,-0.078 -0.26,-0.187 -0.39,-0.326c-0.129,-0.138 -0.229,-0.294 -0.3,-0.466c-0.07,-0.173 -0.106,-0.361 -0.106,-0.564c0,-0.539 0.186,-0.96 0.556,-1.261c0.371,-0.302 0.84,-0.453 1.407,-0.453c0.415,-0 0.826,0.066 1.235,0.198l-0.163,0.647Z" style="fill:white;fill-rule:nonzero;"/>
            <path d="M16.865,252.281l-0.688,0l0,-3.086c0,-0.429 -0.065,-0.739 -0.196,-0.931c-0.131,-0.193 -0.336,-0.289 -0.615,-0.289c-0.421,-0 -0.872,0.274 -1.354,0.822l-0,3.484l-0.688,0l-0,-6.519l0.688,-0l-0,2.411c0.494,-0.548 1.014,-0.822 1.561,-0.822c0.861,-0 1.292,0.545 1.292,1.636l0,3.294Z" style="fill:white;fill-rule:nonzero;"/>
            <path d="M22.4,252.281l-0.683,0c-0.056,-0.194 -0.084,-0.453 -0.084,-0.776c-0.391,0.6 -0.923,0.901 -1.597,0.901c-0.341,-0 -0.641,-0.127 -0.902,-0.381c-0.26,-0.255 -0.39,-0.582 -0.39,-0.982c0,-0.237 0.046,-0.447 0.137,-0.629c0.091,-0.181 0.225,-0.335 0.401,-0.459c0.177,-0.125 0.391,-0.224 0.644,-0.296c0.253,-0.072 0.553,-0.123 0.9,-0.15l0.772,-0.065l-0,-0.231c-0,-0.826 -0.368,-1.238 -1.103,-1.238c-0.174,-0 -0.393,0.039 -0.659,0.118c-0.266,0.078 -0.495,0.171 -0.686,0.279l-0.181,-0.517c0.626,-0.336 1.208,-0.504 1.746,-0.504c1.047,-0 1.571,0.581 1.571,1.742l-0,2.07c-0,0.419 0.038,0.792 0.114,1.118Zm-0.802,-1.428l-0,-0.873c-0.621,0.059 -1.046,0.113 -1.277,0.164c-0.231,0.051 -0.431,0.146 -0.6,0.284c-0.169,0.139 -0.254,0.327 -0.254,0.564c0,0.216 0.072,0.39 0.216,0.522c0.145,0.132 0.328,0.199 0.552,0.199c0.244,-0 0.486,-0.077 0.727,-0.229c0.242,-0.152 0.453,-0.363 0.636,-0.631Z" style="fill:white;fill-rule:nonzero;"/>
            <path d="M24.852,248.09c0.153,-0.222 0.36,-0.4 0.62,-0.536c0.26,-0.135 0.534,-0.203 0.823,-0.203c0.529,-0 0.944,0.229 1.245,0.686c0.302,0.458 0.452,1.053 0.452,1.786c0,0.739 -0.158,1.354 -0.474,1.846c-0.316,0.491 -0.741,0.737 -1.276,0.737c-0.286,-0 -0.552,-0.075 -0.801,-0.224c-0.248,-0.15 -0.445,-0.348 -0.589,-0.594l0,2.597l-0.688,-0l0,-6.719l0.688,0l0,0.624Zm0,0.716l0,2.001c0.13,0.271 0.305,0.498 0.525,0.679c0.221,0.182 0.449,0.273 0.684,0.273c0.37,-0 0.665,-0.182 0.884,-0.545c0.219,-0.364 0.329,-0.815 0.329,-1.354c-0,-0.555 -0.105,-1.007 -0.314,-1.359c-0.208,-0.351 -0.499,-0.526 -0.873,-0.526c-0.485,-0 -0.897,0.277 -1.235,0.831Z" style="fill:white;fill-rule:nonzero;"/>
            <path d="M33.263,249.897l-3.154,-0c0,0.545 0.151,0.995 0.452,1.349c0.302,0.354 0.672,0.531 1.11,0.531c0.417,0 0.848,-0.078 1.292,-0.235l0.119,0.577c-0.406,0.191 -0.879,0.287 -1.42,0.287c-0.682,-0 -1.232,-0.23 -1.65,-0.689c-0.417,-0.459 -0.626,-1.078 -0.626,-1.857c0,-0.764 0.188,-1.373 0.562,-1.828c0.375,-0.454 0.86,-0.681 1.454,-0.681c0.529,-0 0.971,0.211 1.327,0.633c0.356,0.422 0.534,0.984 0.534,1.686l-0,0.227Zm-0.75,-0.587c0,-0.376 -0.112,-0.692 -0.335,-0.949c-0.224,-0.258 -0.474,-0.386 -0.75,-0.386c-0.356,-0 -0.65,0.123 -0.884,0.369c-0.234,0.247 -0.364,0.569 -0.39,0.966l2.359,0Z" style="fill:white;fill-rule:nonzero;"/>
        </g>
        <g id="OSC-D" serif:id="OSC D">
            <rect id="BG4" serif:id="BG" x="236.569" y="204.017" width="115.184" height="160.235" style="fill:rgb(99,81,164);"/>
            <path id="Label2" serif:id="Label" d="M243.931,213.401l2.4,-0c1.593,-0 2.87,0.61 3.831,1.83c0.961,1.221 1.441,2.896 1.441,5.025c0,2.176 -0.487,3.86 -1.462,5.055c-0.976,1.194 -2.226,1.791 -3.75,1.791l-2.46,0l0,-13.701Zm1.416,12.313l1.001,-0c1.156,-0 2.071,-0.483 2.744,-1.447c0.673,-0.965 1.01,-2.302 1.01,-4.011c-0,-1.696 -0.338,-3.031 -1.014,-4.005c-0.676,-0.974 -1.59,-1.461 -2.74,-1.461l-1.001,-0l-0,10.924Z" style="fill:white;fill-rule:nonzero;"/>
            <path d="M245.286,274.454l-2.827,-0l0,-0.661l1.072,0l0,-5.198l-1.072,0l0,-0.661l2.827,0l0,0.661l-1.032,0l0,5.198l1.032,0l0,0.661Z" style="fill:white;fill-rule:nonzero;"/>
            <path d="M251.104,274.454l-0.688,-0l-0,-3.087c-0,-0.428 -0.066,-0.738 -0.197,-0.931c-0.131,-0.192 -0.336,-0.288 -0.615,-0.288c-0.42,-0 -0.872,0.274 -1.354,0.822l0,3.484l-0.688,-0l0,-4.815l0.688,0l0,0.707c0.494,-0.548 1.014,-0.822 1.561,-0.822c0.862,-0 1.293,0.545 1.293,1.635l-0,3.295Z" style="fill:white;fill-rule:nonzero;"/>
            <path d="M256.568,274.237c-0.462,0.221 -0.916,0.332 -1.363,0.332c-0.82,0 -1.23,-0.454 -1.23,-1.363l-0,-2.943l-0.882,0l-0,-0.624l0.882,0l-0,-1.317l0.67,0l0,1.317l1.561,0l0,0.624l-1.561,0l0,2.754c0,0.292 0.062,0.52 0.185,0.681c0.124,0.162 0.291,0.243 0.503,0.243c0.376,-0 0.748,-0.088 1.116,-0.263l0.119,0.559Z" style="fill:white;fill-rule:nonzero;"/>
            <path d="M262.081,272.07l-3.154,-0c0,0.545 0.151,0.995 0.453,1.349c0.301,0.354 0.671,0.531 1.109,0.531c0.417,0 0.848,-0.078 1.292,-0.235l0.119,0.577c-0.406,0.191 -0.879,0.287 -1.42,0.287c-0.682,-0 -1.232,-0.23 -1.65,-0.689c-0.417,-0.459 -0.626,-1.078 -0.626,-1.857c0,-0.764 0.188,-1.373 0.563,-1.828c0.374,-0.454 0.859,-0.681 1.453,-0.681c0.529,-0 0.971,0.211 1.327,0.633c0.356,0.422 0.534,0.984 0.534,1.686l-0,0.227Zm-0.75,-0.587c0,-0.376 -0.112,-0.692 -0.335,-0.95c-0.224,-0.257 -0.473,-0.385 -0.75,-0.385c-0.356,-0 -0.65,0.123 -0.884,0.369c-0.234,0.247 -0.364,0.568 -0.39,0.966l2.359,-0Z" style="fill:white;fill-rule:nonzero;"/>
            <path d="M267.364,274.454l-0.688,-0l0,-3.087c0,-0.428 -0.065,-0.738 -0.196,-0.931c-0.131,-0.192 -0.336,-0.288 -0.615,-0.288c-0.421,-0 -0.872,0.274 -1.354,0.822l-0,3.484l-0.688,-0l-0,-4.815l0.688,0l-0,0.707c0.494,-0.548 1.014,-0.822 1.561,-0.822c0.862,-0 1.292,0.545 1.292,1.635l0,3.295Z" style="fill:white;fill-rule:nonzero;"/>
            <path d="M272.304,270.328c-0.385,-0.133 -0.748,-0.199 -1.089,-0.199c-0.374,0 -0.669,0.066 -0.887,0.196c-0.217,0.131 -0.326,0.306 -0.326,0.525c-0,0.138 0.05,0.259 0.15,0.363c0.1,0.103 0.3,0.199 0.6,0.288l0.657,0.199c0.303,0.089 0.55,0.196 0.741,0.321c0.191,0.125 0.334,0.276 0.43,0.453c0.095,0.177 0.143,0.383 0.143,0.617c-0,0.459 -0.184,0.821 -0.551,1.088c-0.368,0.266 -0.835,0.4 -1.403,0.4c-0.564,-0 -1.03,-0.09 -1.398,-0.268l0.132,-0.624c0.386,0.191 0.799,0.286 1.24,0.286c0.382,0 0.693,-0.074 0.933,-0.224c0.239,-0.149 0.359,-0.347 0.359,-0.594c-0,-0.166 -0.06,-0.314 -0.179,-0.445c-0.119,-0.131 -0.399,-0.268 -0.84,-0.409c-0.356,-0.114 -0.617,-0.2 -0.785,-0.257c-0.167,-0.057 -0.323,-0.141 -0.467,-0.252c-0.144,-0.11 -0.254,-0.243 -0.329,-0.397c-0.075,-0.154 -0.112,-0.326 -0.112,-0.517c-0,-0.416 0.173,-0.746 0.52,-0.989c0.347,-0.244 0.807,-0.365 1.38,-0.365c0.371,-0 0.783,0.066 1.235,0.198l-0.154,0.606Z" style="fill:white;fill-rule:nonzero;"/>
            <path d="M276.723,267.819c0.13,-0 0.24,0.048 0.331,0.145c0.091,0.097 0.137,0.214 0.137,0.349c-0,0.142 -0.045,0.26 -0.135,0.356c-0.09,0.095 -0.201,0.143 -0.333,0.143c-0.12,0 -0.227,-0.05 -0.32,-0.15c-0.092,-0.1 -0.139,-0.216 -0.139,-0.349c0,-0.132 0.047,-0.248 0.139,-0.346c0.093,-0.099 0.2,-0.148 0.32,-0.148Zm0.335,6.635l-0.688,-0l0,-4.191l-1.354,0l0,-0.624l2.042,0l0,4.815Z" style="fill:white;fill-rule:nonzero;"/>
            <path d="M283.669,274.237c-0.461,0.221 -0.915,0.332 -1.362,0.332c-0.821,0 -1.231,-0.454 -1.231,-1.363l0,-2.943l-0.882,0l0,-0.624l0.882,0l0,-1.317l0.67,0l0,1.317l1.562,0l-0,0.624l-1.562,0l0,2.754c0,0.292 0.062,0.52 0.186,0.681c0.123,0.162 0.291,0.243 0.502,0.243c0.377,-0 0.749,-0.088 1.116,-0.263l0.119,0.559Z" style="fill:white;fill-rule:nonzero;"/>
            <path d="M289.253,269.639l-1.742,4.815c-0.253,0.708 -0.504,1.203 -0.752,1.483c-0.249,0.28 -0.532,0.42 -0.849,0.42c-0.282,0 -0.562,-0.053 -0.838,-0.161l0.115,-0.578c0.223,0.074 0.423,0.111 0.599,0.111c0.247,0 0.45,-0.1 0.609,-0.3c0.159,-0.2 0.319,-0.529 0.481,-0.984l-1.725,-4.806l0.75,0l1.301,3.84l1.301,-3.84l0.75,0Z" style="fill:white;fill-rule:nonzero;"/>
            <path d="M246.536,291.065l-2.576,-0l0,2.13l2.347,-0l-0,0.66l-2.347,0l0,3.068l-0.723,0l-0,-6.519l3.299,-0l-0,0.661Z" style="fill:white;fill-rule:nonzero;"/>
            <path d="M250.536,290.288c0.129,0 0.24,0.049 0.331,0.146c0.091,0.097 0.137,0.213 0.137,0.349c-0,0.141 -0.045,0.26 -0.135,0.356c-0.09,0.095 -0.201,0.143 -0.333,0.143c-0.121,-0 -0.227,-0.05 -0.32,-0.15c-0.092,-0.1 -0.139,-0.217 -0.139,-0.349c0,-0.133 0.047,-0.248 0.139,-0.347c0.093,-0.098 0.199,-0.148 0.32,-0.148Zm0.335,6.635l-0.688,0l0,-4.19l-1.354,-0l0,-0.624l2.042,-0l0,4.814Z" style="fill:white;fill-rule:nonzero;"/>
            <path d="M257.438,296.923l-0.688,0l0,-3.086c0,-0.428 -0.065,-0.739 -0.196,-0.931c-0.131,-0.193 -0.336,-0.289 -0.615,-0.289c-0.421,0 -0.872,0.274 -1.354,0.823l-0,3.483l-0.688,0l-0,-4.814l0.688,-0l-0,0.707c0.494,-0.549 1.014,-0.823 1.561,-0.823c0.861,0 1.292,0.546 1.292,1.636l0,3.294Z" style="fill:white;fill-rule:nonzero;"/>
            <path d="M262.995,294.539l-3.153,0c-0,0.545 0.15,0.995 0.452,1.349c0.301,0.355 0.671,0.532 1.109,0.532c0.418,-0 0.848,-0.079 1.292,-0.236l0.119,0.578c-0.405,0.191 -0.879,0.286 -1.42,0.286c-0.682,0 -1.232,-0.229 -1.649,-0.688c-0.418,-0.459 -0.626,-1.078 -0.626,-1.858c-0,-0.764 0.187,-1.373 0.562,-1.827c0.375,-0.454 0.859,-0.682 1.453,-0.682c0.529,0 0.972,0.211 1.328,0.633c0.355,0.422 0.533,0.985 0.533,1.687l0,0.226Zm-0.75,-0.587c0,-0.375 -0.111,-0.692 -0.335,-0.949c-0.223,-0.257 -0.473,-0.386 -0.75,-0.386c-0.355,0 -0.65,0.123 -0.884,0.37c-0.234,0.246 -0.364,0.568 -0.39,0.965l2.359,0Z" style="fill:white;fill-rule:nonzero;"/>
            <path d="M246.831,316.737c-0.488,0.354 -1.054,0.531 -1.698,0.531c-0.805,0 -1.418,-0.289 -1.837,-0.868c-0.418,-0.579 -0.628,-1.417 -0.628,-2.514c0,-1.059 0.203,-1.889 0.609,-2.488c0.405,-0.599 1.024,-0.899 1.856,-0.899c0.3,0 0.597,0.04 0.891,0.12c0.294,0.081 0.531,0.187 0.71,0.319l-0.238,0.596c-0.414,-0.246 -0.869,-0.369 -1.363,-0.369c-0.573,-0 -0.999,0.218 -1.279,0.654c-0.279,0.435 -0.419,1.125 -0.419,2.067c0,1.811 0.566,2.717 1.698,2.717c0.48,0 0.971,-0.154 1.473,-0.462l0.225,0.596Z" style="fill:white;fill-rule:nonzero;"/>
            <path d="M250.236,312.214c0.632,-0 1.135,0.231 1.508,0.693c0.374,0.462 0.561,1.07 0.561,1.825c-0,0.761 -0.187,1.374 -0.561,1.839c-0.373,0.465 -0.876,0.697 -1.508,0.697c-0.635,0 -1.138,-0.231 -1.51,-0.695c-0.372,-0.464 -0.558,-1.077 -0.558,-1.841c-0,-0.758 0.186,-1.367 0.56,-1.828c0.373,-0.46 0.876,-0.69 1.508,-0.69Zm0,4.426c0.418,-0 0.747,-0.185 0.988,-0.554c0.241,-0.37 0.362,-0.818 0.362,-1.345c-0,-0.555 -0.119,-1.01 -0.358,-1.368c-0.238,-0.357 -0.568,-0.536 -0.992,-0.536c-0.426,0 -0.757,0.177 -0.992,0.529c-0.235,0.353 -0.353,0.811 -0.353,1.375c-0,0.536 0.119,0.986 0.357,1.351c0.238,0.365 0.568,0.548 0.988,0.548Z" style="fill:white;fill-rule:nonzero;"/>
            <path d="M257.553,317.144l-0.684,-0c-0.056,-0.194 -0.084,-0.453 -0.084,-0.777c-0.391,0.601 -0.923,0.901 -1.596,0.901c-0.341,0 -0.642,-0.127 -0.902,-0.381c-0.26,-0.254 -0.39,-0.581 -0.39,-0.982c-0,-0.237 0.045,-0.446 0.136,-0.628c0.092,-0.182 0.225,-0.335 0.402,-0.46c0.176,-0.125 0.391,-0.223 0.644,-0.296c0.253,-0.072 0.552,-0.122 0.899,-0.15l0.772,-0.064l0,-0.231c0,-0.826 -0.367,-1.239 -1.102,-1.239c-0.174,0 -0.394,0.04 -0.66,0.118c-0.266,0.079 -0.494,0.172 -0.686,0.28l-0.18,-0.518c0.626,-0.336 1.208,-0.503 1.746,-0.503c1.047,-0 1.57,0.58 1.57,1.741l0,2.07c0,0.419 0.038,0.792 0.115,1.119Zm-0.803,-1.428l0,-0.873c-0.62,0.058 -1.046,0.113 -1.277,0.164c-0.23,0.05 -0.43,0.145 -0.599,0.284c-0.169,0.138 -0.254,0.326 -0.254,0.563c-0,0.216 0.072,0.39 0.216,0.523c0.144,0.132 0.328,0.198 0.551,0.198c0.244,0 0.487,-0.076 0.728,-0.228c0.241,-0.153 0.453,-0.363 0.635,-0.631Z" style="fill:white;fill-rule:nonzero;"/>
            <path d="M262.929,312.458l-0.278,0.694c-0.303,-0.139 -0.564,-0.208 -0.785,-0.208c-0.203,-0 -0.401,0.06 -0.595,0.182c-0.194,0.122 -0.373,0.296 -0.536,0.522c-0.163,0.227 -0.245,0.354 -0.245,0.381l0,3.115l-0.683,-0l-0,-4.815l0.683,0l0,0.975c0.368,-0.727 0.844,-1.09 1.429,-1.09c0.347,-0 0.684,0.081 1.01,0.244Z" style="fill:white;fill-rule:nonzero;"/>
            <path d="M267.798,313.018c-0.385,-0.133 -0.748,-0.199 -1.089,-0.199c-0.374,-0 -0.669,0.065 -0.887,0.196c-0.217,0.131 -0.326,0.306 -0.326,0.525c-0,0.138 0.05,0.259 0.15,0.362c0.1,0.104 0.3,0.2 0.6,0.289l0.657,0.199c0.303,0.089 0.55,0.196 0.741,0.321c0.191,0.125 0.334,0.276 0.43,0.453c0.095,0.177 0.143,0.382 0.143,0.617c-0,0.459 -0.184,0.821 -0.551,1.088c-0.368,0.266 -0.835,0.399 -1.403,0.399c-0.564,0 -1.03,-0.089 -1.398,-0.268l0.132,-0.623c0.386,0.191 0.799,0.286 1.24,0.286c0.382,0 0.693,-0.075 0.933,-0.224c0.239,-0.149 0.359,-0.347 0.359,-0.594c-0,-0.166 -0.06,-0.315 -0.179,-0.446c-0.119,-0.131 -0.399,-0.267 -0.84,-0.409c-0.356,-0.114 -0.617,-0.199 -0.785,-0.256c-0.167,-0.057 -0.323,-0.141 -0.467,-0.252c-0.144,-0.111 -0.254,-0.243 -0.329,-0.397c-0.075,-0.154 -0.112,-0.327 -0.112,-0.518c-0,-0.415 0.173,-0.745 0.52,-0.988c0.347,-0.244 0.807,-0.365 1.38,-0.365c0.371,-0 0.783,0.066 1.235,0.198l-0.154,0.606Z" style="fill:white;fill-rule:nonzero;"/>
            <path d="M273.836,314.759l-3.154,0c0,0.546 0.151,0.995 0.452,1.35c0.302,0.354 0.672,0.531 1.11,0.531c0.417,-0 0.848,-0.079 1.292,-0.236l0.119,0.578c-0.406,0.191 -0.879,0.286 -1.42,0.286c-0.682,0 -1.232,-0.229 -1.65,-0.688c-0.417,-0.459 -0.626,-1.078 -0.626,-1.858c0,-0.763 0.188,-1.373 0.562,-1.827c0.375,-0.454 0.86,-0.681 1.454,-0.681c0.529,-0 0.971,0.211 1.327,0.633c0.356,0.422 0.534,0.984 0.534,1.686l-0,0.226Zm-0.75,-0.586c-0,-0.376 -0.112,-0.693 -0.335,-0.95c-0.224,-0.257 -0.474,-0.386 -0.75,-0.386c-0.356,0 -0.65,0.124 -0.884,0.37c-0.234,0.246 -0.364,0.568 -0.391,0.966l2.36,-0Z" style="fill:white;fill-rule:nonzero;"/>
            <path d="M246.441,246.482c-0.37,-0.132 -0.721,-0.198 -1.054,-0.198c-0.376,-0 -0.682,0.09 -0.919,0.27c-0.237,0.18 -0.355,0.437 -0.355,0.769c-0,0.395 0.31,0.741 0.93,1.04c0.459,0.222 0.763,0.376 0.911,0.462c0.149,0.086 0.299,0.205 0.452,0.356c0.153,0.151 0.276,0.329 0.368,0.533c0.093,0.205 0.139,0.435 0.139,0.691c0,0.635 -0.203,1.127 -0.61,1.476c-0.408,0.35 -0.888,0.525 -1.44,0.525c-0.536,-0 -1.004,-0.111 -1.407,-0.333l0.15,-0.651c0.473,0.224 0.886,0.337 1.239,0.337c0.412,-0 0.742,-0.112 0.99,-0.335c0.249,-0.223 0.373,-0.531 0.373,-0.922c-0,-0.289 -0.081,-0.535 -0.243,-0.737c-0.162,-0.202 -0.46,-0.407 -0.895,-0.617c-0.447,-0.215 -0.736,-0.362 -0.867,-0.441c-0.131,-0.078 -0.261,-0.187 -0.39,-0.326c-0.129,-0.138 -0.229,-0.294 -0.3,-0.466c-0.071,-0.173 -0.106,-0.361 -0.106,-0.564c0,-0.539 0.185,-0.96 0.556,-1.261c0.37,-0.302 0.839,-0.453 1.407,-0.453c0.414,-0 0.826,0.066 1.235,0.198l-0.164,0.647Z" style="fill:white;fill-rule:nonzero;"/>
            <path d="M252.316,252.281l-0.688,0l0,-3.086c0,-0.429 -0.065,-0.739 -0.196,-0.931c-0.131,-0.193 -0.336,-0.289 -0.615,-0.289c-0.421,-0 -0.872,0.274 -1.354,0.822l-0,3.484l-0.688,0l-0,-6.519l0.688,-0l-0,2.411c0.494,-0.548 1.014,-0.822 1.561,-0.822c0.861,-0 1.292,0.545 1.292,1.636l0,3.294Z" style="fill:white;fill-rule:nonzero;"/>
            <path d="M257.851,252.281l-0.684,0c-0.055,-0.194 -0.083,-0.453 -0.083,-0.776c-0.391,0.6 -0.924,0.901 -1.597,0.901c-0.341,-0 -0.642,-0.127 -0.902,-0.381c-0.26,-0.255 -0.39,-0.582 -0.39,-0.982c-0,-0.237 0.045,-0.447 0.137,-0.629c0.091,-0.181 0.224,-0.335 0.401,-0.459c0.176,-0.125 0.391,-0.224 0.644,-0.296c0.253,-0.072 0.553,-0.123 0.9,-0.15l0.771,-0.065l0,-0.231c0,-0.826 -0.367,-1.238 -1.102,-1.238c-0.174,-0 -0.394,0.039 -0.66,0.118c-0.266,0.078 -0.494,0.171 -0.685,0.279l-0.181,-0.517c0.626,-0.336 1.208,-0.504 1.746,-0.504c1.047,-0 1.57,0.581 1.57,1.742l0,2.07c0,0.419 0.039,0.792 0.115,1.118Zm-0.803,-1.428l0,-0.873c-0.62,0.059 -1.046,0.113 -1.276,0.164c-0.231,0.051 -0.431,0.146 -0.6,0.284c-0.169,0.139 -0.254,0.327 -0.254,0.564c0,0.216 0.072,0.39 0.216,0.522c0.144,0.132 0.328,0.199 0.552,0.199c0.244,-0 0.486,-0.077 0.727,-0.229c0.241,-0.152 0.453,-0.363 0.635,-0.631Z" style="fill:white;fill-rule:nonzero;"/>
            <path d="M260.303,248.09c0.153,-0.222 0.36,-0.4 0.62,-0.536c0.26,-0.135 0.534,-0.203 0.822,-0.203c0.53,-0 0.945,0.229 1.246,0.686c0.302,0.458 0.452,1.053 0.452,1.786c0,0.739 -0.158,1.354 -0.474,1.846c-0.316,0.491 -0.742,0.737 -1.277,0.737c-0.285,-0 -0.552,-0.075 -0.8,-0.224c-0.249,-0.15 -0.445,-0.348 -0.589,-0.594l0,2.597l-0.688,-0l0,-6.719l0.688,0l0,0.624Zm0,0.716l0,2.001c0.129,0.271 0.304,0.498 0.525,0.679c0.22,0.182 0.448,0.273 0.684,0.273c0.37,-0 0.665,-0.182 0.884,-0.545c0.219,-0.364 0.328,-0.815 0.328,-1.354c0,-0.555 -0.104,-1.007 -0.313,-1.359c-0.208,-0.351 -0.5,-0.526 -0.873,-0.526c-0.485,-0 -0.897,0.277 -1.235,0.831Z" style="fill:white;fill-rule:nonzero;"/>
            <path d="M268.714,249.897l-3.154,-0c0,0.545 0.151,0.995 0.452,1.349c0.302,0.354 0.671,0.531 1.109,0.531c0.418,0 0.849,-0.078 1.293,-0.235l0.119,0.577c-0.406,0.191 -0.879,0.287 -1.42,0.287c-0.682,-0 -1.232,-0.23 -1.65,-0.689c-0.417,-0.459 -0.626,-1.078 -0.626,-1.857c-0,-0.764 0.187,-1.373 0.562,-1.828c0.375,-0.454 0.86,-0.681 1.453,-0.681c0.53,-0 0.972,0.211 1.328,0.633c0.356,0.422 0.534,0.984 0.534,1.686l-0,0.227Zm-0.75,-0.587c-0,-0.376 -0.112,-0.692 -0.335,-0.949c-0.224,-0.258 -0.474,-0.386 -0.75,-0.386c-0.356,-0 -0.651,0.123 -0.884,0.369c-0.234,0.247 -0.364,0.569 -0.391,0.966l2.36,0Z" style="fill:white;fill-rule:nonzero;"/>
        </g>
        <g id="OSC-C" serif:id="OSC C">
            <rect id="BG5" serif:id="BG" x="236.569" y="75.244" width="115.184" height="128.773" style="fill:rgb(99,81,164);"/>
            <path id="Label3" serif:id="Label" d="M251.37,97.475c-0.955,0.744 -2.062,1.116 -3.322,1.116c-1.577,0 -2.775,-0.608 -3.594,-1.825c-0.82,-1.217 -1.23,-2.978 -1.23,-5.283c-0,-2.226 0.397,-3.969 1.191,-5.229c0.794,-1.259 2.005,-1.888 3.633,-1.888c0.587,-0 1.168,0.084 1.743,0.252c0.575,0.169 1.038,0.392 1.389,0.67l-0.466,1.253c-0.811,-0.518 -1.7,-0.777 -2.666,-0.777c-1.122,0 -1.956,0.458 -2.503,1.374c-0.546,0.916 -0.82,2.365 -0.82,4.345c0,3.807 1.108,5.71 3.323,5.71c0.938,0 1.898,-0.324 2.882,-0.971l0.44,1.253Z" style="fill:white;fill-rule:nonzero;"/>
            <path d="M245.286,145.681l-2.827,-0l0,-0.661l1.072,0l0,-5.198l-1.072,0l0,-0.661l2.827,0l0,0.661l-1.032,0l0,5.198l1.032,0l0,0.661Z" style="fill:white;fill-rule:nonzero;"/>
            <path d="M251.104,145.681l-0.688,-0l-0,-3.087c-0,-0.428 -0.066,-0.738 -0.197,-0.931c-0.131,-0.192 -0.336,-0.288 -0.615,-0.288c-0.42,-0 -0.872,0.274 -1.354,0.822l0,3.484l-0.688,-0l0,-4.815l0.688,0l0,0.707c0.494,-0.548 1.014,-0.822 1.561,-0.822c0.862,-0 1.293,0.545 1.293,1.635l-0,3.295Z" style="fill:white;fill-rule:nonzero;"/>
            <path d="M256.568,145.464c-0.462,0.221 -0.916,0.332 -1.363,0.332c-0.82,0 -1.23,-0.454 -1.23,-1.363l-0,-2.943l-0.882,0l-0,-0.624l0.882,0l-0,-1.316l0.67,-0l0,1.316l1.561,0l0,0.624l-1.561,0l0,2.754c0,0.293 0.062,0.52 0.185,0.681c0.124,0.162 0.291,0.243 0.503,0.243c0.376,-0 0.748,-0.088 1.116,-0.263l0.119,0.559Z" style="fill:white;fill-rule:nonzero;"/>
            <path d="M262.081,143.297l-3.154,-0c0,0.545 0.151,0.995 0.453,1.349c0.301,0.354 0.671,0.531 1.109,0.531c0.417,0 0.848,-0.078 1.292,-0.235l0.119,0.577c-0.406,0.191 -0.879,0.287 -1.42,0.287c-0.682,-0 -1.232,-0.23 -1.65,-0.689c-0.417,-0.459 -0.626,-1.078 -0.626,-1.857c0,-0.764 0.188,-1.373 0.563,-1.828c0.374,-0.454 0.859,-0.681 1.453,-0.681c0.529,-0 0.971,0.211 1.327,0.633c0.356,0.422 0.534,0.984 0.534,1.686l-0,0.227Zm-0.75,-0.587c0,-0.376 -0.112,-0.692 -0.335,-0.95c-0.224,-0.257 -0.473,-0.385 -0.75,-0.385c-0.356,-0 -0.65,0.123 -0.884,0.369c-0.234,0.247 -0.364,0.569 -0.39,0.966l2.359,-0Z" style="fill:white;fill-rule:nonzero;"/>
            <path d="M267.364,145.681l-0.688,-0l0,-3.087c0,-0.428 -0.065,-0.738 -0.196,-0.931c-0.131,-0.192 -0.336,-0.288 -0.615,-0.288c-0.421,-0 -0.872,0.274 -1.354,0.822l-0,3.484l-0.688,-0l-0,-4.815l0.688,0l-0,0.707c0.494,-0.548 1.014,-0.822 1.561,-0.822c0.862,-0 1.292,0.545 1.292,1.635l0,3.295Z" style="fill:white;fill-rule:nonzero;"/>
            <path d="M272.304,141.555c-0.385,-0.133 -0.748,-0.199 -1.089,-0.199c-0.374,0 -0.669,0.066 -0.887,0.196c-0.217,0.131 -0.326,0.306 -0.326,0.525c-0,0.139 0.05,0.259 0.15,0.363c0.1,0.103 0.3,0.199 0.6,0.288l0.657,0.199c0.303,0.089 0.55,0.196 0.741,0.321c0.191,0.125 0.334,0.276 0.43,0.453c0.095,0.177 0.143,0.383 0.143,0.617c-0,0.459 -0.184,0.822 -0.551,1.088c-0.368,0.266 -0.835,0.4 -1.403,0.4c-0.564,-0 -1.03,-0.09 -1.398,-0.268l0.132,-0.624c0.386,0.191 0.799,0.286 1.24,0.286c0.382,0 0.693,-0.074 0.933,-0.224c0.239,-0.149 0.359,-0.347 0.359,-0.593c-0,-0.167 -0.06,-0.315 -0.179,-0.446c-0.119,-0.131 -0.399,-0.268 -0.84,-0.409c-0.356,-0.114 -0.617,-0.2 -0.785,-0.257c-0.167,-0.057 -0.323,-0.141 -0.467,-0.252c-0.144,-0.11 -0.254,-0.243 -0.329,-0.397c-0.075,-0.154 -0.112,-0.326 -0.112,-0.517c-0,-0.416 0.173,-0.746 0.52,-0.989c0.347,-0.244 0.807,-0.365 1.38,-0.365c0.371,-0 0.783,0.066 1.235,0.199l-0.154,0.605Z" style="fill:white;fill-rule:nonzero;"/>
            <path d="M276.723,139.046c0.13,-0 0.24,0.048 0.331,0.145c0.091,0.097 0.137,0.214 0.137,0.349c-0,0.142 -0.045,0.261 -0.135,0.356c-0.09,0.096 -0.201,0.143 -0.333,0.143c-0.12,0 -0.227,-0.05 -0.32,-0.15c-0.092,-0.1 -0.139,-0.216 -0.139,-0.349c0,-0.132 0.047,-0.248 0.139,-0.346c0.093,-0.099 0.2,-0.148 0.32,-0.148Zm0.335,6.635l-0.688,-0l0,-4.191l-1.354,0l0,-0.624l2.042,0l0,4.815Z" style="fill:white;fill-rule:nonzero;"/>
            <path d="M283.669,145.464c-0.461,0.221 -0.915,0.332 -1.362,0.332c-0.821,0 -1.231,-0.454 -1.231,-1.363l0,-2.943l-0.882,0l0,-0.624l0.882,0l0,-1.316l0.67,-0l0,1.316l1.562,0l-0,0.624l-1.562,0l0,2.754c0,0.293 0.062,0.52 0.186,0.681c0.123,0.162 0.291,0.243 0.502,0.243c0.377,-0 0.749,-0.088 1.116,-0.263l0.119,0.559Z" style="fill:white;fill-rule:nonzero;"/>
            <path d="M289.253,140.866l-1.742,4.815c-0.253,0.708 -0.504,1.203 -0.752,1.483c-0.249,0.28 -0.532,0.421 -0.849,0.421c-0.282,-0 -0.562,-0.054 -0.838,-0.162l0.115,-0.578c0.223,0.074 0.423,0.111 0.599,0.111c0.247,0 0.45,-0.1 0.609,-0.3c0.159,-0.2 0.319,-0.528 0.481,-0.984l-1.725,-4.806l0.75,0l1.301,3.84l1.301,-3.84l0.75,0Z" style="fill:white;fill-rule:nonzero;"/>
            <path d="M246.536,162.292l-2.576,-0l0,2.13l2.347,-0l-0,0.66l-2.347,0l0,3.068l-0.723,0l-0,-6.519l3.299,-0l-0,0.661Z" style="fill:white;fill-rule:nonzero;"/>
            <path d="M250.536,161.515c0.129,0 0.24,0.049 0.331,0.146c0.091,0.097 0.137,0.213 0.137,0.349c-0,0.142 -0.045,0.26 -0.135,0.356c-0.09,0.095 -0.201,0.143 -0.333,0.143c-0.121,-0 -0.227,-0.05 -0.32,-0.15c-0.092,-0.1 -0.139,-0.217 -0.139,-0.349c0,-0.133 0.047,-0.248 0.139,-0.347c0.093,-0.098 0.199,-0.148 0.32,-0.148Zm0.335,6.635l-0.688,0l0,-4.19l-1.354,-0l0,-0.624l2.042,-0l0,4.814Z" style="fill:white;fill-rule:nonzero;"/>
            <path d="M257.438,168.15l-0.688,0l0,-3.086c0,-0.428 -0.065,-0.739 -0.196,-0.931c-0.131,-0.193 -0.336,-0.289 -0.615,-0.289c-0.421,0 -0.872,0.274 -1.354,0.823l-0,3.483l-0.688,0l-0,-4.814l0.688,-0l-0,0.707c0.494,-0.548 1.014,-0.823 1.561,-0.823c0.861,0 1.292,0.546 1.292,1.636l0,3.294Z" style="fill:white;fill-rule:nonzero;"/>
            <path d="M262.995,165.766l-3.153,0c-0,0.545 0.15,0.995 0.452,1.349c0.301,0.355 0.671,0.532 1.109,0.532c0.418,-0 0.848,-0.079 1.292,-0.236l0.119,0.578c-0.405,0.191 -0.879,0.286 -1.42,0.286c-0.682,0 -1.232,-0.229 -1.649,-0.688c-0.418,-0.459 -0.626,-1.078 -0.626,-1.858c-0,-0.764 0.187,-1.373 0.562,-1.827c0.375,-0.454 0.859,-0.682 1.453,-0.682c0.529,0 0.972,0.211 1.328,0.633c0.355,0.422 0.533,0.985 0.533,1.687l0,0.226Zm-0.75,-0.587c0,-0.375 -0.111,-0.692 -0.335,-0.949c-0.223,-0.257 -0.473,-0.386 -0.75,-0.386c-0.355,0 -0.65,0.123 -0.884,0.37c-0.234,0.246 -0.364,0.568 -0.39,0.965l2.359,0Z" style="fill:white;fill-rule:nonzero;"/>
            <path d="M246.831,187.964c-0.488,0.354 -1.054,0.531 -1.698,0.531c-0.805,0 -1.418,-0.289 -1.837,-0.868c-0.418,-0.579 -0.628,-1.417 -0.628,-2.514c0,-1.059 0.203,-1.889 0.609,-2.488c0.405,-0.599 1.024,-0.899 1.856,-0.899c0.3,0 0.597,0.04 0.891,0.121c0.294,0.08 0.531,0.186 0.71,0.318l-0.238,0.596c-0.414,-0.246 -0.869,-0.369 -1.363,-0.369c-0.573,-0 -0.999,0.218 -1.279,0.654c-0.279,0.435 -0.419,1.125 -0.419,2.067c0,1.811 0.566,2.717 1.698,2.717c0.48,0 0.971,-0.154 1.473,-0.462l0.225,0.596Z" style="fill:white;fill-rule:nonzero;"/>
            <path d="M250.236,183.441c0.632,-0 1.135,0.231 1.508,0.693c0.374,0.462 0.561,1.07 0.561,1.825c-0,0.761 -0.187,1.374 -0.561,1.839c-0.373,0.465 -0.876,0.697 -1.508,0.697c-0.635,0 -1.138,-0.231 -1.51,-0.695c-0.372,-0.464 -0.558,-1.077 -0.558,-1.841c-0,-0.758 0.186,-1.367 0.56,-1.828c0.373,-0.46 0.876,-0.69 1.508,-0.69Zm0,4.426c0.418,0 0.747,-0.185 0.988,-0.554c0.241,-0.37 0.362,-0.818 0.362,-1.345c-0,-0.554 -0.119,-1.01 -0.358,-1.368c-0.238,-0.357 -0.568,-0.536 -0.992,-0.536c-0.426,0 -0.757,0.177 -0.992,0.529c-0.235,0.353 -0.353,0.811 -0.353,1.375c-0,0.536 0.119,0.986 0.357,1.351c0.238,0.366 0.568,0.548 0.988,0.548Z" style="fill:white;fill-rule:nonzero;"/>
            <path d="M257.553,188.371l-0.684,-0c-0.056,-0.194 -0.084,-0.453 -0.084,-0.777c-0.391,0.601 -0.923,0.901 -1.596,0.901c-0.341,0 -0.642,-0.127 -0.902,-0.381c-0.26,-0.254 -0.39,-0.581 -0.39,-0.982c-0,-0.237 0.045,-0.446 0.136,-0.628c0.092,-0.182 0.225,-0.335 0.402,-0.46c0.176,-0.125 0.391,-0.223 0.644,-0.295c0.253,-0.073 0.552,-0.123 0.899,-0.151l0.772,-0.064l0,-0.231c0,-0.826 -0.367,-1.239 -1.102,-1.239c-0.174,0 -0.394,0.04 -0.66,0.118c-0.266,0.079 -0.494,0.172 -0.686,0.28l-0.18,-0.518c0.626,-0.336 1.208,-0.503 1.746,-0.503c1.047,-0 1.57,0.58 1.57,1.742l0,2.069c0,0.419 0.038,0.792 0.115,1.119Zm-0.803,-1.428l0,-0.873c-0.62,0.058 -1.046,0.113 -1.277,0.164c-0.23,0.051 -0.43,0.145 -0.599,0.284c-0.169,0.138 -0.254,0.326 -0.254,0.564c-0,0.215 0.072,0.389 0.216,0.522c0.144,0.132 0.328,0.198 0.551,0.198c0.244,0 0.487,-0.076 0.728,-0.228c0.241,-0.153 0.453,-0.363 0.635,-0.631Z" style="fill:white;fill-rule:nonzero;"/>
            <path d="M262.929,183.685l-0.278,0.694c-0.303,-0.139 -0.564,-0.208 -0.785,-0.208c-0.203,-0 -0.401,0.06 -0.595,0.182c-0.194,0.122 -0.373,0.296 -0.536,0.522c-0.163,0.227 -0.245,0.354 -0.245,0.381l0,3.115l-0.683,-0l-0,-4.815l0.683,0l0,0.975c0.368,-0.727 0.844,-1.09 1.429,-1.09c0.347,-0 0.684,0.081 1.01,0.244Z" style="fill:white;fill-rule:nonzero;"/>
            <path d="M267.798,184.245c-0.385,-0.133 -0.748,-0.199 -1.089,-0.199c-0.374,-0 -0.669,0.065 -0.887,0.196c-0.217,0.131 -0.326,0.306 -0.326,0.525c-0,0.138 0.05,0.259 0.15,0.362c0.1,0.104 0.3,0.2 0.6,0.289l0.657,0.199c0.303,0.089 0.55,0.196 0.741,0.321c0.191,0.125 0.334,0.276 0.43,0.453c0.095,0.177 0.143,0.383 0.143,0.617c-0,0.459 -0.184,0.821 -0.551,1.088c-0.368,0.266 -0.835,0.399 -1.403,0.399c-0.564,0 -1.03,-0.089 -1.398,-0.268l0.132,-0.623c0.386,0.191 0.799,0.286 1.24,0.286c0.382,0 0.693,-0.075 0.933,-0.224c0.239,-0.149 0.359,-0.347 0.359,-0.594c-0,-0.166 -0.06,-0.315 -0.179,-0.446c-0.119,-0.13 -0.399,-0.267 -0.84,-0.408c-0.356,-0.114 -0.617,-0.2 -0.785,-0.257c-0.167,-0.057 -0.323,-0.141 -0.467,-0.252c-0.144,-0.111 -0.254,-0.243 -0.329,-0.397c-0.075,-0.154 -0.112,-0.327 -0.112,-0.518c-0,-0.415 0.173,-0.745 0.52,-0.988c0.347,-0.244 0.807,-0.365 1.38,-0.365c0.371,-0 0.783,0.066 1.235,0.198l-0.154,0.606Z" style="fill:white;fill-rule:nonzero;"/>
            <path d="M273.836,185.986l-3.154,0c0,0.546 0.151,0.995 0.452,1.35c0.302,0.354 0.672,0.531 1.11,0.531c0.417,0 0.848,-0.079 1.292,-0.236l0.119,0.578c-0.406,0.191 -0.879,0.286 -1.42,0.286c-0.682,0 -1.232,-0.229 -1.65,-0.688c-0.417,-0.459 -0.626,-1.078 -0.626,-1.857c0,-0.764 0.188,-1.374 0.562,-1.828c0.375,-0.454 0.86,-0.681 1.454,-0.681c0.529,-0 0.971,0.211 1.327,0.633c0.356,0.422 0.534,0.984 0.534,1.686l-0,0.226Zm-0.75,-0.586c-0,-0.376 -0.112,-0.693 -0.335,-0.95c-0.224,-0.257 -0.474,-0.386 -0.75,-0.386c-0.356,0 -0.65,0.124 -0.884,0.37c-0.234,0.246 -0.364,0.568 -0.391,0.966l2.36,-0Z" style="fill:white;fill-rule:nonzero;"/>
            <path d="M246.441,117.709c-0.37,-0.132 -0.721,-0.198 -1.054,-0.198c-0.376,-0 -0.682,0.09 -0.919,0.27c-0.237,0.18 -0.355,0.437 -0.355,0.769c-0,0.395 0.31,0.741 0.93,1.04c0.459,0.222 0.763,0.376 0.911,0.462c0.149,0.086 0.299,0.205 0.452,0.356c0.153,0.151 0.276,0.329 0.368,0.533c0.093,0.205 0.139,0.435 0.139,0.691c0,0.635 -0.203,1.127 -0.61,1.476c-0.408,0.35 -0.888,0.525 -1.44,0.525c-0.536,-0 -1.004,-0.111 -1.407,-0.333l0.15,-0.651c0.473,0.225 0.886,0.337 1.239,0.337c0.412,-0 0.742,-0.112 0.99,-0.335c0.249,-0.223 0.373,-0.531 0.373,-0.922c-0,-0.289 -0.081,-0.535 -0.243,-0.737c-0.162,-0.202 -0.46,-0.407 -0.895,-0.617c-0.447,-0.215 -0.736,-0.362 -0.867,-0.441c-0.131,-0.078 -0.261,-0.187 -0.39,-0.326c-0.129,-0.138 -0.229,-0.294 -0.3,-0.466c-0.071,-0.173 -0.106,-0.361 -0.106,-0.564c0,-0.539 0.185,-0.96 0.556,-1.261c0.37,-0.302 0.839,-0.453 1.407,-0.453c0.414,-0 0.826,0.066 1.235,0.199l-0.164,0.646Z" style="fill:white;fill-rule:nonzero;"/>
            <path d="M252.316,123.508l-0.688,0l0,-3.086c0,-0.429 -0.065,-0.739 -0.196,-0.931c-0.131,-0.193 -0.336,-0.289 -0.615,-0.289c-0.421,-0 -0.872,0.274 -1.354,0.822l-0,3.484l-0.688,0l-0,-6.519l0.688,-0l-0,2.411c0.494,-0.548 1.014,-0.822 1.561,-0.822c0.861,0 1.292,0.545 1.292,1.636l0,3.294Z" style="fill:white;fill-rule:nonzero;"/>
            <path d="M257.851,123.508l-0.684,0c-0.055,-0.194 -0.083,-0.453 -0.083,-0.776c-0.391,0.6 -0.924,0.901 -1.597,0.901c-0.341,-0 -0.642,-0.127 -0.902,-0.381c-0.26,-0.255 -0.39,-0.582 -0.39,-0.982c-0,-0.237 0.045,-0.447 0.137,-0.629c0.091,-0.181 0.224,-0.335 0.401,-0.459c0.176,-0.125 0.391,-0.224 0.644,-0.296c0.253,-0.072 0.553,-0.123 0.9,-0.15l0.771,-0.065l0,-0.231c0,-0.825 -0.367,-1.238 -1.102,-1.238c-0.174,-0 -0.394,0.039 -0.66,0.118c-0.266,0.078 -0.494,0.171 -0.685,0.279l-0.181,-0.517c0.626,-0.336 1.208,-0.504 1.746,-0.504c1.047,0 1.57,0.581 1.57,1.742l0,2.07c0,0.419 0.039,0.792 0.115,1.118Zm-0.803,-1.428l0,-0.873c-0.62,0.059 -1.046,0.113 -1.276,0.164c-0.231,0.051 -0.431,0.146 -0.6,0.284c-0.169,0.139 -0.254,0.327 -0.254,0.564c0,0.216 0.072,0.39 0.216,0.522c0.144,0.133 0.328,0.199 0.552,0.199c0.244,-0 0.486,-0.076 0.727,-0.229c0.241,-0.152 0.453,-0.363 0.635,-0.631Z" style="fill:white;fill-rule:nonzero;"/>
            <path d="M260.303,119.317c0.153,-0.221 0.36,-0.4 0.62,-0.536c0.26,-0.135 0.534,-0.203 0.822,-0.203c0.53,0 0.945,0.229 1.246,0.686c0.302,0.458 0.452,1.053 0.452,1.786c0,0.739 -0.158,1.355 -0.474,1.846c-0.316,0.491 -0.742,0.737 -1.277,0.737c-0.285,-0 -0.552,-0.075 -0.8,-0.224c-0.249,-0.15 -0.445,-0.348 -0.589,-0.594l0,2.597l-0.688,-0l0,-6.718l0.688,-0l0,0.623Zm0,0.716l0,2.001c0.129,0.271 0.304,0.498 0.525,0.679c0.22,0.182 0.448,0.273 0.684,0.273c0.37,-0 0.665,-0.182 0.884,-0.545c0.219,-0.364 0.328,-0.815 0.328,-1.354c0,-0.555 -0.104,-1.007 -0.313,-1.358c-0.208,-0.352 -0.5,-0.527 -0.873,-0.527c-0.485,-0 -0.897,0.277 -1.235,0.831Z" style="fill:white;fill-rule:nonzero;"/>
            <path d="M268.714,121.124l-3.154,-0c0,0.545 0.151,0.995 0.452,1.349c0.302,0.354 0.671,0.531 1.109,0.531c0.418,0 0.849,-0.078 1.293,-0.235l0.119,0.577c-0.406,0.191 -0.879,0.287 -1.42,0.287c-0.682,-0 -1.232,-0.23 -1.65,-0.689c-0.417,-0.459 -0.626,-1.078 -0.626,-1.857c-0,-0.764 0.187,-1.373 0.562,-1.827c0.375,-0.455 0.86,-0.682 1.453,-0.682c0.53,0 0.972,0.211 1.328,0.633c0.356,0.422 0.534,0.984 0.534,1.686l-0,0.227Zm-0.75,-0.587c-0,-0.376 -0.112,-0.692 -0.335,-0.949c-0.224,-0.258 -0.474,-0.386 -0.75,-0.386c-0.356,-0 -0.651,0.123 -0.884,0.369c-0.234,0.247 -0.364,0.569 -0.391,0.966l2.36,0Z" style="fill:white;fill-rule:nonzero;"/>
        </g>
    </g>
    <g id="Circles">
        <circle cx="389.96" cy="174.693" r="7.087" style="fill:rgb(255,202,201);stroke:rgb(178,71,71);stroke-width:0.5px;stroke-linecap:square;"/>
        <circle cx="292.345" cy="113.478" r="7.087" style="fill:rgb(255,202,201);stroke:rgb(178,71,71);stroke-width:0.5px;stroke-linecap:square;"/>
        <circle cx="292.345" cy="132.32" r="7.087" style="fill:rgb(255,202,201);stroke:rgb(178,71,71);stroke-width:0.5px;stroke-linecap:square;"/>
        <circle cx="292.345" cy="248.609" r="7.087" style="fill:rgb(255,202,201);stroke:rgb(178,71,71);stroke-width:0.5px;stroke-linecap:square;"/>
        <circle cx="389.96" cy="265.564" r="7.087" style="fill:rgb(255,202,201);stroke:rgb(178,71,71);stroke-width:0.5px;stroke-linecap:square;"/>
        <circle cx="389.96" cy="93.608" r="7.087" style="fill:rgb(255,202,201);stroke:rgb(178,71,71);stroke-width:0.5px;stroke-linecap:square;"/>
    </g>
</svg>
