<?xml version="1.0" encoding="UTF-8" standalone="no"?>
<!DOCTYPE svg PUBLIC "-//W3C//DTD SVG 1.1//EN" "http://www.w3.org/Graphics/SVG/1.1/DTD/svg11.dtd">
<svg width="216px" height="365px" version="1.1" xmlns="http://www.w3.org/2000/svg" xmlns:xlink="http://www.w3.org/1999/xlink" xml:space="preserve" xmlns:serif="http://www.serif.com/" style="fill-rule:evenodd;clip-rule:evenodd;stroke-linecap:round;stroke-linejoin:round;stroke-miterlimit:1.5;">
    <rect id="background" x="-0" y="0" width="216" height="364.252" style="fill:rgb(107,82,193);"/>
    <g id="components">
    </g>
    <g>
        <path d="M11.368,355.837l-3.883,-10.021l1.436,-0l2.604,7.28c0.21,0.584 0.386,1.13 0.527,1.641c0.155,-0.547 0.335,-1.094 0.54,-1.641l2.707,-7.28l1.353,-0l-3.923,10.021l-1.361,0Z" style="fill-rule:nonzero;"/>
        <path d="M16.762,356.008l2.905,-10.363l0.984,0l-2.898,10.363l-0.991,0Z" style="fill-rule:nonzero;"/>
        <path d="M21.328,350.957c0,-1.664 0.447,-2.966 1.34,-3.907c0.893,-0.941 2.046,-1.412 3.459,-1.412c0.925,0 1.759,0.221 2.502,0.663c0.743,0.442 1.309,1.059 1.699,1.849c0.389,0.791 0.584,1.688 0.584,2.69c0,1.017 -0.205,1.926 -0.615,2.728c-0.41,0.802 -0.991,1.409 -1.743,1.822c-0.752,0.412 -1.563,0.618 -2.434,0.618c-0.943,0 -1.786,-0.228 -2.529,-0.683c-0.743,-0.456 -1.306,-1.078 -1.689,-1.867c-0.382,-0.788 -0.574,-1.622 -0.574,-2.501Zm1.367,0.02c0,1.208 0.325,2.159 0.974,2.854c0.65,0.695 1.464,1.043 2.444,1.043c0.998,-0 1.82,-0.351 2.465,-1.053c0.645,-0.702 0.967,-1.698 0.967,-2.988c-0,-0.815 -0.138,-1.527 -0.414,-2.136c-0.275,-0.608 -0.679,-1.08 -1.21,-1.415c-0.531,-0.335 -1.126,-0.502 -1.787,-0.502c-0.939,-0 -1.747,0.322 -2.424,0.967c-0.676,0.645 -1.015,1.722 -1.015,3.23Z" style="fill-rule:nonzero;"/>
        <path d="M39.772,352.324l1.326,0.335c-0.278,1.089 -0.778,1.919 -1.501,2.491c-0.722,0.572 -1.605,0.858 -2.649,0.858c-1.08,0 -1.958,-0.22 -2.635,-0.659c-0.677,-0.44 -1.192,-1.077 -1.545,-1.911c-0.353,-0.834 -0.53,-1.73 -0.53,-2.687c0,-1.043 0.2,-1.953 0.598,-2.73c0.399,-0.778 0.967,-1.368 1.703,-1.771c0.736,-0.403 1.546,-0.605 2.43,-0.605c1.002,0 1.845,0.255 2.529,0.766c0.684,0.51 1.16,1.228 1.429,2.153l-1.306,0.308c-0.232,-0.73 -0.57,-1.261 -1.012,-1.593c-0.442,-0.333 -0.998,-0.499 -1.668,-0.499c-0.77,-0 -1.413,0.184 -1.931,0.553c-0.517,0.37 -0.88,0.865 -1.09,1.487c-0.21,0.622 -0.315,1.264 -0.315,1.925c0,0.852 0.125,1.596 0.373,2.232c0.248,0.635 0.635,1.11 1.159,1.425c0.524,0.314 1.091,0.472 1.702,0.472c0.743,-0 1.372,-0.215 1.887,-0.643c0.515,-0.428 0.863,-1.064 1.046,-1.907Z" style="fill-rule:nonzero;"/>
        <path d="M45.281,355.837l0,-8.838l-3.301,-0l-0,-1.183l7.943,-0l-0,1.183l-3.316,-0l0,8.838l-1.326,0Z" style="fill-rule:nonzero;"/>
        <path d="M87.874,355.837l0,-10.021l1.996,-0l2.372,7.096c0.219,0.66 0.378,1.155 0.479,1.483c0.114,-0.365 0.291,-0.9 0.533,-1.606l2.399,-6.973l1.784,-0l0,10.021l-1.278,0l0,-8.387l-2.912,8.387l-1.196,0l-2.899,-8.531l0,8.531l-1.278,0Z" style="fill-rule:nonzero;"/>
        <path d="M98.962,352.208c-0,-1.345 0.374,-2.341 1.121,-2.988c0.624,-0.538 1.385,-0.806 2.283,-0.806c0.998,-0 1.814,0.327 2.447,0.981c0.634,0.653 0.951,1.557 0.951,2.71c-0,0.934 -0.14,1.669 -0.421,2.205c-0.28,0.535 -0.688,0.951 -1.223,1.247c-0.536,0.296 -1.12,0.444 -1.754,0.444c-1.016,0 -1.838,-0.325 -2.464,-0.977c-0.627,-0.652 -0.94,-1.591 -0.94,-2.816Zm1.265,-0c-0,0.929 0.202,1.625 0.608,2.088c0.406,0.462 0.916,0.694 1.531,0.694c0.611,-0 1.119,-0.233 1.525,-0.698c0.405,-0.464 0.608,-1.173 0.608,-2.126c0,-0.897 -0.204,-1.577 -0.612,-2.04c-0.408,-0.463 -0.915,-0.694 -1.521,-0.694c-0.615,0 -1.125,0.23 -1.531,0.691c-0.406,0.46 -0.608,1.155 -0.608,2.085Z" style="fill-rule:nonzero;"/>
        <path d="M111.916,355.837l0,-0.916c-0.46,0.72 -1.137,1.08 -2.03,1.08c-0.579,0 -1.111,-0.159 -1.596,-0.478c-0.486,-0.319 -0.862,-0.765 -1.128,-1.336c-0.267,-0.572 -0.4,-1.23 -0.4,-1.973c-0,-0.724 0.12,-1.382 0.362,-1.972c0.242,-0.59 0.604,-1.042 1.087,-1.357c0.483,-0.314 1.023,-0.471 1.62,-0.471c0.438,-0 0.827,0.092 1.169,0.276c0.342,0.185 0.62,0.425 0.834,0.722l-0,-3.596l1.224,-0l-0,10.021l-1.142,0Zm-3.89,-3.623c0,0.93 0.196,1.625 0.588,2.085c0.392,0.461 0.855,0.691 1.388,0.691c0.538,-0 0.995,-0.22 1.371,-0.66c0.376,-0.44 0.564,-1.111 0.564,-2.013c-0,-0.994 -0.192,-1.723 -0.575,-2.188c-0.383,-0.464 -0.854,-0.697 -1.415,-0.697c-0.547,0 -1.003,0.223 -1.37,0.67c-0.367,0.447 -0.551,1.151 -0.551,2.112Z" style="fill-rule:nonzero;"/>
        <path d="M117.166,355.837l3.849,-10.021l1.428,-0l4.102,10.021l-1.511,0l-1.169,-3.035l-4.19,0l-1.101,3.035l-1.408,0Zm2.892,-4.115l3.397,0l-1.046,-2.775c-0.319,-0.843 -0.556,-1.536 -0.711,-2.078c-0.127,0.642 -0.307,1.28 -0.54,1.914l-1.1,2.939Z" style="fill-rule:nonzero;"/>
        <path d="M172.742,351.107c-0,-1.021 0.153,-1.877 0.458,-2.57c0.228,-0.51 0.539,-0.969 0.933,-1.374c0.394,-0.406 0.826,-0.706 1.295,-0.902c0.625,-0.265 1.345,-0.397 2.161,-0.397c1.476,0 2.658,0.458 3.544,1.374c0.886,0.916 1.33,2.19 1.33,3.821c-0,1.618 -0.44,2.884 -1.32,3.798c-0.879,0.913 -2.055,1.37 -3.527,1.37c-1.49,0 -2.675,-0.454 -3.555,-1.363c-0.879,-0.91 -1.319,-2.162 -1.319,-3.757Zm2.085,-0.068c-0,1.135 0.262,1.995 0.786,2.58c0.524,0.586 1.19,0.879 1.996,0.879c0.807,-0 1.469,-0.291 1.986,-0.872c0.517,-0.581 0.776,-1.452 0.776,-2.614c-0,-1.149 -0.252,-2.006 -0.756,-2.571c-0.503,-0.565 -1.172,-0.847 -2.006,-0.847c-0.834,-0 -1.506,0.286 -2.016,0.857c-0.511,0.572 -0.766,1.435 -0.766,2.588Z" style="fill-rule:nonzero;"/>
        <path d="M184.028,346.035l2.024,-0l-0,5.428c-0,0.861 0.025,1.419 0.075,1.675c0.086,0.41 0.293,0.739 0.618,0.987c0.326,0.249 0.772,0.373 1.337,0.373c0.574,-0 1.007,-0.117 1.299,-0.352c0.291,-0.235 0.467,-0.523 0.526,-0.865c0.059,-0.342 0.089,-0.909 0.089,-1.702l-0,-5.544l2.023,-0l0,5.264c0,1.203 -0.054,2.053 -0.164,2.549c-0.109,0.497 -0.311,0.916 -0.605,1.258c-0.294,0.342 -0.687,0.614 -1.179,0.817c-0.492,0.203 -1.135,0.304 -1.928,0.304c-0.957,0 -1.682,-0.11 -2.177,-0.331c-0.494,-0.221 -0.885,-0.508 -1.172,-0.862c-0.287,-0.353 -0.477,-0.723 -0.568,-1.11c-0.132,-0.575 -0.198,-1.422 -0.198,-2.543l0,-5.346Z" style="fill-rule:nonzero;"/>
        <path d="M196.408,356.056l-0,-8.326l-2.974,0l0,-1.695l7.964,-0l0,1.695l-2.967,0l0,8.326l-2.023,0Z" style="fill-rule:nonzero;"/>
    </g>
    <path id="title" d="M57.973,38.462l-0,-26.016l9.07,0c3.164,0 5.423,0.53 6.776,1.591c1.354,1.06 2.031,2.833 2.031,5.317c-0,2.813 -0.906,5.001 -2.716,6.566c-1.811,1.564 -4.345,2.346 -7.603,2.346l-2.25,0l0,10.196l-5.308,-0Zm5.308,-13.764l1.055,-0c1.852,-0 3.313,-0.431 4.386,-1.292c1.072,-0.861 1.608,-2.03 1.608,-3.507c0,-2.59 -1.646,-3.885 -4.939,-3.885l-2.11,0l0,8.684Z" style="fill:white;fill-rule:nonzero;"/>
    <path d="M80.051,38.462l-0,-19.301l5.203,-0l-0,3.639c1.348,-2.719 3.398,-4.079 6.152,-4.079c0.328,0 0.651,0.036 0.967,0.106l0,4.641c-0.738,-0.27 -1.424,-0.405 -2.057,-0.405c-2.074,0 -3.761,1.049 -5.062,3.147l-0,12.252l-5.203,-0Z" style="fill:white;fill-rule:nonzero;"/>
    <path d="M96.416,38.462l0,-19.301l5.203,-0l0,19.301l-5.203,-0Zm0,-22.553l0,-4.342l5.203,0l0,4.342l-5.203,-0Z" style="fill:white;fill-rule:nonzero;"/>
    <path d="M107.033,38.462l0,-3.463l10.793,-12.586l-10.301,-0l0,-3.252l16.454,-0l-0,3.252l-10.793,12.586l11.003,-0l0,3.463l-17.156,-0Z" style="fill:white;fill-rule:nonzero;"/>
    <path d="M129.393,38.462l-0,-19.301l4.992,-0l-0,3.639c1.523,-2.719 3.691,-4.079 6.504,-4.079c1.453,0 2.648,0.358 3.586,1.073c0.937,0.715 1.511,1.716 1.722,3.006c1.805,-2.719 3.985,-4.079 6.539,-4.079c3.528,0 5.291,1.946 5.291,5.836l0,13.905l-4.992,-0l0,-12.2c0,-2.285 -0.762,-3.427 -2.285,-3.427c-1.559,-0 -3.076,1.125 -4.553,3.375l0,12.252l-4.992,-0l0,-12.2c0,-2.296 -0.767,-3.445 -2.303,-3.445c-1.535,0 -3.041,1.131 -4.517,3.393l-0,12.252l-4.992,-0Z" style="fill:white;fill-rule:nonzero;"/>
    <g>
        <path d="M74.567,211.829l88.816,-0l-88.816,-0Z" style="fill:none;stroke:rgb(39,255,0);stroke-width:1px;"/>
        <path d="M74.567,127.802l0,84.027l88.816,-0l-0,-83.961l-88.816,-0.066Z" style="fill:none;stroke:rgb(39,255,0);stroke-width:1px;"/>
        <g>
            <path d="M52.617,236.45l88.816,0l-88.816,0Z" style="fill:none;stroke:rgb(39,255,0);stroke-width:1px;"/>
            <path d="M52.617,152.423l0,84.027l88.816,0l-0,-83.961l-88.816,-0.066Z" style="fill:none;stroke:rgb(39,255,0);stroke-width:1px;"/>
        </g>
        <path d="M52.617,152.423l21.95,-24.621l88.816,-0l-21.95,24.621l-0,84.027l21.95,-24.621l-88.816,-0l-21.95,24.621" style="fill:none;stroke:rgb(39,255,0);stroke-width:1px;"/>
    </g>
    <rect x="-0" y="90.698" width="70.987" height="25.512" style="fill:rgb(114,97,177);"/>
    <rect x="145.013" y="90.698" width="70.987" height="25.512" style="fill:rgb(114,97,177);"/>
    <rect x="-0" y="255.658" width="70.987" height="25.512" style="fill:rgb(114,97,177);"/>
    <rect x="145.013" y="255.658" width="70.987" height="25.512" style="fill:rgb(114,97,177);"/>
    <circle cx="185.669" cy="327.402" r="12.756" style="fill:rgb(114,97,177);"/>
</svg>
