<?xml version="1.0" encoding="UTF-8" standalone="no"?>
<!DOCTYPE svg PUBLIC "-//W3C//DTD SVG 1.1//EN" "http://www.w3.org/Graphics/SVG/1.1/DTD/svg11.dtd">
<svg width="900px" height="1518px" version="1.1" xmlns="http://www.w3.org/2000/svg" xmlns:xlink="http://www.w3.org/1999/xlink" xml:space="preserve" xmlns:serif="http://www.serif.com/" style="fill-rule:evenodd;clip-rule:evenodd;stroke-linecap:round;stroke-linejoin:round;stroke-miterlimit:1.5;">
    <rect id="background" x="-0" y="-0" width="900" height="1517.72" style="fill:rgb(153,83,199);"/>
    <g id="Prizm">
        <path d="M161.362,231.4l-0,-47.435" style="fill:none;stroke:rgb(167,204,255);stroke-width:1px;"/>
        <path d="M648.317,345.35l0,-63.464" style="fill:none;stroke:rgb(167,204,255);stroke-width:1px;"/>
        <path d="M734.46,183.965l-0,-50.16" style="fill:none;stroke:rgb(167,204,255);stroke-width:1px;"/>
        <path d="M259.747,81.225l0.788,-51.726" style="fill:none;stroke:rgb(167,204,255);stroke-width:1px;"/>
        <path d="M161.362,183.965l99.173,-154.466" style="fill:none;stroke:rgb(167,204,255);stroke-width:1px;"/>
        <path d="M734.46,133.805l-473.925,-104.306" style="fill:none;stroke:rgb(167,204,255);stroke-width:1px;"/>
        <path d="M648.362,280.341l86.098,-146.536" style="fill:none;stroke:rgb(167,204,255);stroke-width:1px;"/>
        <path d="M648.362,280.341l-487,-96.376" style="fill:none;stroke:rgb(167,204,255);stroke-width:1px;"/>
        <path d="M260.535,83.645l-99.173,147.755" style="fill:none;stroke:rgb(167,204,255);stroke-width:1px;"/>
        <path d="M648.317,345.35l86.143,-161.385" style="fill:none;stroke:rgb(167,204,255);stroke-width:1px;"/>
        <path d="M260.535,83.645l473.925,100.32" style="fill:none;stroke:rgb(167,204,255);stroke-width:1px;"/>
        <path d="M648.317,345.35l-486.955,-113.95" style="fill:none;stroke:rgb(167,204,255);stroke-width:1px;"/>
    </g>
    <g id="components">
        <path d="M720.371,548.722l-0,-34.083l11.741,0c2.65,0 4.673,0.163 6.068,0.488c1.952,0.45 3.619,1.264 4.998,2.442c1.798,1.518 3.143,3.46 4.034,5.823c0.891,2.364 1.337,5.065 1.337,8.103c-0,2.588 -0.303,4.882 -0.907,6.881c-0.605,2 -1.379,3.654 -2.325,4.964c-0.945,1.31 -1.98,2.341 -3.104,3.092c-1.123,0.752 -2.48,1.322 -4.068,1.709c-1.589,0.388 -3.414,0.581 -5.475,0.581l-12.299,0Zm4.51,-4.022l7.277,0c2.247,0 4.011,-0.209 5.289,-0.627c1.279,-0.419 2.298,-1.008 3.057,-1.767c1.07,-1.07 1.903,-2.507 2.5,-4.313c0.596,-1.806 0.895,-3.995 0.895,-6.568c-0,-3.565 -0.585,-6.304 -1.755,-8.219c-1.171,-1.914 -2.593,-3.196 -4.267,-3.847c-1.209,-0.465 -3.154,-0.698 -5.835,-0.698l-7.161,0l0,26.039Z" style="fill-rule:nonzero;"/>
        <path d="M546.14,955.011l4.51,1.139c-0.946,3.705 -2.647,6.53 -5.103,8.475c-2.457,1.945 -5.46,2.917 -9.009,2.917c-3.674,0 -6.661,-0.747 -8.963,-2.243c-2.302,-1.496 -4.053,-3.662 -5.254,-6.498c-1.201,-2.837 -1.802,-5.882 -1.802,-9.137c0,-3.549 0.678,-6.645 2.034,-9.288c1.357,-2.643 3.286,-4.65 5.789,-6.022c2.504,-1.371 5.259,-2.057 8.265,-2.057c3.41,-0 6.278,0.868 8.603,2.604c2.325,1.736 3.944,4.177 4.859,7.323l-4.441,1.046c-0.79,-2.479 -1.937,-4.285 -3.441,-5.417c-1.503,-1.131 -3.394,-1.697 -5.673,-1.697c-2.619,0 -4.808,0.628 -6.567,1.883c-1.76,1.256 -2.996,2.941 -3.709,5.057c-0.713,2.116 -1.069,4.297 -1.069,6.545c-0,2.898 0.422,5.428 1.267,7.591c0.845,2.162 2.158,3.777 3.941,4.847c1.782,1.069 3.712,1.604 5.789,1.604c2.526,0 4.665,-0.728 6.416,-2.185c1.752,-1.457 2.938,-3.619 3.558,-6.487Z" style="fill-rule:nonzero;"/>
        <path d="M109.698,854.68l13.089,-34.083l4.859,0l13.95,34.083l-5.138,0l-3.976,-10.322l-14.251,-0l-3.744,10.322l-4.789,0Zm9.835,-13.996l11.554,0l-3.557,-9.439c-1.085,-2.867 -1.891,-5.223 -2.418,-7.068c-0.434,2.186 -1.046,4.356 -1.836,6.51l-3.743,9.997Z" style="fill-rule:nonzero;"/>
        <path d="M393.484,483.411l0,-34.083l12.787,-0c2.604,-0 4.693,0.345 6.266,1.034c1.573,0.69 2.805,1.752 3.697,3.186c0.891,1.433 1.337,2.933 1.337,4.498c-0,1.457 -0.396,2.829 -1.186,4.115c-0.791,1.287 -1.984,2.325 -3.581,3.116c2.062,0.604 3.647,1.635 4.755,3.092c1.108,1.457 1.662,3.177 1.662,5.161c0,1.597 -0.337,3.081 -1.011,4.452c-0.674,1.372 -1.507,2.43 -2.499,3.174c-0.992,0.744 -2.236,1.306 -3.732,1.685c-1.496,0.38 -3.328,0.57 -5.498,0.57l-12.997,0Zm4.511,-19.762l7.37,0c1.999,0 3.433,-0.131 4.301,-0.395c1.147,-0.341 2.011,-0.907 2.592,-1.697c0.581,-0.791 0.872,-1.783 0.872,-2.976c-0,-1.131 -0.271,-2.127 -0.814,-2.988c-0.542,-0.86 -1.317,-1.449 -2.325,-1.766c-1.007,-0.318 -2.735,-0.477 -5.184,-0.477l-6.812,-0l-0,10.299Zm-0,15.74l8.486,-0c1.457,-0 2.48,-0.054 3.069,-0.163c1.038,-0.186 1.906,-0.496 2.603,-0.93c0.698,-0.434 1.271,-1.065 1.721,-1.895c0.449,-0.829 0.674,-1.786 0.674,-2.871c0,-1.271 -0.325,-2.375 -0.976,-3.313c-0.651,-0.938 -1.554,-1.596 -2.709,-1.976c-1.155,-0.38 -2.817,-0.57 -4.987,-0.57l-7.881,0l-0,11.718Z" style="fill-rule:nonzero;"/>
        <path d="M671.745,1336.5c0,-5.657 1.519,-10.086 4.557,-13.287c3.038,-3.201 6.959,-4.801 11.764,-4.801c3.146,0 5.983,0.752 8.509,2.255c2.527,1.504 4.452,3.6 5.778,6.289c1.325,2.689 1.987,5.739 1.987,9.149c0,3.456 -0.697,6.548 -2.092,9.276c-1.395,2.728 -3.371,4.793 -5.928,6.196c-2.558,1.403 -5.317,2.104 -8.277,2.104c-3.209,0 -6.076,-0.775 -8.602,-2.325c-2.527,-1.55 -4.441,-3.665 -5.743,-6.347c-1.302,-2.681 -1.953,-5.518 -1.953,-8.509Zm4.65,0.07c0,4.107 1.104,7.343 3.313,9.706c2.209,2.364 4.979,3.546 8.312,3.546c3.394,-0 6.188,-1.194 8.381,-3.581c2.193,-2.387 3.29,-5.773 3.29,-10.16c-0,-2.774 -0.469,-5.196 -1.407,-7.265c-0.938,-2.069 -2.309,-3.673 -4.115,-4.812c-1.806,-1.14 -3.832,-1.709 -6.08,-1.709c-3.193,-0 -5.94,1.096 -8.241,3.29c-2.302,2.193 -3.453,5.854 -3.453,10.985Z" style="fill-rule:nonzero;"/>
        <path d="M732.518,1319.01l4.511,-0l-0,19.692c-0,3.425 -0.388,6.145 -1.163,8.16c-0.775,2.015 -2.174,3.654 -4.196,4.917c-2.023,1.263 -4.677,1.895 -7.963,1.895c-3.193,0 -5.805,-0.55 -7.835,-1.651c-2.03,-1.1 -3.48,-2.693 -4.348,-4.777c-0.868,-2.085 -1.302,-4.933 -1.302,-8.544l0,-19.692l4.511,-0l-0,19.668c-0,2.961 0.275,5.142 0.825,6.545c0.55,1.403 1.496,2.484 2.837,3.243c1.34,0.76 2.979,1.139 4.917,1.139c3.317,0 5.68,-0.751 7.091,-2.255c1.41,-1.503 2.115,-4.394 2.115,-8.672l0,-19.668Z" style="fill-rule:nonzero;"/>
        <path d="M753.21,1353.1l0,-30.061l-11.229,-0l-0,-4.022l27.015,-0l0,4.022l-11.276,-0l0,30.061l-4.51,-0Z" style="fill-rule:nonzero;"/>
    </g>
    <path id="title" d="M237.217,290.533l-0,-116.301l40.548,-0c14.145,-0 24.243,2.37 30.293,7.111c6.051,4.741 9.077,12.665 9.077,23.771c-0,12.573 -4.047,22.357 -12.141,29.351c-8.094,6.993 -19.423,10.49 -33.987,10.49l-10.058,0l-0,45.578l-23.732,-0Zm23.732,-61.53l4.715,0c8.277,0 14.812,-1.925 19.606,-5.776c4.793,-3.85 7.19,-9.076 7.19,-15.677c-0,-11.577 -7.361,-17.366 -22.082,-17.366l-9.429,-0l-0,38.819Z" style="fill-rule:nonzero;"/>
    <path d="M335.916,290.533l-0,-86.283l23.26,-0l-0,16.266c6.024,-12.154 15.192,-18.231 27.503,-18.231c1.467,0 2.908,0.158 4.322,0.472l0,20.745c-3.3,-1.204 -6.365,-1.807 -9.194,-1.807c-9.272,0 -16.816,4.689 -22.631,14.066l-0,54.772l-23.26,-0Z" style="fill-rule:nonzero;"/>
    <path d="M409.075,290.533l0,-86.283l23.26,-0l0,86.283l-23.26,-0Zm0,-100.821l0,-19.409l23.26,-0l0,19.409l-23.26,0Z" style="fill-rule:nonzero;"/>
    <path d="M459.132,287.782l-0,-17.052c11.525,4.82 21.374,7.23 29.546,7.23c9.535,-0 14.302,-3.248 14.302,-9.745c0,-4.191 -3.929,-7.858 -11.787,-11.001l-7.858,-3.143c-8.539,-3.458 -14.643,-7.177 -18.31,-11.159c-3.667,-3.981 -5.5,-8.906 -5.5,-14.773c-0,-8.173 3.117,-14.525 9.351,-19.056c6.234,-4.532 14.957,-6.798 26.167,-6.798c7.02,0 15.376,1.022 25.068,3.065l0,16.345c-9.325,-3.248 -17.052,-4.872 -23.182,-4.872c-9.639,0 -14.459,2.986 -14.459,8.958c0,3.929 3.563,7.256 10.688,9.98l6.758,2.593c10.11,3.825 17.143,7.701 21.099,11.631c3.955,3.929 5.933,8.984 5.933,15.166c-0,8.12 -3.366,14.708 -10.098,19.763c-6.732,5.056 -15.494,7.583 -26.286,7.583c-10.372,0 -20.85,-1.571 -31.432,-4.715Z" style="fill-rule:nonzero;"/>
    <path d="M552.408,290.533l0,-86.283l22.317,-0l0,16.266c6.811,-12.154 16.502,-18.231 29.076,-18.231c6.496,0 11.839,1.598 16.03,4.794c4.191,3.196 6.758,7.675 7.701,13.437c8.068,-12.154 17.812,-18.231 29.233,-18.231c15.768,0 23.653,8.697 23.653,26.09l-0,62.158l-22.317,-0l-0,-54.536c-0,-10.216 -3.406,-15.323 -10.216,-15.323c-6.968,-0 -13.752,5.029 -20.353,15.087l0,54.772l-22.317,-0l0,-54.536c0,-10.268 -3.431,-15.402 -10.294,-15.402c-6.863,-0 -13.595,5.055 -20.196,15.166l0,54.772l-22.317,-0Z" style="fill-rule:nonzero;"/>
</svg>
